{"glyphs":{"0":{"ha":972,"x_min":28,"x_max":935,"o":"m 496 1056 q 756 968 640 1054 q 919 746 871 882 q 934 381 976 593 q 775 68 892 168 q 509 -29 667 -25 q 219 69 351 -33 q 51 322 97 172 q 28 642 4 472 q 187 935 53 811 q 496 1056 321 1058 m 336 278 q 484 219 403 224 q 632 265 565 214 q 716 419 697 318 q 718 614 735 519 q 642 758 701 697 q 514 824 582 818 q 381 793 453 829 q 278 682 308 757 q 242 539 247 608 q 253 419 238 469 q 290 333 268 368 q 336 278 311 299 z "},"1":{"ha":972,"x_min":201,"x_max":650,"o":"m 318 733 q 201 806 222 736 q 201 879 185 838 q 282 965 218 921 q 374 1026 344 1007 q 455 1058 404 1044 q 550 1063 506 1072 q 618 1015 594 1053 q 646 943 642 978 q 650 854 650 908 q 644 452 650 772 q 635 89 639 132 q 592 14 632 43 q 515 -12 553 -15 q 444 17 479 -10 q 404 94 410 44 q 408 678 400 138 q 392 731 410 714 q 353 740 375 747 q 318 733 329 733 z "},"2":{"ha":972,"x_min":121,"x_max":872,"o":"m 324 774 q 265 725 303 739 q 183 726 226 711 q 122 792 136 743 q 142 907 107 840 q 303 1038 188 989 q 553 1053 418 1086 q 760 900 689 1018 q 814 665 831 782 q 763 485 800 554 q 654 336 726 415 q 572 256 604 283 q 559 225 551 236 q 599 213 567 214 q 758 210 701 210 q 842 178 811 210 q 872 101 872 147 q 843 23 878 49 q 735 -3 808 -3 l 247 -3 q 176 24 219 -7 q 132 96 133 54 q 158 175 131 139 q 276 294 186 211 q 325 340 286 303 q 381 392 364 376 q 431 441 397 407 q 484 497 465 475 q 526 547 503 518 q 562 601 549 576 q 582 649 575 626 q 582 760 601 714 q 510 825 563 806 q 388 829 436 851 q 324 774 344 810 z "},"3":{"ha":972,"x_min":144,"x_max":808,"o":"m 721 586 q 729 483 683 542 q 808 290 807 385 q 744 91 810 178 q 569 -12 678 4 q 496 -18 519 -18 q 207 94 319 -18 q 144 201 156 146 q 157 285 133 256 q 240 331 185 325 q 332 300 294 336 q 465 217 408 224 l 486 217 q 551 231 522 217 q 585 275 581 246 q 564 355 592 319 q 506 404 536 390 l 485 414 q 436 436 453 428 q 400 462 419 444 q 372 500 381 479 q 376 576 357 539 q 433 633 396 613 q 551 717 538 689 q 532 826 585 782 q 475 844 511 844 q 376 824 418 844 q 226 833 289 779 q 197 906 194 860 q 257 1006 200 963 q 357 1048 293 1032 q 483 1064 421 1064 q 685 1008 603 1064 q 794 731 817 921 q 721 586 786 667 z "},"4":{"ha":972,"x_min":57,"x_max":928,"o":"m 489 1001 q 626 1049 540 1060 q 701 1016 665 1044 q 738 942 738 988 q 735 773 736 896 q 735 600 735 650 q 818 486 735 486 q 847 483 831 486 q 902 450 876 482 q 928 379 928 418 q 902 298 928 333 q 829 263 876 263 l 797 263 q 747 242 765 263 q 728 189 729 221 q 725 71 728 124 q 694 8 724 33 q 629 -18 664 -18 q 557 5 593 -18 q 517 65 521 28 q 513 188 510 110 q 498 241 513 219 q 458 264 483 263 q 204 267 310 264 q 67 350 110 271 q 58 430 49 385 q 97 515 67 475 q 298 767 142 572 q 489 1001 454 963 m 393 500 l 475 500 q 502 511 493 500 q 511 533 511 522 l 513 543 l 515 654 q 511 663 514 658 q 500 674 508 667 q 481 668 492 682 q 449 617 474 649 q 401 564 424 585 l 379 542 q 378 526 381 535 q 373 512 375 517 q 375 503 371 507 q 393 500 379 500 z "},"5":{"ha":972,"x_min":171,"x_max":826,"o":"m 271 1029 q 664 1035 513 1035 q 756 1003 719 1035 q 792 917 793 972 q 756 835 790 867 q 658 804 721 804 q 472 803 501 804 q 417 782 436 800 q 397 747 399 764 l 397 731 l 397 694 q 399 683 397 690 q 416 665 401 676 q 456 651 431 653 q 706 594 632 647 q 826 233 871 476 q 710 48 804 122 q 482 -22 617 -26 q 179 115 250 -15 q 171 202 157 161 q 219 261 185 243 q 385 225 283 296 q 501 198 431 192 q 603 246 572 204 q 622 349 638 292 q 550 436 607 407 q 349 443 479 471 q 238 458 285 431 q 190 535 190 485 l 190 944 q 214 1006 192 982 q 271 1029 236 1029 z "},"6":{"ha":972,"x_min":136,"x_max":817,"o":"m 625 611 q 792 471 732 583 q 817 213 853 358 q 699 48 790 106 q 504 -10 607 -10 q 381 14 440 -10 q 182 205 242 69 q 136 568 122 340 q 237 886 150 768 q 439 1036 324 1004 q 524 1047 481 1047 q 726 976 642 1047 q 764 909 761 947 q 747 849 767 871 q 671 810 726 810 q 617 819 644 810 q 535 832 576 832 q 426 793 458 832 q 360 653 374 728 q 369 619 356 633 q 418 614 383 604 q 511 626 474 626 q 625 611 561 626 m 607 253 q 620 271 607 253 q 632 328 633 289 q 603 399 631 367 q 536 442 576 431 q 506 446 521 446 q 435 428 469 446 q 389 376 400 410 q 393 261 363 306 q 503 206 433 206 q 538 210 519 206 q 607 253 581 217 z "},"7":{"ha":972,"x_min":111,"x_max":879,"o":"m 317 756 q 334 802 317 785 q 369 822 351 819 l 386 825 l 569 822 q 576 821 572 822 q 592 814 581 819 q 610 801 604 808 q 620 779 615 793 q 615 749 625 765 q 477 392 560 610 q 386 138 394 174 q 394 52 374 89 q 456 6 414 15 q 528 8 503 -6 q 586 65 553 21 q 738 448 610 96 q 879 861 865 800 q 857 978 896 933 q 761 1026 818 1024 q 276 1039 728 1028 q 156 998 197 1040 q 111 892 114 956 q 114 649 106 711 q 145 595 117 615 q 210 575 174 575 q 278 594 246 575 q 313 642 310 613 q 317 756 319 689 z "},"8":{"ha":972,"x_min":150,"x_max":831,"o":"m 246 600 q 190 753 190 674 q 333 1029 186 950 q 531 1061 408 1074 q 724 979 654 1049 q 788 871 768 935 q 806 758 807 807 q 793 674 804 710 q 738 586 781 632 q 742 519 711 557 q 831 347 814 433 q 806 149 851 240 q 669 19 761 57 q 546 -12 611 -4 q 406 -6 481 -21 q 275 53 331 10 q 166 190 193 117 q 150 357 139 263 q 243 531 161 449 q 246 600 275 563 m 583 724 q 608 770 603 740 q 603 825 613 800 q 588 850 599 838 q 552 874 578 863 q 492 885 526 886 q 419 851 442 882 q 394 790 396 821 q 411 735 392 765 q 469 697 431 704 q 583 724 539 683 m 582 408 q 517 435 558 431 q 444 428 476 440 q 388 385 414 417 q 368 294 363 353 q 397 226 371 253 q 449 191 424 199 q 499 182 475 183 q 575 205 533 181 q 624 275 617 229 q 582 408 639 357 z "},"9":{"ha":972,"x_min":150,"x_max":826,"o":"m 683 1011 q 826 700 817 915 q 772 464 829 603 q 758 425 767 450 q 676 225 739 371 q 594 47 614 79 q 507 -15 558 -15 q 468 -8 492 -15 q 414 39 431 3 q 408 138 388 90 q 488 315 443 228 q 488 363 503 344 q 453 383 474 381 q 290 432 344 392 q 185 562 222 483 q 150 729 149 640 q 199 901 153 819 q 317 1018 246 983 q 508 1057 401 1057 q 683 1011 617 1057 m 574 625 q 608 676 593 636 q 614 757 622 717 q 564 832 604 807 q 485 857 524 857 l 479 857 q 406 826 442 856 q 363 753 369 796 q 375 668 354 710 q 435 610 396 626 q 479 601 453 601 q 574 625 539 601 z "},"\u0001":{"ha":694,"x_min":0,"x_max":0,"o":""}," ":{"ha":550,"x_min":0,"x_max":0,"o":""},"!":{"ha":417,"x_min":76,"x_max":342,"o":"m 306 1008 q 342 876 346 961 q 292 346 294 364 q 208 269 279 274 l 204 269 q 122 347 140 269 q 97 599 115 374 q 76 885 79 824 q 111 1001 72 958 q 218 1047 150 1047 q 306 1008 271 1047 m 224 233 q 318 174 290 219 q 329 72 342 131 q 286 -3 319 26 q 208 -32 253 -32 q 114 8 151 -32 q 76 99 76 49 q 108 192 76 149 q 194 236 139 236 q 224 233 204 236 z "},"\"":{"ha":629,"x_min":64,"x_max":569,"o":"m 431 874 q 350 938 361 890 q 365 1035 336 988 q 449 1083 394 1082 q 531 1051 496 1085 q 569 972 567 1017 q 560 883 574 931 q 525 806 547 836 q 447 764 481 749 q 436 817 413 782 q 447 829 440 822 q 454 840 453 836 q 431 874 464 864 m 144 874 q 64 938 78 890 q 80 1035 50 988 q 164 1083 110 1082 q 246 1050 210 1085 q 285 972 282 1015 q 275 882 288 929 q 240 806 263 835 q 198 768 219 779 q 163 764 176 757 q 150 817 126 781 q 160 829 154 822 q 168 840 167 836 q 144 874 178 864 z "},"#":{"ha":1093,"x_min":38,"x_max":1050,"o":"m 946 667 l 943 667 q 938 665 940 665 q 932 663 936 664 q 925 660 928 661 q 918 655 922 658 q 910 647 914 651 q 903 638 907 643 q 897 626 900 633 q 893 610 894 618 q 885 556 892 604 q 872 482 878 507 q 869 456 871 467 q 873 437 868 444 q 881 424 878 429 q 892 417 885 419 q 902 415 899 415 q 911 414 906 414 l 918 413 q 997 376 968 410 q 1024 294 1025 342 q 988 222 1022 251 q 886 190 953 192 q 863 188 874 190 q 846 181 853 185 q 833 172 839 178 q 825 160 828 165 q 819 147 822 156 q 815 135 815 139 q 813 124 814 132 l 811 115 q 800 67 806 83 q 761 1 786 18 q 694 -17 736 -17 q 625 13 653 -17 q 601 103 597 43 q 561 192 611 194 q 512 192 544 192 q 463 193 479 193 q 412 172 433 194 q 388 131 390 149 q 378 90 381 96 q 267 -14 346 -14 q 193 24 222 -14 q 172 124 164 61 q 135 203 181 196 q 62 244 86 214 q 38 311 38 274 q 80 388 38 354 q 186 421 122 421 q 228 467 219 421 q 240 534 232 488 q 251 604 247 581 q 249 644 256 628 q 233 666 242 661 q 218 671 224 671 q 85 779 92 681 q 122 865 81 826 q 224 901 163 904 q 280 915 257 900 q 310 942 303 929 q 319 965 317 954 q 363 1053 336 1025 q 443 1076 390 1082 q 507 1038 486 1071 q 528 957 528 1004 q 527 936 529 949 q 540 912 525 924 q 589 899 556 900 q 668 897 656 899 q 699 901 686 896 q 720 915 713 907 q 733 933 728 922 q 741 951 739 943 q 744 969 743 960 l 746 978 q 795 1047 763 1028 q 864 1058 828 1065 q 927 1016 903 1051 q 944 933 951 981 q 982 881 938 896 q 1036 834 1018 868 q 1050 769 1054 800 q 1019 705 1047 736 q 946 667 990 674 m 597 418 q 661 479 649 415 q 668 519 664 493 q 676 565 672 544 q 682 604 679 586 q 676 646 685 626 q 638 665 667 665 q 590 666 621 665 q 543 667 558 667 q 493 647 513 665 q 471 610 474 628 q 449 479 463 568 q 448 455 449 468 q 461 431 447 442 q 500 419 475 419 q 597 418 581 419 z "},"$":{"ha":736,"x_min":33,"x_max":696,"o":"m 468 624 q 519 525 469 554 q 696 253 722 399 q 506 46 667 92 q 471 31 486 40 q 451 17 456 22 q 444 8 446 11 q 368 -35 424 -35 q 335 -28 347 -35 q 310 -10 319 -21 l 300 1 q 283 18 289 13 q 263 32 276 24 q 238 44 250 40 q 85 129 158 69 l 76 135 q 33 218 31 171 q 75 290 33 260 q 131 310 103 310 q 219 278 164 310 q 285 307 281 247 l 285 376 q 235 464 285 435 q 119 546 160 511 q 57 629 79 581 q 41 780 24 700 q 118 913 58 860 q 240 979 176 964 q 265 991 253 982 q 284 1008 276 1000 q 301 1028 292 1017 q 313 1043 310 1040 q 386 1078 343 1078 q 443 1051 417 1078 q 458 1030 446 1049 q 488 997 471 1011 q 529 972 504 982 q 647 897 608 944 q 686 804 686 850 q 646 739 686 758 q 567 735 606 719 q 519 767 544 744 q 500 777 511 774 q 479 774 489 781 q 469 746 469 768 l 469 724 q 469 674 469 707 q 468 624 468 640 m 235 733 q 256 674 226 706 q 275 666 263 664 q 289 686 288 668 q 290 758 290 711 q 284 781 290 772 q 263 781 278 790 q 235 733 243 765 m 501 256 q 508 307 517 285 q 483 332 503 324 q 465 314 465 340 q 464 265 465 293 q 472 240 464 244 q 488 240 479 235 q 501 256 497 246 z "},"%":{"ha":1058,"x_min":40,"x_max":1006,"o":"m 926 982 q 947 926 947 956 q 939 881 947 897 q 913 836 931 864 l 911 833 q 601 457 883 793 q 539 381 574 424 q 482 313 504 339 q 450 275 460 286 l 432 251 q 251 42 300 89 q 186 15 225 15 q 115 40 146 15 q 98 100 93 60 q 135 183 103 140 q 328 424 174 238 q 506 644 478 608 q 689 864 543 694 q 757 946 749 935 q 868 1013 813 1013 q 926 982 903 1013 m 444 939 q 485 816 481 888 q 463 683 490 744 q 390 601 442 636 q 272 565 339 565 q 257 567 263 565 q 40 724 76 578 q 53 883 21 800 q 164 1010 85 967 q 257 1033 208 1033 q 366 1005 314 1033 q 444 939 418 976 m 319 772 q 322 816 326 793 q 304 850 318 839 q 271 860 293 860 q 225 847 247 860 q 200 818 203 835 q 215 753 192 782 q 258 733 232 733 q 319 772 308 733 m 1006 308 q 1002 170 1031 243 q 926 60 974 97 q 789 14 872 14 q 699 33 740 14 q 606 122 644 60 q 568 246 568 185 q 613 383 568 326 q 739 463 657 439 q 796 471 768 471 q 921 426 864 471 q 1006 308 978 382 m 831 286 q 822 294 831 286 q 786 303 813 303 q 745 280 760 303 q 731 236 731 257 q 748 199 731 219 q 788 179 765 179 l 792 179 q 838 203 824 182 q 850 250 851 224 q 831 286 849 269 z "},"&":{"ha":922,"x_min":68,"x_max":876,"o":"m 876 143 q 835 40 899 85 q 729 42 792 10 q 631 38 675 68 q 438 -33 535 -31 l 421 -33 q 213 13 315 -33 q 68 143 110 58 q 75 426 1 285 q 144 515 93 461 q 146 604 183 557 q 107 669 121 642 q 107 910 51 792 q 219 1030 142 983 q 388 1076 296 1076 q 486 1060 440 1076 q 636 940 589 1024 q 679 765 683 857 q 640 647 678 701 q 554 563 603 592 q 531 530 536 553 q 551 475 526 507 q 604 419 569 454 q 661 401 621 406 q 718 401 701 396 q 736 404 729 404 l 739 404 q 809 376 778 403 q 846 314 840 349 q 843 267 850 292 q 863 169 829 203 q 876 143 871 160 m 319 725 q 372 699 340 700 q 411 708 403 697 q 457 811 469 758 q 427 857 451 839 q 372 875 403 875 q 349 872 356 875 q 301 832 317 864 q 297 771 286 804 q 319 725 308 738 m 367 372 q 362 376 365 374 q 347 384 358 379 q 326 391 336 389 q 303 390 317 393 q 278 376 289 388 q 243 292 240 344 q 284 205 247 239 q 383 164 321 171 q 482 192 433 157 q 499 222 499 204 q 490 253 499 240 l 482 264 l 367 372 z "},"'":{"ha":417,"x_min":97,"x_max":318,"o":"m 178 874 q 97 938 111 890 q 114 1035 85 989 q 197 1083 143 1082 q 279 1050 243 1085 q 318 972 315 1015 q 308 882 321 929 q 274 806 296 835 q 231 768 253 779 q 196 764 210 757 q 183 817 160 781 q 201 840 201 839 q 178 874 211 864 z "},"(":{"ha":556,"x_min":67,"x_max":456,"o":"m 407 940 q 312 778 360 888 q 261 522 264 668 q 272 401 260 460 q 310 290 285 342 q 354 209 336 239 q 404 136 372 179 q 440 88 436 93 q 454 -51 503 -7 q 419 -73 439 -65 q 369 -76 400 -81 q 310 -49 339 -71 q 244 15 278 -24 q 169 120 211 54 q 98 286 126 186 q 67 499 69 386 q 130 846 63 699 q 271 1064 197 993 q 440 1088 369 1158 q 455 1024 464 1064 q 407 940 446 985 z "},")":{"ha":556,"x_min":76,"x_max":465,"o":"m 125 940 q 77 1024 86 985 q 92 1088 68 1064 q 261 1064 163 1158 q 324 990 292 1035 q 391 874 356 944 q 447 704 426 803 q 465 499 468 606 q 434 285 463 385 q 364 120 406 186 q 288 15 322 54 q 222 -49 254 -25 q 163 -76 193 -71 q 113 -73 132 -81 q 78 -51 93 -65 q 93 88 29 -7 q 128 135 99 94 q 177 208 158 176 q 221 291 196 240 q 259 401 246 342 q 271 522 272 460 q 220 778 268 668 q 125 940 172 888 z "},"*":{"ha":703,"x_min":67,"x_max":644,"o":"m 606 606 q 631 503 668 554 q 569 472 608 472 q 514 490 542 472 l 494 506 q 456 533 474 522 q 421 519 425 554 l 421 499 l 421 483 q 406 414 419 435 q 353 389 393 393 l 346 389 q 294 413 315 389 q 271 478 274 438 l 271 510 q 256 531 269 528 q 233 526 242 535 q 190 496 199 500 q 129 472 156 472 q 83 496 103 472 q 69 556 63 524 q 106 615 75 589 q 185 678 122 632 q 202 713 204 697 q 188 739 200 729 q 108 800 121 790 q 67 906 42 856 q 132 946 89 946 q 186 929 158 946 q 202 918 189 928 q 226 900 215 908 q 271 911 269 867 l 271 946 q 296 1022 267 990 q 356 1049 322 1049 q 410 1021 396 1047 q 425 949 424 994 q 426 908 426 940 q 435 885 426 894 q 461 886 444 876 q 496 914 474 894 l 501 917 q 578 951 544 951 q 629 925 607 951 q 644 881 646 903 q 583 794 642 844 q 515 742 542 765 q 518 674 476 707 q 606 606 603 607 z "},"+":{"ha":975,"x_min":44,"x_max":932,"o":"m 803 628 q 895 611 861 628 q 932 544 929 594 q 915 492 935 513 q 794 454 886 460 q 653 453 744 450 q 599 429 617 454 q 581 381 581 404 q 576 168 578 189 q 492 71 571 71 q 424 102 451 71 q 397 181 397 133 l 397 282 q 396 382 396 311 q 380 430 396 406 q 331 453 364 454 q 146 456 182 453 q 44 532 44 460 q 73 600 44 574 q 150 629 101 626 q 292 631 164 631 q 301 631 294 631 q 313 631 307 631 q 322 631 318 631 q 376 653 357 626 q 394 707 394 681 q 396 897 394 883 q 472 1015 404 1007 q 547 992 517 1021 q 581 911 578 963 q 582 696 582 890 q 657 629 582 628 l 714 629 q 772 628 742 629 l 803 628 z "},",":{"ha":414,"x_min":100,"x_max":321,"o":"m 181 -8 q 100 56 114 8 q 116 153 86 106 q 200 201 146 200 q 282 169 246 203 q 321 90 318 135 q 311 1 324 49 q 276 -75 299 -47 q 199 -117 229 -135 q 186 -65 164 -100 q 197 -51 190 -58 q 204 -42 203 -44 q 181 -8 215 -17 z "},"-":{"ha":679,"x_min":65,"x_max":614,"o":"m 196 279 q 107 294 138 279 q 65 351 76 310 q 98 427 64 393 q 185 463 132 461 q 285 460 226 460 q 407 461 344 460 q 486 463 469 463 q 573 440 535 463 q 614 386 611 418 q 595 315 618 347 q 519 281 572 282 q 427 273 492 274 q 285 276 363 272 q 196 279 207 279 z "},".":{"ha":389,"x_min":82,"x_max":314,"o":"m 203 -36 q 117 0 150 -31 q 82 72 85 31 q 113 158 78 117 q 207 196 147 200 q 290 156 265 193 q 314 71 314 118 q 279 -3 314 32 q 203 -36 244 -39 z "},"/":{"ha":714,"x_min":47,"x_max":646,"o":"m 472 988 q 619 1074 532 1121 q 646 921 706 1028 q 578 781 635 900 q 455 524 521 661 q 374 356 389 388 q 201 43 261 121 q 139 2 176 8 q 79 11 101 -4 q 47 61 53 25 q 65 158 42 97 q 173 381 81 194 q 288 622 265 568 q 389 827 313 682 q 472 988 465 972 z "},":":{"ha":428,"x_min":96,"x_max":338,"o":"m 217 681 q 131 719 161 685 q 96 797 100 754 q 137 880 92 838 q 235 913 182 922 q 313 869 288 903 q 338 792 338 836 q 305 710 343 743 q 217 681 267 678 m 211 169 q 132 209 163 175 q 101 286 101 243 q 156 363 117 325 q 239 393 194 400 q 308 353 285 386 q 332 282 332 321 q 297 202 332 240 q 211 169 263 164 z "},";":{"ha":431,"x_min":101,"x_max":333,"o":"m 222 676 q 137 713 169 682 q 101 785 104 743 q 132 872 97 831 q 226 908 167 913 q 309 867 285 906 q 333 783 333 829 q 299 709 333 744 q 222 676 264 674 m 182 182 q 101 246 115 199 q 118 344 89 297 q 201 392 147 390 q 284 359 249 393 q 322 281 319 325 q 313 190 325 238 q 278 115 300 143 q 235 76 257 88 q 200 72 214 65 q 189 125 167 92 q 198 138 192 131 q 206 149 204 144 q 182 182 217 174 z "},"<":{"ha":903,"x_min":50,"x_max":854,"o":"m 736 808 l 726 803 q 375 589 667 769 q 343 531 339 567 q 386 474 347 494 q 771 269 664 328 q 825 229 807 250 q 846 195 843 208 q 849 156 849 182 l 849 154 q 822 98 849 122 q 767 74 796 74 q 617 129 711 74 q 532 176 611 132 q 101 432 132 407 q 53 482 67 458 q 50 543 40 506 q 146 657 60 589 l 151 661 q 592 943 215 713 l 617 958 q 763 1010 701 1010 q 792 1004 781 1010 q 842 965 824 993 q 854 911 860 936 q 828 872 850 893 q 792 842 807 851 q 736 808 776 832 z "},"=":{"ha":903,"x_min":47,"x_max":851,"o":"m 182 643 q 92 665 121 647 q 57 719 63 683 q 83 797 51 767 q 165 831 114 828 q 461 830 208 828 q 744 831 714 832 q 774 819 756 826 q 799 810 793 813 q 817 803 806 808 q 832 793 829 797 q 840 781 835 789 q 846 765 844 774 q 847 744 847 757 q 818 673 853 699 q 732 647 783 647 q 454 638 675 638 q 182 643 233 639 m 714 433 q 814 415 779 433 q 851 347 849 397 q 813 278 854 297 q 701 256 772 260 q 423 253 638 253 q 154 257 208 254 q 47 333 47 261 q 78 405 47 378 q 160 435 110 432 q 320 436 224 436 q 561 435 417 436 q 714 433 706 433 z "},">":{"ha":903,"x_min":44,"x_max":850,"o":"m 163 808 q 107 842 122 832 q 70 872 92 851 q 44 911 49 893 q 58 965 40 936 q 107 1004 75 993 q 138 1010 118 1010 q 282 958 199 1010 l 307 943 q 747 661 683 713 l 753 657 q 850 543 839 589 q 845 483 858 506 q 799 432 832 460 q 367 176 761 401 q 283 129 317 149 q 132 74 188 74 q 77 99 104 74 q 50 154 50 124 l 50 156 q 53 195 50 182 q 74 229 56 208 q 129 269 92 250 q 513 474 290 357 q 556 531 551 494 q 525 589 560 567 q 174 803 185 796 l 163 808 z "},"?":{"ha":747,"x_min":49,"x_max":700,"o":"m 396 233 q 490 174 463 219 q 503 72 515 132 q 459 -3 493 26 q 381 -32 425 -32 q 287 8 324 -32 q 250 99 250 49 q 281 192 250 149 q 367 236 311 236 q 396 233 376 236 m 642 949 q 700 810 689 883 q 695 679 711 738 q 644 572 679 621 q 565 472 614 529 q 504 385 508 403 q 465 310 493 346 q 389 275 438 275 q 319 303 344 275 q 293 382 290 332 q 429 614 303 510 q 484 703 471 650 q 467 806 497 757 q 372 843 440 843 q 338 839 354 843 q 260 749 289 818 q 136 660 217 650 q 68 697 93 664 q 49 788 40 735 q 219 1022 78 956 q 390 1058 296 1058 q 642 949 561 1058 z "},"@":{"ha":1119,"x_min":57,"x_max":1064,"o":"m 931 933 q 1064 522 1104 775 q 998 384 1051 440 q 867 317 944 328 q 818 313 842 313 q 705 310 793 313 q 590 307 617 307 q 482 321 528 307 q 373 393 419 339 q 328 524 326 447 q 397 692 329 631 q 554 758 465 754 q 701 724 631 763 q 793 628 771 686 q 811 563 813 586 q 821 534 808 543 q 850 528 833 525 q 875 543 867 531 q 892 588 886 560 q 883 669 897 617 q 825 767 869 721 q 578 863 729 863 q 497 853 532 863 q 344 772 414 831 q 257 624 274 713 q 268 432 239 524 q 364 290 297 340 q 508 234 415 251 q 665 217 600 217 q 746 231 685 217 q 860 246 828 250 q 918 206 899 239 q 922 124 940 165 q 739 31 901 67 q 621 19 683 19 q 303 90 454 19 q 101 292 168 153 q 57 600 35 431 q 152 839 75 732 q 347 1006 229 946 q 571 1050 433 1050 q 774 1019 679 1050 q 931 933 869 988 m 643 515 q 644 575 658 546 q 614 606 636 596 q 575 614 593 614 q 523 596 546 614 q 489 546 500 578 q 494 497 481 518 q 557 461 514 465 q 606 472 581 458 q 643 515 631 486 z "},"A":{"ha":1131,"x_min":54,"x_max":1090,"o":"m 1083 136 q 1090 54 1103 92 q 1039 0 1076 17 q 953 -3 1007 -19 q 871 67 900 14 q 842 131 864 79 q 803 218 819 183 q 765 266 788 250 q 728 282 743 282 l 713 282 l 451 282 q 444 283 449 282 q 428 281 440 283 q 403 272 415 278 q 376 251 392 267 q 349 214 361 236 q 315 150 335 189 q 281 83 296 111 q 263 49 267 56 q 200 -15 228 -1 q 125 -19 172 -29 q 54 34 75 -8 q 56 143 33 76 q 211 474 74 192 q 364 794 349 757 q 379 833 368 804 q 396 877 390 863 q 413 918 401 892 q 433 959 424 944 q 453 992 442 974 q 478 1021 465 1010 q 504 1038 490 1032 q 624 1047 553 1060 q 722 990 696 1035 q 910 553 743 956 q 1083 136 1076 150 m 611 686 q 596 708 604 701 q 578 708 588 714 q 563 685 569 701 q 508 563 535 626 q 505 523 499 535 q 524 510 511 511 l 536 508 l 635 510 q 646 512 640 510 q 663 525 651 514 q 663 561 674 536 q 635 627 654 583 q 611 686 617 671 z "},"B":{"ha":947,"x_min":114,"x_max":849,"o":"m 767 518 q 849 264 863 375 q 601 -3 818 18 q 419 -11 508 -11 q 286 -7 386 -11 q 239 -6 267 -6 q 161 26 197 -6 q 119 106 125 57 q 114 879 111 161 l 114 918 q 150 1011 114 975 q 247 1051 186 1047 q 404 1056 310 1056 q 610 1046 536 1056 q 744 976 686 1036 q 817 846 803 915 q 763 550 847 690 q 757 542 760 547 l 754 536 q 767 518 756 535 m 596 796 q 451 832 571 832 q 430 831 443 832 q 413 831 417 831 l 401 831 q 346 800 349 831 q 344 735 344 785 q 343 669 344 685 q 354 629 342 647 q 382 615 367 617 l 389 615 q 464 611 439 611 q 582 636 550 611 q 617 708 611 660 q 596 796 624 756 m 343 263 q 354 224 340 239 q 382 210 365 210 l 386 210 q 471 206 436 206 q 599 229 568 206 q 635 297 629 253 q 614 381 642 340 q 457 415 589 415 l 414 415 l 401 415 q 346 383 347 415 q 344 324 344 369 q 343 263 344 278 z "},"C":{"ha":1003,"x_min":90,"x_max":915,"o":"m 806 258 q 890 217 861 258 q 915 117 928 167 q 817 22 899 57 q 625 -6 753 -6 q 335 51 433 -6 q 271 94 301 69 q 199 165 240 118 q 132 268 158 213 q 92 408 106 324 q 90 588 78 492 q 138 758 101 681 q 221 886 174 836 q 326 972 268 936 q 439 1023 385 1007 q 543 1040 493 1039 q 551 1041 546 1040 q 560 1042 557 1042 q 775 999 675 1042 q 908 903 875 956 q 907 756 961 824 q 835 724 879 724 q 747 753 793 724 q 600 790 689 790 q 522 782 561 790 q 400 701 460 767 q 335 551 340 636 q 436 292 325 383 q 527 249 469 264 q 638 235 585 235 q 668 236 658 235 q 731 247 696 240 q 806 258 783 258 z "},"D":{"ha":1058,"x_min":113,"x_max":976,"o":"m 874 875 q 958 681 933 797 q 976 452 983 565 q 936 244 968 339 q 782 59 893 121 q 550 -6 671 -3 l 535 -6 q 339 -8 390 -8 q 238 -6 279 -8 q 113 149 108 8 l 113 404 q 115 883 113 851 q 181 999 121 958 q 317 1039 240 1039 l 322 1039 l 372 1039 q 443 1040 393 1040 q 874 875 750 1040 m 764 489 q 693 711 767 636 q 457 789 618 789 l 435 789 l 421 789 l 413 789 l 401 789 q 356 776 369 789 q 342 733 342 764 l 342 663 l 342 293 q 408 239 344 239 q 418 238 411 239 q 431 238 425 238 q 493 235 461 235 q 764 489 756 235 z "},"E":{"ha":919,"x_min":111,"x_max":846,"o":"m 736 225 q 803 188 779 224 q 826 113 826 151 q 799 40 826 76 q 733 1 772 3 q 240 -6 606 -6 q 111 114 117 -6 q 114 735 107 213 q 115 883 115 807 q 243 1024 115 1019 l 319 1024 q 747 1018 639 1024 q 820 982 794 1017 q 846 903 846 947 q 817 826 846 854 q 735 794 788 797 q 556 793 704 793 l 408 793 l 383 793 q 354 758 358 793 q 351 672 354 757 q 366 640 351 656 q 418 624 381 624 q 533 622 468 624 q 649 619 599 621 q 710 618 700 618 q 764 594 740 618 q 794 507 797 557 q 765 440 792 471 q 699 407 738 408 q 636 406 689 406 q 528 406 607 406 q 410 407 449 407 q 350 346 350 407 q 349 260 349 301 q 399 228 349 228 q 736 225 678 228 z "},"F":{"ha":906,"x_min":114,"x_max":847,"o":"m 357 739 l 356 736 q 356 731 356 733 q 356 723 356 728 q 358 715 356 718 q 363 706 360 711 q 372 698 365 701 q 386 691 378 694 q 407 686 394 688 q 435 685 419 685 q 553 685 482 685 q 660 685 624 685 q 725 685 697 685 q 783 660 758 685 q 815 572 818 624 q 786 501 814 533 q 718 465 758 468 q 431 461 703 465 q 361 383 361 461 q 362 296 361 354 q 364 213 363 238 q 364 153 364 182 q 364 108 364 125 l 365 90 q 331 15 365 46 q 254 -19 296 -17 l 246 -19 q 223 -18 235 -19 q 192 -9 211 -17 q 159 10 174 -1 q 133 46 144 22 q 121 101 122 69 q 114 874 114 249 q 243 1015 114 1014 q 746 1011 375 1019 q 822 977 796 1010 q 847 900 847 944 q 817 819 847 849 q 735 789 788 790 q 556 788 704 788 l 406 788 q 392 784 400 786 q 370 769 383 782 q 357 739 357 757 z "},"G":{"ha":1106,"x_min":97,"x_max":1033,"o":"m 922 563 q 999 522 965 558 q 1033 435 1032 486 q 1033 411 1033 426 q 1024 353 1032 396 q 1002 271 1015 310 q 958 184 989 232 q 888 103 928 136 q 575 3 767 3 q 475 8 521 3 q 288 83 374 19 q 157 221 203 146 q 97 365 111 296 q 254 907 29 722 q 593 1028 400 1028 q 743 1013 657 1028 q 889 944 831 996 q 957 846 947 892 q 940 754 968 788 q 858 713 907 713 q 781 744 826 713 q 756 760 764 756 q 704 783 729 775 q 614 794 664 794 q 558 790 589 794 q 472 761 528 786 q 379 692 415 736 q 321 565 336 640 q 325 414 306 490 q 400 290 344 338 q 592 225 478 225 q 696 239 646 225 q 789 308 753 256 q 789 347 801 324 q 744 367 776 369 l 676 367 q 588 391 626 367 q 547 457 549 415 q 574 528 546 500 q 676 564 607 564 l 719 565 q 778 566 739 565 q 835 567 817 567 q 922 563 894 567 z "},"H":{"ha":1111,"x_min":110,"x_max":1000,"o":"m 110 875 q 110 890 110 881 q 114 922 110 899 q 128 962 118 944 q 160 994 138 979 q 213 1008 182 1008 q 315 963 286 1008 q 344 856 344 918 l 344 685 q 363 631 343 650 q 403 608 383 611 l 424 607 l 697 606 q 715 606 704 606 q 742 626 725 607 q 761 681 760 644 q 763 847 763 739 q 800 979 764 944 q 899 1008 836 1014 q 967 967 949 1003 q 990 868 986 932 q 1000 119 1000 715 q 965 19 1000 51 q 874 -6 931 -12 q 803 26 822 -1 q 771 117 785 53 q 764 326 764 146 q 747 372 764 354 q 714 392 731 389 l 697 396 l 419 400 q 413 399 417 400 q 397 394 408 399 q 377 382 386 389 q 362 360 368 375 q 356 326 356 346 q 353 122 356 146 q 228 -7 343 -7 q 145 35 175 -7 q 118 138 115 76 q 115 516 119 185 q 110 875 110 847 z "},"I":{"ha":456,"x_min":108,"x_max":357,"o":"m 353 504 q 357 143 358 172 q 330 43 354 76 q 242 6 306 10 q 235 4 239 4 q 149 49 178 4 q 118 158 121 94 q 109 536 114 268 q 110 899 104 804 q 152 980 115 950 q 233 1010 189 1010 q 317 972 282 1010 q 349 885 350 936 q 353 504 347 844 z "},"J":{"ha":856,"x_min":51,"x_max":746,"o":"m 632 1019 q 746 874 746 1017 q 739 594 746 806 q 726 311 732 383 q 657 117 721 193 q 481 13 593 40 q 376 0 431 0 q 219 29 292 0 q 101 111 146 58 q 51 332 -7 235 q 136 374 75 374 q 226 329 194 374 l 235 318 q 268 276 256 290 q 307 250 281 263 q 368 238 333 238 l 376 238 q 476 279 440 239 q 514 393 511 319 q 517 647 517 465 q 515 876 517 828 q 551 990 513 950 q 628 1019 581 1019 l 632 1019 z "},"K":{"ha":989,"x_min":114,"x_max":954,"o":"m 915 204 q 953 131 944 174 q 946 58 963 88 q 840 4 917 4 q 772 22 803 4 q 521 217 707 58 q 418 297 478 253 q 380 308 393 317 q 363 285 367 299 q 358 256 358 272 l 358 133 q 333 33 356 65 q 246 -4 310 0 q 240 -5 243 -4 q 236 -6 238 -6 q 152 39 181 -6 q 121 146 124 83 q 114 542 117 219 q 117 936 111 864 q 158 1017 122 988 q 239 1047 194 1046 q 321 1011 288 1047 q 354 925 356 974 q 354 761 351 893 q 360 736 354 747 q 378 721 365 725 q 413 733 390 717 q 568 854 533 826 q 603 882 594 875 l 617 893 q 701 960 675 940 q 763 999 726 981 q 824 1018 799 1018 q 898 985 865 1017 q 931 914 931 953 q 825 761 933 844 q 608 567 758 711 q 581 522 583 543 q 588 490 579 501 q 615 463 596 479 q 915 204 878 243 z "},"L":{"ha":1000,"x_min":115,"x_max":939,"o":"m 808 265 q 903 228 869 265 q 939 140 936 192 q 907 56 942 92 q 807 13 871 15 q 307 10 654 10 q 230 24 269 10 q 156 79 190 38 q 119 185 121 121 q 116 569 117 283 q 117 910 115 856 q 153 1015 119 976 q 243 1053 186 1053 q 338 1014 301 1053 q 374 911 376 975 q 378 433 374 910 l 378 421 q 378 371 378 396 q 378 330 378 346 q 379 311 379 314 q 418 267 379 267 l 553 267 q 701 266 607 267 q 808 265 794 265 z "},"M":{"ha":1186,"x_min":111,"x_max":1081,"o":"m 1078 690 q 1081 111 1085 174 q 1049 38 1078 67 q 978 7 1021 10 q 897 33 933 4 q 860 111 861 61 q 846 489 850 388 q 846 497 846 492 q 845 516 846 503 q 842 538 844 529 q 834 552 839 546 q 819 551 829 558 q 797 525 810 544 q 696 383 714 401 q 601 339 654 339 q 499 390 547 339 q 388 522 447 449 q 368 541 378 535 q 351 538 358 547 q 343 496 343 528 q 344 346 344 413 q 342 201 343 279 q 342 118 342 124 q 307 38 339 71 q 228 3 275 4 l 225 3 q 221 1 222 1 q 190 6 204 1 q 158 21 175 10 q 128 56 140 32 q 111 114 115 79 q 113 733 104 176 l 113 739 q 113 816 113 775 q 114 860 114 857 q 204 1019 114 989 q 236 1024 221 1024 q 307 997 274 1024 q 386 918 340 971 q 556 682 418 881 q 599 659 578 656 q 633 685 619 663 q 846 999 806 965 q 949 1036 892 1036 q 1018 1013 988 1036 q 1066 944 1056 982 q 1076 844 1076 907 q 1077 791 1076 843 q 1078 694 1078 739 l 1078 690 z "},"N":{"ha":1144,"x_min":114,"x_max":1039,"o":"m 929 1040 q 1005 1007 971 1039 q 1039 929 1039 975 q 1031 117 1039 244 q 991 43 1028 76 q 903 10 954 10 q 832 28 867 10 q 401 542 761 65 q 366 558 385 564 q 347 525 347 553 q 349 117 350 176 q 313 46 347 74 q 236 15 279 18 q 161 43 194 13 q 122 132 128 74 q 115 522 118 188 q 114 904 113 856 q 147 991 117 957 q 228 1032 176 1025 q 237 1033 231 1032 q 247 1033 243 1033 q 397 960 329 1033 q 764 464 457 893 q 797 447 779 443 q 814 476 814 451 l 814 925 q 849 1008 814 976 q 926 1040 883 1040 l 929 1040 z "},"O":{"ha":1142,"x_min":86,"x_max":1060,"o":"m 1060 660 q 1047 317 1108 492 q 853 71 985 143 q 586 8 736 8 q 274 97 392 8 q 110 333 168 178 q 86 657 51 489 q 246 915 117 801 q 547 1031 375 1028 l 558 1031 q 873 927 733 1031 q 1060 660 1013 824 m 818 410 q 760 706 872 588 q 574 778 692 778 q 406 722 469 778 q 332 439 289 625 q 417 314 349 365 q 572 258 485 263 q 724 297 650 256 q 818 410 797 338 z "},"P":{"ha":981,"x_min":114,"x_max":928,"o":"m 676 1036 q 857 940 783 1031 q 928 728 931 850 q 861 512 925 607 q 685 407 797 417 q 475 399 593 399 q 456 399 468 399 q 438 400 443 400 q 378 372 397 396 q 360 317 360 349 q 356 85 360 131 q 314 7 350 36 q 236 -22 278 -22 q 159 4 194 -22 q 117 78 124 31 q 114 813 110 119 l 114 910 q 145 1004 114 969 q 233 1046 176 1039 q 318 1049 267 1049 q 676 1036 460 1049 m 367 647 q 374 628 368 632 q 397 625 379 625 l 418 624 l 492 624 q 614 626 564 624 q 700 736 694 632 q 685 798 703 771 q 636 828 668 825 q 399 835 550 835 q 369 796 369 835 q 368 754 369 772 q 367 647 365 674 z "},"Q":{"ha":1128,"x_min":85,"x_max":1058,"o":"m 1007 278 q 998 257 1001 267 q 994 240 994 247 q 994 226 994 232 q 997 215 994 221 q 1001 207 1000 210 q 1006 201 1003 204 q 1010 196 1010 197 q 1025 178 1017 189 q 1010 64 1063 125 q 948 40 989 40 q 871 68 907 39 q 810 71 849 90 q 517 25 672 11 q 268 110 361 39 q 108 341 165 188 q 85 660 50 494 q 241 912 115 801 q 536 1025 367 1022 q 853 925 713 1028 q 1039 663 993 822 q 1058 466 1067 569 q 1007 278 1050 363 m 561 254 q 603 261 578 251 q 625 329 639 275 q 642 414 615 372 q 693 447 658 439 q 764 438 728 456 q 803 432 785 426 q 828 457 821 438 q 828 583 847 506 q 756 718 810 660 q 573 792 688 789 q 388 735 458 796 q 311 442 268 635 q 399 312 328 365 q 561 254 469 258 z "},"R":{"ha":994,"x_min":110,"x_max":931,"o":"m 804 456 q 776 419 782 438 q 772 392 769 400 q 782 369 775 383 q 882 151 871 186 q 878 65 897 103 q 822 8 858 26 q 746 5 793 -10 q 678 67 699 19 q 557 332 643 149 l 553 344 q 545 359 547 356 q 535 372 543 363 q 520 385 528 382 q 499 392 513 389 q 469 393 486 394 l 396 393 q 353 373 369 393 q 339 321 338 353 q 336 90 339 113 q 299 19 331 46 q 226 -8 267 -8 q 154 17 186 -8 q 115 85 122 42 q 111 231 113 106 q 110 492 110 357 q 113 763 111 626 q 114 913 114 900 q 224 1039 114 1026 q 672 1029 317 1049 q 856 935 778 1024 q 931 728 933 846 q 894 576 928 651 q 804 456 861 501 m 349 633 q 355 610 349 618 q 368 601 361 603 q 390 600 375 600 q 608 603 568 600 q 685 637 656 606 q 718 722 714 668 q 695 797 721 760 q 632 838 669 835 q 390 844 565 844 q 351 797 351 844 q 350 751 351 790 q 348 685 349 713 q 349 633 347 657 z "},"S":{"ha":822,"x_min":71,"x_max":764,"o":"m 764 881 q 754 808 775 842 q 701 768 735 776 q 660 763 671 763 q 574 792 622 763 q 439 828 517 828 q 415 825 429 828 q 363 791 383 818 q 347 731 343 764 q 482 600 354 667 q 608 510 546 567 q 700 394 671 453 q 718 207 743 306 q 613 51 693 108 q 371 -10 524 -10 q 299 -7 349 -10 q 192 22 254 -3 q 110 68 129 46 q 71 146 76 104 q 89 221 65 188 q 186 274 129 274 q 251 258 221 274 q 394 229 322 229 q 449 239 429 229 q 485 293 481 257 q 464 356 490 326 q 363 425 444 376 q 182 558 231 504 q 125 666 142 606 q 113 779 108 726 q 135 882 117 832 q 253 1023 169 978 q 432 1068 338 1068 q 526 1057 479 1068 q 691 979 631 1029 q 764 881 751 929 z "},"T":{"ha":981,"x_min":31,"x_max":953,"o":"m 857 1061 q 928 1024 903 1057 q 953 956 953 992 q 924 888 953 919 q 847 858 894 857 q 819 858 840 858 q 771 858 797 858 q 708 858 744 858 q 635 833 656 860 q 614 769 614 806 q 613 532 614 694 q 613 252 613 369 q 611 113 613 135 q 588 19 608 50 q 507 -14 567 -11 q 425 24 453 -18 q 394 128 397 67 q 392 398 392 179 q 393 765 392 617 q 390 806 393 790 q 368 837 386 821 q 315 853 350 853 q 214 853 268 853 l 158 851 q 69 874 100 854 q 31 949 39 893 q 65 1033 24 1003 q 164 1067 107 1064 q 515 1068 217 1069 q 857 1061 813 1067 z "},"U":{"ha":1086,"x_min":110,"x_max":976,"o":"m 867 1029 q 947 990 918 1029 q 976 881 976 950 q 965 335 976 472 q 847 108 954 207 q 569 7 739 8 l 564 7 q 251 108 367 7 q 124 390 135 208 q 110 879 110 585 q 143 989 110 949 q 235 1029 176 1029 l 240 1029 q 356 876 356 1025 q 353 796 356 865 q 369 394 342 467 q 435 286 396 324 q 554 249 474 249 l 560 249 q 688 287 644 250 q 742 404 731 324 q 744 800 751 475 q 743 894 743 842 q 778 992 743 954 q 867 1029 813 1029 z "},"V":{"ha":1064,"x_min":50,"x_max":1028,"o":"m 972 1000 q 1027 923 1017 972 q 1019 839 1038 874 q 840 473 1008 806 q 639 88 672 140 q 515 21 597 21 q 385 94 432 21 q 204 472 326 189 q 50 840 82 754 q 99 1010 7 958 q 144 1022 119 1022 q 272 926 218 1022 q 372 706 288 900 q 490 439 456 511 q 526 414 503 415 q 565 440 550 413 q 804 938 738 803 q 853 992 821 968 q 919 1015 885 1015 q 972 1000 946 1015 z "},"W":{"ha":1194,"x_min":38,"x_max":1151,"o":"m 38 867 q 113 1013 22 982 q 207 994 167 1031 q 265 904 247 958 q 379 521 275 875 q 403 492 388 492 q 425 521 418 492 q 497 740 483 717 q 594 800 529 799 q 696 735 660 801 q 776 500 729 669 q 791 477 781 483 q 812 477 801 471 q 826 500 822 483 q 950 924 914 817 q 1015 997 968 981 q 1103 992 1063 1014 q 1149 938 1135 978 q 1151 861 1164 897 q 1096 666 1151 860 q 983 289 1040 472 q 904 67 926 106 q 794 10 863 6 q 700 60 726 14 q 622 263 671 111 q 606 293 615 285 q 589 293 597 301 q 574 263 581 285 q 494 56 519 85 q 394 17 454 8 q 301 88 333 25 q 156 485 268 151 q 38 867 44 819 z "},"X":{"ha":969,"x_min":32,"x_max":933,"o":"m 688 589 q 674 465 631 521 q 874 211 853 239 q 909 150 899 175 q 912 95 919 125 q 871 36 904 65 q 806 10 842 7 q 740 31 769 13 q 682 79 710 49 q 531 267 678 83 q 419 275 474 336 q 244 74 258 88 q 190 28 214 42 q 135 16 167 14 q 69 46 104 18 q 32 108 38 71 q 40 178 26 144 q 81 243 54 211 q 271 469 204 393 q 274 590 321 526 q 81 843 107 801 q 65 937 54 896 q 107 1003 75 978 q 184 1026 132 1029 q 269 979 236 1022 q 429 774 278 967 q 472 751 444 754 q 532 776 500 747 q 732 1001 696 968 q 823 1033 779 1036 q 897 1003 867 1031 q 933 928 929 975 q 900 835 938 882 q 688 589 879 814 z "},"Y":{"ha":1017,"x_min":61,"x_max":979,"o":"m 61 856 q 75 1014 1 961 q 166 1033 118 1043 q 250 982 214 1024 q 347 874 265 965 q 467 742 429 783 q 524 716 492 714 q 583 750 557 718 q 806 1007 775 985 q 878 1035 839 1033 q 951 1007 917 1038 q 978 923 982 971 q 949 835 975 875 q 696 507 899 757 q 636 361 636 436 q 635 108 636 151 q 599 28 633 61 q 519 -6 565 -6 q 433 33 465 -4 q 397 129 400 69 q 396 369 393 204 q 340 517 396 450 q 61 856 78 826 z "},"Z":{"ha":892,"x_min":50,"x_max":847,"o":"m 194 788 q 94 816 136 788 q 50 893 51 844 q 85 982 47 947 q 194 1018 122 1017 q 632 1017 347 1022 q 768 926 739 1013 q 773 894 774 911 q 770 863 772 876 q 758 825 768 849 q 743 790 749 801 q 722 747 738 778 q 419 307 713 726 q 399 265 401 283 q 408 235 396 246 q 443 224 419 224 q 736 221 646 221 q 815 193 786 222 q 847 119 844 164 q 825 45 850 75 q 744 10 800 15 q 460 6 692 6 q 188 7 228 6 q 92 44 131 10 q 54 138 54 79 q 74 213 54 174 q 133 303 94 251 q 181 369 171 354 q 425 715 218 432 q 445 771 450 750 q 407 790 440 792 q 194 788 254 788 z "},"[":{"ha":536,"x_min":103,"x_max":501,"o":"m 106 1003 q 133 1093 101 1061 q 211 1125 165 1125 q 332 1124 242 1125 q 439 1124 422 1124 q 493 1099 481 1122 q 501 1036 506 1076 q 414 961 496 961 l 374 961 q 311 931 339 960 q 282 858 283 901 q 276 401 274 472 q 278 201 279 267 q 306 135 278 163 q 371 107 335 108 q 440 103 424 104 q 486 78 471 100 q 501 25 501 56 q 496 -35 518 -11 q 424 -61 474 -58 q 211 -62 293 -69 q 142 -45 175 -74 q 104 36 110 -17 q 103 522 100 69 q 106 1003 107 975 z "},"¥":{"ha":694,"x_min":0,"x_max":0,"o":""},"]":{"ha":547,"x_min":47,"x_max":447,"o":"m 444 1003 q 447 517 443 982 q 444 36 451 51 q 408 -46 439 -18 q 339 -62 378 -74 q 126 -61 203 -74 q 78 -47 96 -60 q 56 -19 61 -35 q 49 25 51 -4 q 64 78 49 56 q 110 103 79 100 q 179 107 126 104 q 243 135 215 108 q 271 201 271 163 q 274 401 271 338 q 267 858 278 513 q 238 931 265 901 q 175 961 210 960 l 135 961 q 47 1036 53 961 q 66 1095 46 1069 q 111 1124 86 1121 q 217 1124 126 1124 q 338 1125 307 1125 q 417 1093 385 1125 q 444 1003 449 1061 z "},"^":{"ha":867,"x_min":35,"x_max":844,"o":"m 403 750 q 196 410 213 431 q 135 367 172 381 q 75 365 99 354 q 35 408 47 378 q 38 486 22 439 q 242 818 56 529 q 303 922 268 858 q 362 1022 339 985 q 400 1068 385 1058 q 472 1076 425 1085 q 542 1036 519 1068 q 665 809 564 1004 q 783 572 765 614 q 804 530 789 560 q 828 481 819 500 q 843 438 838 461 q 844 403 849 415 q 797 360 833 374 q 726 360 760 346 q 699 379 714 364 q 668 422 685 394 q 640 470 651 449 q 608 529 628 492 q 579 583 589 567 q 496 747 536 663 q 451 786 476 785 q 403 750 425 788 z "},"_":{"ha":761,"x_min":24,"x_max":738,"o":"m 608 -39 q 701 -56 667 -39 q 738 -122 735 -72 q 721 -175 740 -154 q 600 -212 692 -207 q 379 -214 569 -214 q 125 -211 192 -214 q 24 -135 24 -207 q 52 -67 24 -93 q 129 -37 81 -40 q 368 -36 142 -36 q 452 -37 429 -36 q 526 -37 475 -37 q 581 -39 554 -37 l 608 -39 z "},"`":{"ha":614,"x_min":136,"x_max":385,"o":"m 276 1043 q 385 931 349 988 q 384 851 413 886 q 322 829 356 815 q 168 910 201 879 q 137 974 139 935 q 164 1042 135 1013 q 276 1043 214 1089 z "},"a":{"ha":889,"x_min":75,"x_max":794,"o":"m 536 38 q 354 6 454 -3 q 161 85 242 15 q 75 279 81 156 q 274 638 64 536 q 535 653 401 692 q 725 525 668 615 q 777 397 761 469 q 794 278 793 325 q 789 166 794 232 q 783 96 783 100 q 751 15 782 43 q 669 -12 719 -12 q 608 18 636 -12 q 536 38 576 54 m 556 286 q 568 352 568 318 q 540 419 568 386 q 461 467 513 453 q 343 449 386 486 q 285 349 300 413 q 309 246 272 293 q 414 199 346 199 q 498 223 460 199 q 556 286 536 247 z "},"b":{"ha":872,"x_min":101,"x_max":803,"o":"m 103 907 q 142 1000 101 968 q 232 1026 182 1032 q 308 982 276 1021 q 340 900 340 943 q 343 743 340 846 q 362 701 343 717 q 411 685 381 686 q 715 571 626 678 q 803 344 797 471 q 742 131 808 218 q 570 23 685 50 q 338 0 456 -4 q 193 14 225 3 q 110 140 118 39 q 102 543 101 182 q 103 907 103 904 m 324 254 q 392 205 325 213 q 504 225 460 197 q 564 302 550 250 q 553 399 578 354 q 522 439 540 424 q 478 460 503 454 q 437 467 453 465 q 394 468 421 468 q 338 451 356 468 q 319 393 319 433 q 324 254 319 307 z "},"c":{"ha":769,"x_min":71,"x_max":714,"o":"m 593 10 q 321 17 479 -24 q 149 128 219 40 q 71 336 79 215 q 131 570 64 467 q 328 708 197 674 q 463 725 397 729 q 572 707 528 721 q 646 674 615 693 q 699 531 729 619 q 647 465 683 483 q 567 463 611 447 q 470 483 517 481 q 381 463 424 486 q 328 385 339 439 q 349 289 317 328 q 463 240 381 250 q 555 244 493 238 q 638 244 617 250 q 690 213 665 239 q 714 133 714 186 q 593 10 714 44 z "},"d":{"ha":875,"x_min":72,"x_max":772,"o":"m 768 144 q 729 48 763 81 q 667 10 696 15 q 565 3 638 4 q 542 1 550 1 q 309 22 425 -4 q 136 128 193 49 q 72 341 68 215 q 158 568 76 467 q 465 685 247 678 q 510 703 493 686 q 528 749 528 721 l 528 901 q 560 983 528 943 q 636 1029 592 1024 q 727 1003 686 1035 q 767 911 768 971 q 772 547 767 893 q 768 144 776 200 m 556 394 q 538 451 556 433 q 481 468 519 468 q 438 467 454 468 q 397 459 421 465 q 353 438 372 453 q 321 397 335 422 q 312 301 297 353 q 372 224 326 249 q 484 206 417 197 q 553 256 551 214 q 556 394 556 308 z "},"e":{"ha":742,"x_min":74,"x_max":664,"o":"m 74 385 q 100 523 74 454 q 185 644 126 592 q 319 706 243 697 q 639 563 547 731 q 663 413 681 485 q 579 299 646 342 q 372 264 524 264 q 346 254 353 264 q 351 233 339 244 q 524 215 406 189 q 616 180 576 228 q 625 78 656 132 q 531 10 601 35 q 342 7 460 -14 q 74 385 74 54 m 472 479 q 426 528 463 514 q 350 528 390 543 q 305 480 313 513 q 319 432 297 447 q 380 419 343 419 q 448 437 417 419 q 472 479 479 454 z "},"f":{"ha":825,"x_min":42,"x_max":768,"o":"m 703 982 q 768 808 815 906 q 710 754 749 769 q 647 753 672 739 q 591 767 626 768 q 538 740 556 767 q 529 708 525 729 q 563 685 533 686 q 590 684 571 685 q 614 682 608 683 q 689 635 661 678 q 719 546 717 593 q 685 465 722 497 q 590 432 647 433 q 565 431 582 431 q 519 417 536 431 q 497 389 501 403 q 493 360 493 375 q 488 108 488 146 q 456 34 488 67 q 386 -1 424 1 q 315 24 347 -4 q 276 99 282 51 q 274 347 271 144 q 260 401 274 376 q 207 428 246 426 q 42 517 58 428 q 59 631 28 583 q 164 685 90 679 q 215 688 201 689 q 261 710 243 686 q 283 757 279 733 q 397 951 300 869 q 545 1009 451 997 q 703 982 639 1021 z "},"g":{"ha":817,"x_min":75,"x_max":733,"o":"m 460 150 q 164 214 253 136 q 76 385 97 271 q 90 576 54 500 q 246 735 139 686 q 474 751 353 783 q 724 417 683 697 q 733 239 733 329 q 709 56 733 149 q 640 -96 685 -37 q 513 -193 590 -160 q 342 -221 436 -226 q 192 -177 254 -215 q 117 -87 131 -139 q 135 1 106 -43 q 214 39 164 44 q 291 22 238 36 q 375 14 344 8 q 506 93 486 33 q 497 138 514 122 q 460 150 479 153 m 499 410 q 463 532 521 468 q 383 560 438 560 q 296 521 328 561 q 290 426 268 478 q 354 367 311 374 q 499 410 475 349 z "},"h":{"ha":881,"x_min":106,"x_max":779,"o":"m 107 893 q 132 1004 114 979 q 207 1036 154 1036 q 301 992 271 1036 q 331 893 331 949 q 338 708 333 794 q 407 650 340 646 q 615 613 507 661 q 779 324 761 546 q 778 86 792 164 q 749 26 772 53 q 678 0 725 0 q 599 29 626 0 q 567 96 571 58 q 565 204 565 117 q 561 313 564 292 q 523 394 558 365 q 447 423 488 424 q 372 392 406 422 q 335 308 338 361 q 334 251 333 282 q 334 181 335 219 q 331 126 333 143 q 295 32 321 60 q 219 0 269 4 q 143 25 167 -4 q 114 121 119 54 q 106 517 108 171 q 107 893 104 864 z "},"i":{"ha":464,"x_min":104,"x_max":371,"o":"m 246 663 q 139 703 181 658 q 104 811 97 749 q 180 915 114 886 q 289 921 246 944 q 371 786 371 879 q 339 703 371 739 q 246 663 307 668 m 111 143 q 110 463 97 293 q 242 611 119 611 q 326 567 294 611 q 358 438 358 524 q 359 346 358 407 q 360 249 360 285 q 358 170 360 213 q 351 101 357 128 q 224 -12 326 -21 q 167 3 189 -10 q 133 42 144 17 q 118 88 122 68 q 111 143 114 107 z "},"j":{"ha":747,"x_min":42,"x_max":676,"o":"m 522 658 q 438 701 475 663 q 400 783 400 739 q 439 885 400 836 q 542 929 478 935 q 643 877 607 924 q 676 785 679 831 q 628 696 672 739 q 522 658 585 653 m 414 439 q 447 558 411 511 q 544 604 482 604 q 624 564 603 604 q 649 443 644 524 q 633 67 654 319 q 549 -106 625 -37 q 385 -190 474 -175 q 211 -184 293 -206 q 78 -111 129 -162 q 42 -27 47 -81 q 71 69 38 26 q 141 101 97 100 q 219 79 185 103 q 296 55 253 58 q 364 64 339 51 q 403 101 389 75 q 420 173 417 128 q 423 253 424 218 q 419 350 422 288 q 414 439 415 413 z "},"k":{"ha":758,"x_min":107,"x_max":694,"o":"m 528 428 q 505 384 507 410 q 521 340 503 358 q 668 185 642 215 q 690 106 692 153 q 668 38 688 60 q 630 12 656 22 q 566 4 604 1 q 497 35 528 7 q 371 158 472 57 q 344 167 360 172 q 328 135 328 163 q 327 116 328 126 q 326 104 326 106 q 294 29 324 61 q 214 -8 265 -3 q 137 22 163 -12 q 114 111 111 57 q 113 323 115 142 q 109 691 111 504 q 107 894 107 878 q 199 1022 107 1022 q 291 986 256 1022 q 326 900 326 950 q 327 853 326 893 q 328 752 328 814 q 328 632 328 690 q 339 602 328 611 q 379 611 350 593 q 521 718 489 697 q 612 738 561 746 q 682 692 663 729 q 694 609 703 656 q 649 533 685 563 q 528 428 608 503 z "},"l":{"ha":442,"x_min":104,"x_max":342,"o":"m 335 147 q 332 98 333 113 q 325 60 331 83 q 309 28 319 38 q 279 10 299 19 q 231 0 260 1 q 139 44 168 -4 q 107 164 110 92 q 105 532 103 233 q 114 888 107 831 q 157 975 121 944 q 238 1006 193 1006 q 311 970 279 1006 q 342 875 343 935 q 338 508 340 832 q 335 147 336 183 z "},"m":{"ha":1133,"x_min":104,"x_max":1028,"o":"m 104 582 q 132 674 104 639 q 204 710 160 710 q 282 692 256 710 q 375 671 336 653 q 478 694 424 696 q 583 660 536 690 q 689 653 635 628 q 824 682 764 688 q 957 617 899 675 q 1028 463 1015 558 q 1024 69 1046 331 q 994 11 1021 33 q 928 -11 968 -11 q 838 76 851 -11 q 835 231 832 104 q 833 382 838 357 q 757 444 821 444 q 714 431 729 444 q 689 382 699 418 q 680 221 682 353 q 676 79 678 89 q 644 19 674 42 q 574 -3 615 -3 q 485 74 506 -3 q 474 234 476 100 q 469 381 471 368 q 407 461 463 456 q 326 394 342 467 q 320 224 322 374 q 313 53 318 74 q 280 3 307 22 q 219 -15 253 -15 q 147 8 181 -15 q 110 79 113 32 q 104 582 104 188 z "},"n":{"ha":892,"x_min":103,"x_max":793,"o":"m 106 593 q 139 678 111 649 q 208 711 167 708 q 289 681 251 714 q 374 664 332 647 q 420 670 388 664 q 474 677 453 676 q 542 671 496 678 q 708 579 649 649 q 785 392 767 510 q 793 79 807 242 q 767 15 790 42 q 707 -14 744 -11 q 600 79 610 -19 q 596 221 597 122 q 590 358 594 319 q 553 443 585 419 q 464 467 522 467 q 360 435 399 467 q 322 328 321 404 q 321 78 324 207 q 222 -14 317 -10 q 115 86 133 -21 q 103 335 107 142 q 106 593 100 528 z "},"o":{"ha":822,"x_min":64,"x_max":761,"o":"m 410 -7 q 199 62 296 -7 q 72 264 103 131 q 65 351 61 304 q 78 447 68 399 q 115 539 88 494 q 181 617 143 583 q 276 671 218 651 q 404 690 333 690 q 553 663 488 689 q 658 598 618 638 q 722 506 697 558 q 756 406 747 454 q 761 308 764 357 q 660 85 753 176 q 410 -7 567 -7 m 549 307 q 554 358 553 331 q 535 419 556 386 q 475 472 515 453 q 348 470 407 506 q 276 386 289 435 q 290 282 264 333 q 382 218 315 231 q 492 233 447 204 q 549 307 538 261 z "},"p":{"ha":819,"x_min":107,"x_max":765,"o":"m 107 576 q 113 616 108 599 q 122 647 118 633 q 138 672 126 661 q 153 689 149 682 q 175 701 158 696 q 197 708 192 706 q 225 713 203 711 q 253 716 247 715 q 286 717 258 717 q 319 718 314 718 q 706 586 607 725 q 765 369 771 499 q 678 139 760 239 q 388 25 589 32 q 343 6 360 25 q 328 -42 326 -12 l 328 -107 q 300 -188 328 -150 q 229 -232 272 -226 q 147 -206 181 -237 q 115 -114 114 -175 q 108 205 117 -83 q 107 576 100 493 m 301 325 q 319 268 301 286 q 375 250 336 250 q 434 252 413 250 q 487 271 456 254 q 535 319 518 288 q 546 416 560 364 q 486 493 532 468 q 374 512 442 519 q 304 463 307 504 q 301 325 301 411 z "},"q":{"ha":814,"x_min":60,"x_max":717,"o":"m 708 -114 q 678 -206 711 -175 q 596 -232 644 -237 q 524 -188 553 -226 q 496 -107 496 -150 q 497 -76 496 -97 q 497 -44 497 -56 q 481 5 499 -15 q 435 25 464 25 q 147 139 235 32 q 60 369 65 239 q 119 586 54 499 q 506 718 218 725 q 638 706 611 714 q 717 576 707 681 q 717 199 725 490 q 708 -114 708 -93 m 521 463 q 451 512 518 504 q 339 493 383 519 q 279 416 293 468 q 290 319 265 364 q 322 279 303 294 q 365 258 340 264 q 406 251 390 253 q 449 250 422 250 q 506 268 489 250 q 524 325 524 286 q 521 463 524 411 z "},"r":{"ha":753,"x_min":100,"x_max":701,"o":"m 100 579 q 196 735 92 735 q 280 704 250 735 q 310 622 310 674 q 324 583 310 590 q 363 594 339 576 q 489 663 428 643 q 626 672 563 688 q 701 599 689 656 q 685 508 715 540 q 569 453 654 476 q 344 242 390 403 q 331 153 338 217 q 308 55 324 90 q 257 10 293 19 q 208 1 229 3 q 174 5 188 -1 q 151 17 160 11 q 136 38 142 22 q 128 61 131 53 q 122 91 125 69 q 118 119 119 113 q 107 352 111 158 q 100 579 103 546 z "},"s":{"ha":681,"x_min":61,"x_max":600,"o":"m 119 604 q 180 709 139 671 q 262 759 221 747 q 360 774 303 771 q 515 750 450 776 q 600 679 581 724 q 596 588 619 635 q 514 540 572 542 q 449 551 489 540 q 383 563 410 563 q 338 540 357 563 q 327 513 328 524 q 340 490 326 503 q 368 470 354 478 q 402 451 382 463 q 433 429 422 439 q 465 402 451 414 q 497 371 478 390 q 528 333 515 351 q 552 290 540 315 q 569 242 564 265 q 575 188 575 218 q 567 128 575 158 q 481 -5 540 35 q 311 -42 421 -44 q 72 49 139 -40 q 61 93 58 64 q 74 151 64 122 q 115 196 85 179 q 186 204 146 213 q 231 194 197 201 q 280 183 265 186 q 317 178 294 181 q 350 182 339 176 q 365 199 361 188 q 352 247 376 225 q 280 296 328 269 q 213 340 232 322 q 119 604 78 463 z "},"t":{"ha":714,"x_min":36,"x_max":676,"o":"m 564 707 q 650 659 622 700 q 676 576 678 618 q 636 502 675 531 q 533 474 597 474 q 510 470 524 474 q 478 452 496 467 q 461 414 461 438 l 461 132 q 363 -4 461 -4 q 286 29 308 -4 q 256 136 264 63 q 251 411 249 206 q 201 474 251 472 q 36 572 36 479 q 82 661 36 628 q 199 707 128 694 q 242 728 221 711 q 268 778 264 746 q 297 860 274 835 q 374 886 321 886 q 464 767 456 886 q 485 725 465 740 q 526 708 504 710 q 549 708 536 708 q 564 707 563 707 z "},"u":{"ha":867,"x_min":90,"x_max":771,"o":"m 93 550 q 113 672 88 635 q 199 711 139 708 q 282 673 253 715 q 315 575 311 631 q 316 519 315 564 q 318 433 317 474 q 322 347 319 393 q 334 271 325 301 q 356 233 343 240 q 415 216 379 219 q 485 226 450 213 q 535 269 521 239 q 553 374 549 299 q 556 512 558 450 q 557 615 554 574 q 675 704 564 713 q 747 660 726 701 q 771 519 767 618 q 756 238 778 335 q 550 10 710 42 q 251 29 363 -29 q 111 235 140 88 q 91 384 94 322 q 91 489 88 446 q 93 550 94 532 z "},"v":{"ha":961,"x_min":35,"x_max":908,"o":"m 51 526 q 35 628 26 586 q 92 699 44 671 q 188 701 144 725 q 264 617 231 678 q 424 333 289 568 q 464 301 442 303 q 506 329 486 300 q 703 629 639 535 q 868 688 781 743 q 908 525 951 635 q 843 415 901 506 q 715 219 785 325 q 628 86 644 114 q 469 -3 572 -1 q 300 93 365 -6 q 51 526 76 454 z "},"w":{"ha":1003,"x_min":42,"x_max":954,"o":"m 951 650 q 954 571 969 608 q 950 560 953 568 q 942 537 947 553 q 933 508 938 521 q 758 49 796 103 q 721 7 739 19 q 669 -6 703 -6 q 622 6 638 -6 q 589 43 606 17 q 533 164 572 71 q 514 192 525 183 q 491 194 503 200 q 471 168 479 188 q 408 36 422 50 q 394 21 403 31 q 381 8 385 11 q 367 2 376 6 q 346 -1 358 -1 q 292 14 313 -1 q 251 64 272 29 q 135 328 224 111 q 42 582 47 544 q 103 718 22 694 q 139 724 128 724 q 219 694 185 724 q 268 624 253 664 q 322 469 288 574 q 347 449 329 450 q 371 465 365 449 q 406 549 396 533 q 500 606 442 606 q 594 544 558 606 q 636 450 613 515 q 662 433 643 431 q 688 457 681 436 q 751 638 735 596 q 864 713 781 713 q 903 703 878 713 q 951 650 929 693 z "},"x":{"ha":767,"x_min":33,"x_max":740,"o":"m 693 208 q 707 189 694 207 q 724 164 719 171 q 735 138 728 157 q 740 105 742 118 q 728 73 738 92 q 699 36 718 54 q 626 7 667 7 q 506 75 563 7 q 382 210 458 131 q 236 57 261 82 q 140 6 185 6 q 74 28 104 6 q 33 97 40 56 q 78 215 28 158 q 175 322 103 246 q 194 362 192 340 q 191 397 197 383 q 176 419 185 411 q 72 538 83 517 q 49 628 44 586 q 88 697 53 671 q 161 721 118 721 q 260 669 224 721 q 273 654 263 665 q 301 625 283 643 q 333 589 318 607 q 428 586 382 535 l 518 676 q 601 706 554 707 q 679 676 647 706 q 708 601 708 649 q 676 517 711 553 q 590 426 654 494 q 574 402 581 417 q 571 365 568 388 q 590 325 574 343 q 693 208 675 235 z "},"y":{"ha":847,"x_min":33,"x_max":814,"o":"m 63 506 q 34 615 31 569 q 83 690 38 660 q 182 701 132 721 q 272 621 232 681 q 375 465 283 604 q 418 439 393 439 q 465 465 443 439 q 613 647 578 611 q 656 681 632 668 q 715 692 681 694 q 779 657 750 689 q 813 590 810 625 q 802 524 817 554 q 754 449 788 493 q 326 -104 388 -53 q 272 -147 289 -135 q 221 -158 256 -158 q 149 -128 186 -158 q 179 81 76 -72 q 231 147 203 117 q 238 238 268 192 q 63 506 86 454 z "},"z":{"ha":747,"x_min":44,"x_max":708,"o":"m 160 497 q 44 581 49 504 q 76 664 42 628 q 172 701 110 700 q 557 704 268 704 q 643 648 607 704 q 642 539 679 592 q 411 260 619 503 q 394 221 390 236 q 422 206 397 206 q 622 197 619 197 q 683 165 656 194 q 708 92 711 136 q 672 17 704 44 q 588 -10 639 -10 q 461 -14 531 -14 q 283 -11 392 -14 q 164 -8 174 -8 q 98 20 129 -8 q 57 78 67 49 q 66 151 47 114 q 126 235 85 188 q 328 460 136 246 q 338 489 344 478 q 307 500 332 500 q 160 497 181 496 z "},"{":{"ha":481,"x_min":121,"x_max":435,"o":"m 401 981 q 340 871 340 931 q 346 793 340 851 q 349 631 356 676 q 307 533 340 572 q 304 460 282 501 q 335 365 332 411 q 333 265 336 347 q 346 100 325 133 q 392 42 363 74 q 424 -12 421 10 q 408 -69 428 -50 q 349 -93 389 -93 q 257 -35 304 -93 q 193 88 210 22 q 190 251 181 135 q 193 342 199 317 q 160 403 189 367 q 121 476 125 446 q 179 603 110 553 q 206 657 196 614 q 207 739 215 700 q 240 1044 160 954 q 363 1107 294 1107 q 422 1085 404 1107 q 435 1040 438 1068 q 401 981 432 1006 z "},"|":{"ha":431,"x_min":128,"x_max":314,"o":"m 313 996 q 313 481 315 949 q 308 -25 311 13 q 224 -124 303 -124 q 157 -92 185 -124 q 129 -14 129 -60 l 129 89 q 128 982 124 925 q 204 1100 136 1090 q 279 1076 249 1106 q 313 996 310 1046 z "},"}":{"ha":492,"x_min":65,"x_max":379,"o":"m 99 981 q 65 1040 69 1003 q 78 1085 63 1068 q 139 1107 96 1107 q 261 1044 206 1107 q 293 739 340 954 q 294 657 285 700 q 321 603 304 614 q 379 476 392 551 q 340 403 375 446 q 307 342 311 367 q 310 251 301 317 q 307 88 319 135 q 243 -35 290 22 q 151 -93 196 -93 q 92 -69 111 -93 q 76 -12 72 -50 q 108 42 79 10 q 154 100 138 74 q 167 265 178 138 q 165 365 164 347 q 196 460 168 411 q 193 533 218 501 q 151 631 160 576 q 156 793 144 683 q 158 830 156 801 q 160 871 160 858 q 99 981 160 931 z "},"~":{"ha":558,"x_min":56,"x_max":503,"o":"m 164 944 q 104 928 128 928 q 65 951 81 929 q 56 1008 47 975 q 96 1065 64 1042 q 176 1087 125 1086 q 276 1068 228 1088 q 359 1051 314 1053 q 424 1058 404 1049 q 469 1058 446 1068 q 503 1022 493 1047 q 501 965 514 993 q 449 921 489 938 q 392 909 421 910 q 344 914 363 908 q 294 931 326 919 q 164 944 211 963 z "},"\\":{"ha":722,"x_min":71,"x_max":669,"o":"m 244 988 q 328 827 251 972 q 429 622 404 682 q 544 381 451 568 q 651 158 636 194 q 669 61 675 97 q 638 11 664 25 q 578 2 615 -4 q 515 42 540 8 q 343 356 454 124 q 262 524 328 388 q 139 781 196 661 q 71 921 82 900 q 97 1074 11 1028 q 244 988 185 1121 z "},"¦":{"ha":694,"x_min":0,"x_max":0,"o":""},"¡":{"ha":694,"x_min":0,"x_max":0,"o":""},"¢":{"ha":694,"x_min":0,"x_max":0,"o":""},"£":{"ha":694,"x_min":0,"x_max":0,"o":""},"⁄":{"ha":694,"x_min":0,"x_max":0,"o":""},"¤":{"ha":694,"x_min":0,"x_max":0,"o":""},"«":{"ha":694,"x_min":0,"x_max":0,"o":""},"‹":{"ha":694,"x_min":0,"x_max":0,"o":""},"›":{"ha":694,"x_min":0,"x_max":0,"o":""},"ﬁ":{"ha":694,"x_min":0,"x_max":0,"o":""},"ﬂ":{"ha":694,"x_min":0,"x_max":0,"o":""},"‒":{"ha":694,"x_min":0,"x_max":0,"o":""},"·":{"ha":694,"x_min":0,"x_max":0,"o":""},"•":{"ha":694,"x_min":0,"x_max":0,"o":""},"‚":{"ha":694,"x_min":0,"x_max":0,"o":""},"„":{"ha":694,"x_min":0,"x_max":0,"o":""},"»":{"ha":694,"x_min":0,"x_max":0,"o":""},"¿":{"ha":694,"x_min":0,"x_max":0,"o":""},"́":{"ha":694,"x_min":0,"x_max":0,"o":""},"̂":{"ha":694,"x_min":0,"x_max":0,"o":""},"¯":{"ha":694,"x_min":0,"x_max":0,"o":""},"̆":{"ha":694,"x_min":0,"x_max":0,"o":""},"̇":{"ha":694,"x_min":0,"x_max":0,"o":""},"̈":{"ha":694,"x_min":0,"x_max":0,"o":""},"̊":{"ha":694,"x_min":0,"x_max":0,"o":""},"¸":{"ha":694,"x_min":0,"x_max":0,"o":""},"̋":{"ha":694,"x_min":0,"x_max":0,"o":""},"̨":{"ha":694,"x_min":0,"x_max":0,"o":""},"̌":{"ha":694,"x_min":0,"x_max":0,"o":""},"̶":{"ha":694,"x_min":0,"x_max":0,"o":""},"Æ":{"ha":694,"x_min":0,"x_max":0,"o":""},"ª":{"ha":694,"x_min":0,"x_max":0,"o":""},"Ł":{"ha":694,"x_min":0,"x_max":0,"o":""},"Ø":{"ha":694,"x_min":0,"x_max":0,"o":""},"Œ":{"ha":694,"x_min":0,"x_max":0,"o":""},"º":{"ha":694,"x_min":0,"x_max":0,"o":""},"æ":{"ha":694,"x_min":0,"x_max":0,"o":""},"ı":{"ha":694,"x_min":0,"x_max":0,"o":""},"ł":{"ha":694,"x_min":0,"x_max":0,"o":""},"ø":{"ha":694,"x_min":0,"x_max":0,"o":""},"œ":{"ha":694,"x_min":0,"x_max":0,"o":""},"ß":{"ha":694,"x_min":0,"x_max":0,"o":""},"­":{"ha":694,"x_min":0,"x_max":0,"o":""},"©":{"ha":694,"x_min":0,"x_max":0,"o":""},"¬":{"ha":694,"x_min":0,"x_max":0,"o":""},"®":{"ha":694,"x_min":0,"x_max":0,"o":""},"²":{"ha":694,"x_min":0,"x_max":0,"o":""},"³":{"ha":694,"x_min":0,"x_max":0,"o":""},"µ":{"ha":694,"x_min":0,"x_max":0,"o":""},"¹":{"ha":694,"x_min":0,"x_max":0,"o":""},"¼":{"ha":694,"x_min":0,"x_max":0,"o":""},"½":{"ha":694,"x_min":0,"x_max":0,"o":""},"¾":{"ha":694,"x_min":0,"x_max":0,"o":""},"À":{"ha":694,"x_min":0,"x_max":0,"o":""},"Á":{"ha":694,"x_min":0,"x_max":0,"o":""},"Â":{"ha":694,"x_min":0,"x_max":0,"o":""},"Ã":{"ha":694,"x_min":0,"x_max":0,"o":""},"Ä":{"ha":694,"x_min":0,"x_max":0,"o":""},"Å":{"ha":694,"x_min":0,"x_max":0,"o":""},"Ç":{"ha":694,"x_min":0,"x_max":0,"o":""},"È":{"ha":694,"x_min":0,"x_max":0,"o":""},"É":{"ha":694,"x_min":0,"x_max":0,"o":""},"Ê":{"ha":694,"x_min":0,"x_max":0,"o":""},"Ë":{"ha":694,"x_min":0,"x_max":0,"o":""},"Ì":{"ha":694,"x_min":0,"x_max":0,"o":""},"Í":{"ha":694,"x_min":0,"x_max":0,"o":""},"Î":{"ha":694,"x_min":0,"x_max":0,"o":""},"Ï":{"ha":694,"x_min":0,"x_max":0,"o":""},"Ð":{"ha":694,"x_min":0,"x_max":0,"o":""},"Ñ":{"ha":694,"x_min":0,"x_max":0,"o":""},"Ò":{"ha":694,"x_min":0,"x_max":0,"o":""},"Ó":{"ha":694,"x_min":0,"x_max":0,"o":""},"Ô":{"ha":694,"x_min":0,"x_max":0,"o":""},"Õ":{"ha":694,"x_min":0,"x_max":0,"o":""},"Ö":{"ha":694,"x_min":0,"x_max":0,"o":""},"Ù":{"ha":694,"x_min":0,"x_max":0,"o":""},"Ú":{"ha":694,"x_min":0,"x_max":0,"o":""},"Û":{"ha":694,"x_min":0,"x_max":0,"o":""},"Ü":{"ha":694,"x_min":0,"x_max":0,"o":""},"Ý":{"ha":694,"x_min":0,"x_max":0,"o":""},"Þ":{"ha":694,"x_min":0,"x_max":0,"o":""},"à":{"ha":694,"x_min":0,"x_max":0,"o":""},"á":{"ha":694,"x_min":0,"x_max":0,"o":""},"â":{"ha":694,"x_min":0,"x_max":0,"o":""},"ã":{"ha":694,"x_min":0,"x_max":0,"o":""},"ä":{"ha":694,"x_min":0,"x_max":0,"o":""},"å":{"ha":694,"x_min":0,"x_max":0,"o":""},"ç":{"ha":694,"x_min":0,"x_max":0,"o":""},"è":{"ha":694,"x_min":0,"x_max":0,"o":""},"é":{"ha":694,"x_min":0,"x_max":0,"o":""},"ê":{"ha":694,"x_min":0,"x_max":0,"o":""},"ë":{"ha":694,"x_min":0,"x_max":0,"o":""},"ì":{"ha":694,"x_min":0,"x_max":0,"o":""},"í":{"ha":694,"x_min":0,"x_max":0,"o":""},"î":{"ha":694,"x_min":0,"x_max":0,"o":""},"ï":{"ha":694,"x_min":0,"x_max":0,"o":""},"ð":{"ha":694,"x_min":0,"x_max":0,"o":""},"ñ":{"ha":694,"x_min":0,"x_max":0,"o":""},"ò":{"ha":694,"x_min":0,"x_max":0,"o":""},"ó":{"ha":694,"x_min":0,"x_max":0,"o":""},"ô":{"ha":694,"x_min":0,"x_max":0,"o":""},"õ":{"ha":694,"x_min":0,"x_max":0,"o":""},"ö":{"ha":694,"x_min":0,"x_max":0,"o":""},"ù":{"ha":694,"x_min":0,"x_max":0,"o":""},"ú":{"ha":694,"x_min":0,"x_max":0,"o":""},"û":{"ha":694,"x_min":0,"x_max":0,"o":""},"ü":{"ha":694,"x_min":0,"x_max":0,"o":""},"ý":{"ha":694,"x_min":0,"x_max":0,"o":""},"þ":{"ha":694,"x_min":0,"x_max":0,"o":""},"ÿ":{"ha":694,"x_min":0,"x_max":0,"o":""},"Š":{"ha":694,"x_min":0,"x_max":0,"o":""},"Ÿ":{"ha":694,"x_min":0,"x_max":0,"o":""},"Ž":{"ha":694,"x_min":0,"x_max":0,"o":""},"̅":{"ha":694,"x_min":0,"x_max":0,"o":""},"š":{"ha":694,"x_min":0,"x_max":0,"o":""},"™":{"ha":694,"x_min":0,"x_max":0,"o":""},"ž":{"ha":694,"x_min":0,"x_max":0,"o":""}," ":{"ha":694,"x_min":0,"x_max":0,"o":""},"￨":{"ha":694,"x_min":0,"x_max":0,"o":""},"‾":{"ha":694,"x_min":0,"x_max":0,"o":""},"｡":{"ha":708,"x_min":61,"x_max":408,"o":"m 219 -39 q 61 136 76 -29 q 113 263 56 200 q 247 311 169 325 q 368 246 328 296 q 408 129 408 196 q 359 8 422 61 q 219 -39 296 -46 m 286 143 q 274 179 286 163 q 239 199 261 196 q 194 185 214 203 q 174 144 174 167 q 185 99 175 108 q 225 86 196 90 q 269 103 251 83 q 286 143 286 122 z "},"｢":{"ha":903,"x_min":281,"x_max":844,"o":"m 469 819 q 463 17 463 278 q 435 -49 463 -26 q 374 -72 408 -72 q 288 13 297 -72 q 281 976 281 74 q 320 1063 281 1025 q 419 1101 360 1101 q 575 1101 435 1101 q 764 1094 715 1100 q 824 1061 803 1090 q 844 997 844 1032 q 812 944 844 969 q 726 917 779 918 q 547 913 714 917 q 492 887 514 913 q 469 819 469 861 z "},"｣":{"ha":903,"x_min":61,"x_max":625,"o":"m 436 208 q 443 1013 443 753 q 470 1078 443 1056 q 532 1101 497 1101 q 618 1017 608 1101 q 625 51 625 954 q 585 -35 625 3 q 486 -72 546 -72 q 142 -65 406 -97 q 82 -32 103 -61 q 61 31 61 -3 q 94 85 61 60 q 179 111 126 110 q 271 114 207 113 q 358 115 335 115 q 414 142 392 117 q 436 208 436 167 z "},"､":{"ha":711,"x_min":86,"x_max":390,"o":"m 117 117 q 86 235 51 175 q 149 274 107 271 q 225 251 192 278 q 300 184 250 232 q 364 125 350 136 q 390 6 433 64 q 338 -33 368 -24 q 269 -19 308 -43 q 181 58 242 1 q 117 117 121 114 z "},"･":{"ha":714,"x_min":222,"x_max":513,"o":"m 367 428 q 263 474 299 432 q 222 574 228 517 q 271 681 218 628 q 390 721 324 733 q 513 568 513 697 q 469 469 513 514 q 367 428 426 424 z "},"ｦ":{"ha":694,"x_min":0,"x_max":0,"o":""},"ｧ":{"ha":694,"x_min":0,"x_max":0,"o":""},"ｨ":{"ha":694,"x_min":0,"x_max":0,"o":""},"ｩ":{"ha":694,"x_min":0,"x_max":0,"o":""},"ｪ":{"ha":694,"x_min":0,"x_max":0,"o":""},"ｫ":{"ha":694,"x_min":0,"x_max":0,"o":""},"ｬ":{"ha":694,"x_min":0,"x_max":0,"o":""},"ｭ":{"ha":694,"x_min":0,"x_max":0,"o":""},"ｮ":{"ha":694,"x_min":0,"x_max":0,"o":""},"ｯ":{"ha":694,"x_min":0,"x_max":0,"o":""},"ｰ":{"ha":694,"x_min":0,"x_max":0,"o":""},"ｱ":{"ha":694,"x_min":0,"x_max":0,"o":""},"ｲ":{"ha":694,"x_min":0,"x_max":0,"o":""},"ｳ":{"ha":694,"x_min":0,"x_max":0,"o":""},"ｴ":{"ha":694,"x_min":0,"x_max":0,"o":""},"ｵ":{"ha":694,"x_min":0,"x_max":0,"o":""},"ｶ":{"ha":694,"x_min":0,"x_max":0,"o":""},"ｷ":{"ha":694,"x_min":0,"x_max":0,"o":""},"ｸ":{"ha":694,"x_min":0,"x_max":0,"o":""},"ｹ":{"ha":694,"x_min":0,"x_max":0,"o":""},"ｺ":{"ha":694,"x_min":0,"x_max":0,"o":""},"ｻ":{"ha":694,"x_min":0,"x_max":0,"o":""},"ｼ":{"ha":694,"x_min":0,"x_max":0,"o":""},"ｽ":{"ha":694,"x_min":0,"x_max":0,"o":""},"ｾ":{"ha":694,"x_min":0,"x_max":0,"o":""},"ｿ":{"ha":694,"x_min":0,"x_max":0,"o":""},"ﾀ":{"ha":694,"x_min":0,"x_max":0,"o":""},"ﾁ":{"ha":694,"x_min":0,"x_max":0,"o":""},"ﾂ":{"ha":694,"x_min":0,"x_max":0,"o":""},"ﾃ":{"ha":694,"x_min":0,"x_max":0,"o":""},"ﾄ":{"ha":694,"x_min":0,"x_max":0,"o":""},"ﾅ":{"ha":694,"x_min":0,"x_max":0,"o":""},"ﾆ":{"ha":694,"x_min":0,"x_max":0,"o":""},"ﾇ":{"ha":694,"x_min":0,"x_max":0,"o":""},"ﾈ":{"ha":694,"x_min":0,"x_max":0,"o":""},"ﾉ":{"ha":694,"x_min":0,"x_max":0,"o":""},"ﾊ":{"ha":694,"x_min":0,"x_max":0,"o":""},"ﾋ":{"ha":694,"x_min":0,"x_max":0,"o":""},"ﾌ":{"ha":694,"x_min":0,"x_max":0,"o":""},"ﾍ":{"ha":694,"x_min":0,"x_max":0,"o":""},"ﾎ":{"ha":694,"x_min":0,"x_max":0,"o":""},"ﾏ":{"ha":694,"x_min":0,"x_max":0,"o":""},"ﾐ":{"ha":694,"x_min":0,"x_max":0,"o":""},"ﾑ":{"ha":694,"x_min":0,"x_max":0,"o":""},"ﾒ":{"ha":694,"x_min":0,"x_max":0,"o":""},"ﾓ":{"ha":694,"x_min":0,"x_max":0,"o":""},"ﾔ":{"ha":694,"x_min":0,"x_max":0,"o":""},"ﾕ":{"ha":694,"x_min":0,"x_max":0,"o":""},"ﾖ":{"ha":694,"x_min":0,"x_max":0,"o":""},"ﾗ":{"ha":694,"x_min":0,"x_max":0,"o":""},"ﾘ":{"ha":694,"x_min":0,"x_max":0,"o":""},"ﾙ":{"ha":694,"x_min":0,"x_max":0,"o":""},"ﾚ":{"ha":694,"x_min":0,"x_max":0,"o":""},"ﾛ":{"ha":694,"x_min":0,"x_max":0,"o":""},"ﾜ":{"ha":694,"x_min":0,"x_max":0,"o":""},"ﾝ":{"ha":694,"x_min":0,"x_max":0,"o":""},"ﾞ":{"ha":694,"x_min":0,"x_max":0,"o":""},"ﾟ":{"ha":694,"x_min":0,"x_max":0,"o":""}," ":{"ha":1389,"x_min":0,"x_max":0,"o":""},"、":{"ha":1389,"x_min":136,"x_max":440,"o":"m 167 117 q 136 235 101 175 q 199 274 157 271 q 275 251 242 278 q 350 184 300 232 q 414 125 400 136 q 440 6 483 64 q 388 -33 418 -24 q 319 -19 358 -43 q 231 58 292 1 q 167 117 171 114 z "},"。":{"ha":1389,"x_min":100,"x_max":447,"o":"m 258 -39 q 100 136 115 -29 q 151 263 94 200 q 286 311 208 325 q 407 246 367 296 q 447 129 447 196 q 398 8 461 61 q 258 -39 335 -46 m 325 143 q 313 179 325 163 q 278 199 300 196 q 233 185 253 203 q 213 144 213 167 q 224 99 214 108 q 264 86 235 90 q 308 103 290 83 q 325 143 325 122 z "},"，":{"ha":1389,"x_min":161,"x_max":382,"o":"m 242 -8 q 161 56 175 8 q 177 153 147 106 q 261 201 207 200 q 343 169 307 203 q 382 90 379 135 q 372 1 385 49 q 338 -75 360 -47 q 260 -117 290 -135 q 247 -65 225 -100 q 258 -51 251 -58 q 265 -42 264 -44 q 242 -8 276 -17 z "},"．":{"ha":1389,"x_min":143,"x_max":375,"o":"m 264 -36 q 178 0 211 -31 q 143 72 146 31 q 174 158 139 117 q 268 196 208 200 q 351 156 326 193 q 375 71 375 118 q 340 -3 375 32 q 264 -36 306 -39 z "},"・":{"ha":1389,"x_min":550,"x_max":840,"o":"m 694 428 q 591 474 626 432 q 550 574 556 517 q 599 681 546 628 q 718 721 651 733 q 840 568 840 697 q 797 469 840 514 q 694 428 754 424 z "},"：":{"ha":1389,"x_min":574,"x_max":815,"o":"m 694 681 q 608 719 639 685 q 574 797 578 754 q 615 880 569 838 q 713 913 660 922 q 790 869 765 903 q 815 792 815 836 q 783 710 821 743 q 694 681 744 678 m 689 169 q 610 209 640 175 q 579 286 579 243 q 633 363 594 325 q 717 393 672 400 q 786 353 763 386 q 810 282 810 321 q 775 202 810 240 q 689 169 740 164 z "},"；":{"ha":1389,"x_min":579,"x_max":811,"o":"m 700 676 q 615 713 647 682 q 579 785 582 743 q 610 872 575 831 q 704 908 644 913 q 787 867 763 906 q 811 783 811 829 q 776 709 811 744 q 700 676 742 674 m 660 182 q 579 246 593 199 q 596 344 567 297 q 679 392 625 390 q 762 359 726 393 q 800 281 797 325 q 790 190 803 238 q 756 115 778 143 q 713 76 735 88 q 678 72 692 65 q 667 125 644 92 q 676 138 669 131 q 683 149 682 144 q 660 182 694 174 z "},"？":{"ha":1389,"x_min":365,"x_max":1017,"o":"m 713 233 q 807 174 779 219 q 819 72 832 132 q 776 -3 810 26 q 697 -32 742 -32 q 603 8 640 -32 q 567 99 567 49 q 597 192 567 149 q 683 236 628 236 q 713 233 693 236 m 958 949 q 1017 810 1006 883 q 1012 679 1028 738 q 961 572 996 621 q 882 472 931 529 q 821 385 825 403 q 782 310 810 346 q 706 275 754 275 q 636 303 661 275 q 610 382 607 332 q 746 614 619 510 q 801 703 788 650 q 783 806 814 757 q 689 843 757 843 q 654 839 671 843 q 576 749 606 818 q 453 660 533 650 q 385 697 410 664 q 365 788 357 735 q 536 1022 394 956 q 707 1058 613 1058 q 958 949 878 1058 z "},"！":{"ha":1389,"x_min":576,"x_max":842,"o":"m 806 1008 q 842 876 846 961 q 792 346 794 364 q 708 269 779 274 l 704 269 q 622 347 640 269 q 597 599 615 374 q 576 885 579 824 q 611 1001 572 958 q 718 1047 650 1047 q 806 1008 771 1047 m 724 233 q 818 174 790 219 q 829 72 842 131 q 786 -3 819 26 q 708 -32 753 -32 q 614 8 651 -32 q 576 99 576 49 q 608 192 576 149 q 694 236 639 236 q 724 233 704 236 z "},"゛":{"ha":1389,"x_min":118,"x_max":431,"o":"m 135 888 q 119 951 117 917 q 149 1000 121 986 q 201 999 176 1015 q 261 935 225 983 q 312 835 308 871 q 279 782 315 799 q 206 797 247 765 q 135 888 165 828 m 297 961 q 280 1025 278 989 q 311 1075 282 1061 q 431 1000 368 1104 q 429 865 493 897 q 362 872 392 846 q 297 961 332 899 z "},"゜":{"ha":1389,"x_min":113,"x_max":461,"o":"m 272 719 q 113 896 128 731 q 164 1022 107 960 q 300 1071 221 1085 q 421 1006 381 1056 q 461 889 461 956 q 412 767 475 821 q 272 719 349 714 m 338 903 q 326 939 338 922 q 292 958 314 956 q 247 944 267 961 q 226 904 226 926 q 240 859 229 868 q 278 846 250 850 q 321 863 304 843 q 338 903 338 882 z "},"´":{"ha":1389,"x_min":589,"x_max":839,"o":"m 697 1043 q 753 1067 729 1067 q 811 1042 778 1068 q 838 974 840 1013 q 807 910 836 935 q 651 829 772 879 q 590 851 618 815 q 589 931 561 886 q 697 1043 625 988 z "},"｀":{"ha":1389,"x_min":575,"x_max":824,"o":"m 715 1043 q 824 931 788 988 q 823 851 851 886 q 761 829 794 815 q 607 910 640 879 q 576 974 578 935 q 603 1042 574 1013 q 715 1043 653 1089 z "},"¨":{"ha":1389,"x_min":475,"x_max":914,"o":"m 568 860 q 501 890 524 863 q 475 954 479 917 q 506 1023 472 989 q 583 1049 540 1057 q 661 950 661 1035 q 633 886 661 915 q 568 860 606 857 m 821 860 q 754 890 776 863 q 728 954 732 917 q 759 1023 725 989 q 835 1049 793 1057 q 890 1018 872 1033 q 910 990 907 1003 q 914 950 914 976 q 886 886 914 915 q 821 860 858 857 z "},"＾":{"ha":1389,"x_min":475,"x_max":918,"o":"m 918 904 q 899 810 953 843 q 863 799 883 799 q 796 836 828 799 l 754 878 q 701 903 729 903 q 656 888 672 903 q 617 854 640 874 q 592 832 594 835 q 525 803 560 803 q 490 814 506 803 q 475 908 442 851 q 556 989 482 919 q 607 1038 600 1031 q 701 1082 647 1082 q 800 1035 757 1082 l 829 1006 q 918 904 907 924 z "},"￣":{"ha":1389,"x_min":131,"x_max":1254,"o":"m 263 963 q 131 1038 131 953 q 243 1124 132 1124 q 537 1123 275 1122 q 863 1125 799 1124 q 1185 1118 1092 1132 q 1254 1032 1254 1104 q 1228 985 1254 1006 q 1149 960 1203 964 q 899 960 1113 957 q 632 960 686 964 q 430 959 581 954 q 263 963 279 964 z "},"＿":{"ha":1389,"x_min":135,"x_max":1258,"o":"m 1126 -46 q 1258 -121 1258 -36 q 1146 -207 1257 -207 q 852 -206 1114 -206 q 526 -208 590 -207 q 204 -201 297 -215 q 155 -175 175 -206 q 135 -115 135 -144 q 160 -68 135 -89 q 240 -43 186 -47 q 490 -44 276 -40 q 757 -43 703 -47 q 959 -42 808 -37 q 1126 -46 1110 -47 z "},"ヽ":{"ha":1389,"x_min":0,"x_max":0,"o":""},"ヾ":{"ha":1389,"x_min":0,"x_max":0,"o":""},"ゝ":{"ha":1389,"x_min":0,"x_max":0,"o":""},"ゞ":{"ha":1389,"x_min":0,"x_max":0,"o":""},"〃":{"ha":1389,"x_min":269,"x_max":1049,"o":"m 738 813 q 709 618 739 726 q 628 417 679 510 q 510 260 574 318 q 394 189 447 203 q 365 185 383 186 q 319 191 346 183 q 279 218 293 199 q 269 279 260 244 q 307 343 279 314 q 353 383 319 356 q 396 421 381 407 q 436 466 411 435 q 479 535 461 497 q 534 688 514 606 q 558 826 554 771 q 592 910 563 881 q 658 936 622 939 q 713 902 690 932 q 738 813 736 872 m 957 900 q 979 895 968 899 q 1006 880 990 892 q 1034 840 1022 868 q 1049 772 1046 813 q 1030 559 1056 678 q 956 336 1004 440 q 731 81 854 124 q 676 78 726 74 q 606 107 626 82 q 614 231 558 164 q 661 279 621 239 q 789 453 750 363 q 857 775 853 600 q 888 867 858 835 q 957 900 918 900 z "},"仝":{"ha":1389,"x_min":0,"x_max":0,"o":""},"々":{"ha":1389,"x_min":0,"x_max":0,"o":""},"〆":{"ha":1389,"x_min":0,"x_max":0,"o":""},"〇":{"ha":1389,"x_min":165,"x_max":1247,"o":"m 661 -60 q 469 -15 554 -53 q 332 74 385 22 q 243 198 279 126 q 190 338 207 269 q 165 485 172 407 q 198 676 157 575 q 315 859 239 776 q 506 992 390 942 q 749 1031 622 1042 q 965 967 868 1021 q 1123 834 1063 914 q 1215 659 1183 754 q 1247 464 1247 564 q 1198 268 1247 367 q 1069 94 1149 169 q 881 -24 990 19 q 661 -60 772 -68 m 1013 486 q 945 690 1013 596 q 750 801 878 783 q 499 720 615 819 q 383 500 383 621 q 460 283 383 376 q 672 172 538 189 q 851 213 769 160 q 972 341 932 265 q 1013 486 1013 417 z "},"ー":{"ha":1389,"x_min":206,"x_max":1190,"o":"m 1019 640 q 1142 618 1097 640 q 1190 529 1186 596 q 1168 460 1192 489 q 1007 410 1126 415 q 706 407 967 407 q 340 411 474 407 q 206 513 206 418 q 244 603 206 568 q 346 643 282 639 q 535 644 364 644 q 900 642 619 644 q 978 641 938 642 q 1019 640 1018 640 z "},"―":{"ha":1389,"x_min":206,"x_max":1190,"o":"m 1019 640 q 1142 618 1097 640 q 1190 529 1186 596 q 1168 460 1192 489 q 1007 410 1126 415 q 706 407 967 407 q 340 411 474 407 q 206 513 206 418 q 244 603 206 568 q 346 643 282 639 q 535 644 364 644 q 900 642 619 644 q 978 641 938 642 q 1019 640 1018 640 z "},"‐":{"ha":1389,"x_min":415,"x_max":964,"o":"m 546 474 q 457 489 488 474 q 415 546 426 504 q 448 622 414 588 q 535 657 482 656 q 635 654 576 654 q 757 656 694 654 q 836 657 819 657 q 923 635 885 657 q 964 581 961 613 q 945 509 968 542 q 869 475 922 476 q 777 467 842 468 q 635 470 713 467 q 546 474 557 474 z "},"／":{"ha":1389,"x_min":108,"x_max":1281,"o":"m 1260 958 q 765 484 1243 939 q 213 -42 288 29 q 126 -50 163 -86 q 108 -3 107 -31 q 131 46 110 24 l 178 96 q 689 587 233 156 q 1165 1036 1144 1018 q 1256 1058 1218 1086 q 1281 1013 1279 1040 q 1260 958 1282 985 z "},"＼":{"ha":1389,"x_min":108,"x_max":1281,"o":"m 129 958 q 108 1013 107 985 q 133 1058 110 1040 q 224 1036 171 1086 q 700 587 244 1018 q 1211 96 1156 156 q 1231 74 1219 86 q 1249 55 1243 61 q 1258 46 1256 49 q 1281 -3 1279 24 q 1263 -50 1282 -31 q 1176 -42 1226 -86 q 624 484 1101 29 q 129 958 146 939 z "},"∼":{"ha":1389,"x_min":150,"x_max":1238,"o":"m 1238 557 q 1215 478 1244 518 q 1122 415 1186 438 q 969 390 1049 390 q 779 425 881 390 q 694 457 761 431 q 496 514 558 513 q 347 492 386 518 q 240 453 288 450 q 167 500 192 456 q 151 551 151 526 q 157 593 150 576 q 184 628 164 610 q 217 656 204 647 q 253 679 229 664 q 472 732 339 732 q 588 717 533 732 q 729 663 629 704 q 943 597 888 593 q 1068 618 1007 601 q 1124 629 1104 626 q 1198 613 1164 635 q 1238 557 1232 592 z "},"‖":{"ha":1389,"x_min":468,"x_max":922,"o":"m 653 1008 q 653 493 656 957 q 649 -12 651 29 q 564 -111 642 -111 q 497 -79 525 -111 q 469 -1 469 -47 q 468 100 469 49 l 468 994 q 544 1111 476 1103 q 619 1088 589 1117 q 653 1008 650 1058 m 921 1008 q 922 493 924 961 q 917 -12 919 25 q 832 -111 910 -111 q 765 -80 792 -111 q 738 -1 738 -49 q 736 100 738 49 l 736 994 q 813 1111 744 1103 q 888 1088 857 1117 q 921 1008 918 1058 z "},"｜":{"ha":1389,"x_min":606,"x_max":792,"o":"m 790 996 q 791 481 793 949 q 786 -25 789 13 q 701 -124 781 -124 q 635 -92 663 -124 q 607 -14 607 -60 l 607 89 q 606 982 601 925 q 682 1100 614 1090 q 757 1076 726 1106 q 790 996 788 1046 z "},"…":{"ha":1389,"x_min":160,"x_max":1231,"o":"m 269 463 q 190 499 217 467 q 160 575 164 532 q 196 656 156 615 q 288 686 236 696 q 381 569 381 669 q 347 494 381 528 q 269 463 314 460 m 694 463 q 615 499 642 467 q 583 575 589 531 q 621 656 581 615 q 711 686 661 696 q 806 569 806 669 q 772 494 806 528 q 694 463 739 460 m 1118 463 q 1040 499 1067 467 q 1008 575 1013 532 q 1046 656 1006 615 q 1136 686 1086 696 q 1231 569 1231 669 q 1197 494 1231 528 q 1118 463 1164 460 z "},"‥":{"ha":1389,"x_min":229,"x_max":1132,"o":"m 339 463 q 260 499 286 467 q 229 575 233 532 q 267 656 226 615 q 357 686 307 696 q 450 569 450 669 q 417 494 450 528 q 339 463 383 460 m 1021 463 q 942 499 968 467 q 911 575 915 532 q 947 656 907 615 q 1039 686 988 696 q 1132 569 1132 669 q 1099 494 1132 528 q 1021 463 1065 460 z "},"‘":{"ha":1389,"x_min":1078,"x_max":1299,"o":"m 1218 972 q 1299 907 1285 957 q 1283 810 1313 857 q 1200 761 1253 764 q 1117 794 1153 760 q 1078 874 1081 829 q 1088 963 1075 915 q 1122 1039 1100 1011 q 1165 1076 1143 1065 q 1200 1081 1186 1088 q 1213 1029 1236 1064 q 1202 1015 1208 1022 q 1194 1004 1196 1007 q 1218 972 1185 981 z "},"’":{"ha":1389,"x_min":92,"x_max":313,"o":"m 172 874 q 92 938 106 890 q 108 1035 79 989 q 192 1083 138 1082 q 274 1050 238 1085 q 313 972 310 1015 q 303 882 315 929 q 268 806 290 835 q 226 768 247 779 q 190 764 204 757 q 178 817 154 781 q 196 840 196 839 q 172 874 206 864 z "},"“":{"ha":1389,"x_min":778,"x_max":1285,"o":"m 918 972 q 999 907 988 956 q 983 810 1013 857 q 900 761 954 764 q 817 794 853 760 q 778 874 782 829 q 788 963 775 915 q 824 1039 801 1011 q 865 1076 843 1065 q 901 1081 888 1088 q 913 1029 936 1064 q 902 1015 908 1022 q 894 1004 896 1007 q 918 972 885 981 m 1204 972 q 1285 907 1271 957 q 1267 810 1297 857 q 1185 761 1238 764 q 1102 794 1138 760 q 1064 874 1067 829 q 1074 963 1061 915 q 1108 1039 1086 1011 q 1151 1076 1129 1065 q 1186 1081 1172 1088 q 1199 1029 1222 1064 q 1190 1019 1194 1024 q 1184 1010 1186 1014 q 1181 1004 1182 1007 q 1204 972 1171 981 z "},"”":{"ha":1389,"x_min":86,"x_max":592,"o":"m 453 874 q 372 938 383 890 q 388 1035 358 988 q 471 1083 417 1082 q 553 1051 518 1085 q 592 972 589 1017 q 583 883 596 931 q 547 806 569 836 q 469 764 503 749 q 458 817 435 782 q 469 829 463 822 q 476 840 475 836 q 453 874 486 864 m 167 874 q 86 938 100 890 q 102 1035 72 988 q 186 1083 132 1082 q 268 1050 232 1085 q 307 972 304 1015 q 297 882 310 929 q 263 806 285 835 q 220 768 242 779 q 185 764 199 757 q 172 817 149 781 q 183 829 176 822 q 190 840 189 836 q 167 874 200 864 z "},"（":{"ha":1389,"x_min":889,"x_max":1278,"o":"m 1229 940 q 1134 778 1182 888 q 1083 522 1086 668 q 1094 401 1082 460 q 1133 290 1107 342 q 1176 209 1158 239 q 1226 136 1194 179 q 1263 88 1258 93 q 1276 -51 1325 -7 q 1242 -73 1261 -65 q 1192 -76 1222 -81 q 1132 -49 1161 -71 q 1067 15 1100 -24 q 991 120 1033 54 q 920 286 949 186 q 889 499 892 386 q 952 846 885 699 q 1093 1064 1019 993 q 1263 1088 1192 1158 q 1277 1024 1286 1064 q 1229 940 1268 985 z "},"）":{"ha":1389,"x_min":104,"x_max":493,"o":"m 153 940 q 105 1024 114 985 q 119 1088 96 1064 q 289 1064 190 1158 q 351 990 319 1035 q 419 874 383 944 q 475 704 454 803 q 493 499 496 606 q 462 285 490 385 q 392 120 433 186 q 316 15 350 54 q 250 -49 282 -25 q 190 -76 221 -71 q 140 -73 160 -81 q 106 -51 121 -65 q 121 88 57 -7 q 156 135 126 94 q 205 208 186 176 q 249 291 224 240 q 287 401 274 342 q 299 522 300 460 q 248 778 296 668 q 153 940 200 888 z "},"〔":{"ha":1389,"x_min":840,"x_max":1286,"o":"m 847 931 q 954 1053 840 1025 q 1208 1108 1103 1094 q 1263 1083 1238 1111 q 1286 1019 1288 1054 q 1264 963 1283 982 q 1199 931 1244 944 q 1147 915 1185 926 q 1092 899 1110 904 q 1017 801 1019 879 q 1011 475 1007 590 q 1014 274 1014 411 q 1029 197 1014 221 q 1075 161 1044 172 q 1235 103 1103 151 q 1284 42 1278 86 q 1264 -35 1290 -1 q 1197 -60 1238 -69 q 946 11 1032 -24 q 924 20 944 11 q 900 31 904 29 q 881 43 896 33 q 860 61 865 53 q 849 84 856 69 q 840 117 842 99 q 848 524 846 164 q 847 931 850 883 z "},"〕":{"ha":1389,"x_min":92,"x_max":540,"o":"m 529 931 q 540 524 529 922 q 536 117 550 125 q 528 84 535 99 q 516 61 521 69 q 496 43 511 53 q 476 31 481 33 q 452 20 472 29 q 431 11 432 11 q 179 -60 344 -24 q 113 -35 139 -69 q 93 42 86 -1 q 143 103 100 86 q 301 161 218 132 q 347 197 332 172 q 363 274 363 221 q 365 475 363 411 q 360 801 369 590 q 285 899 357 879 q 231 915 268 904 q 179 931 194 925 q 113 963 132 944 q 92 1019 93 982 q 114 1083 89 1054 q 168 1108 139 1111 q 424 1053 269 1096 q 529 931 536 1024 z "},"［":{"ha":1389,"x_min":875,"x_max":1274,"o":"m 878 1003 q 906 1093 874 1061 q 983 1125 938 1125 q 1104 1124 1014 1125 q 1211 1124 1194 1124 q 1265 1099 1253 1122 q 1274 1036 1278 1076 q 1186 961 1268 961 l 1146 961 q 1083 931 1111 960 q 1054 858 1056 901 q 1049 401 1046 472 q 1050 201 1051 267 q 1078 135 1050 163 q 1143 107 1107 108 q 1213 103 1196 104 q 1258 78 1243 100 q 1274 25 1274 56 q 1268 -35 1290 -11 q 1196 -61 1246 -58 q 983 -62 1065 -69 q 915 -45 947 -74 q 876 36 882 -17 q 876 522 872 69 q 878 1003 879 975 z "},"］":{"ha":1389,"x_min":103,"x_max":503,"o":"m 500 1003 q 503 517 499 982 q 500 36 507 51 q 464 -46 494 -18 q 394 -62 433 -74 q 182 -61 258 -74 q 134 -47 151 -60 q 112 -19 117 -35 q 104 25 107 -4 q 119 78 104 56 q 165 103 135 100 q 235 107 182 104 q 299 135 271 108 q 326 201 326 163 q 329 401 326 338 q 322 858 333 513 q 293 931 321 901 q 231 961 265 960 l 190 961 q 103 1036 108 961 q 122 1095 101 1069 q 167 1124 142 1121 q 272 1124 182 1124 q 393 1125 363 1125 q 472 1093 440 1125 q 500 1003 504 1061 z "},"｛":{"ha":1389,"x_min":971,"x_max":1285,"o":"m 1251 981 q 1190 871 1190 931 q 1196 793 1190 851 q 1199 631 1206 676 q 1157 533 1190 572 q 1154 460 1132 501 q 1185 365 1182 411 q 1183 265 1186 347 q 1196 100 1175 133 q 1242 42 1213 74 q 1274 -12 1271 10 q 1258 -69 1278 -50 q 1199 -93 1239 -93 q 1107 -35 1154 -93 q 1043 88 1060 22 q 1040 251 1031 135 q 1043 342 1049 317 q 1010 403 1039 367 q 971 476 975 446 q 1029 603 960 553 q 1056 657 1046 614 q 1057 739 1065 700 q 1090 1044 1010 954 q 1213 1107 1144 1107 q 1272 1085 1254 1107 q 1285 1040 1288 1068 q 1251 981 1282 1006 z "},"｝":{"ha":1389,"x_min":93,"x_max":407,"o":"m 126 981 q 93 1040 97 1003 q 106 1085 90 1068 q 167 1107 124 1107 q 289 1044 233 1107 q 321 739 368 954 q 322 657 313 700 q 349 603 332 614 q 407 476 419 551 q 368 403 403 446 q 335 342 339 367 q 338 251 329 317 q 335 88 347 135 q 271 -35 318 22 q 179 -93 224 -93 q 119 -69 139 -93 q 104 -12 100 -50 q 136 42 107 10 q 182 100 165 74 q 194 265 206 138 q 193 365 192 347 q 224 460 196 411 q 221 533 246 501 q 179 631 188 576 q 183 793 172 683 q 185 830 183 801 q 188 871 188 858 q 126 981 188 931 z "},"〈":{"ha":1389,"x_min":560,"x_max":1058,"o":"m 1053 68 q 1058 -37 1088 14 q 974 -87 1029 -87 q 892 -46 926 -87 q 569 381 667 229 q 560 613 492 501 q 875 1038 647 756 l 882 1049 q 965 1094 915 1094 q 1053 1040 1025 1094 q 1046 935 1082 986 q 925 771 993 863 q 757 542 800 604 q 749 523 753 535 q 749 489 746 511 q 765 446 751 467 q 947 208 811 379 q 1053 68 1042 88 z "},"〉":{"ha":1389,"x_min":318,"x_max":817,"o":"m 322 68 q 429 208 335 88 q 611 446 565 379 q 628 490 625 467 q 626 524 631 513 q 618 542 622 535 q 451 771 578 601 q 331 935 368 881 q 324 1040 294 986 q 411 1094 351 1094 q 493 1049 463 1094 l 501 1038 q 817 613 729 756 q 807 381 885 501 q 485 -46 710 229 q 403 -87 450 -87 q 318 -37 346 -87 q 322 68 289 14 z "},"《":{"ha":1389,"x_min":557,"x_max":1269,"o":"m 1024 1003 q 865 786 1001 969 q 693 551 728 603 q 690 450 660 499 q 878 200 738 379 q 1031 3 1019 21 q 1035 -56 1049 -28 q 995 -85 1022 -83 q 940 -60 968 -86 q 594 399 671 281 q 564 453 574 429 q 557 515 554 478 q 583 593 560 553 q 636 673 606 628 q 699 761 667 718 q 765 849 731 804 q 828 931 799 893 q 881 999 857 969 q 919 1046 904 1028 l 933 1064 q 985 1092 954 1096 q 1028 1060 1017 1088 q 1024 1003 1040 1033 m 1257 1003 q 1098 786 1235 969 q 926 551 961 603 q 924 450 893 499 q 1112 200 971 379 q 1264 3 1253 21 q 1269 -56 1282 -28 q 1228 -85 1256 -83 q 1175 -60 1201 -86 q 828 399 940 225 q 797 453 807 429 q 790 515 788 478 q 818 593 793 553 q 869 673 839 628 q 932 761 900 718 q 998 849 964 804 q 1061 931 1032 893 q 1114 999 1090 969 q 1153 1046 1138 1028 l 1167 1064 q 1219 1092 1188 1096 q 1262 1060 1250 1088 q 1257 1003 1274 1033 z "},"》":{"ha":1389,"x_min":107,"x_max":819,"o":"m 353 1003 q 342 1040 342 1021 q 353 1071 342 1058 q 380 1090 365 1083 q 413 1090 394 1096 q 443 1064 431 1083 l 458 1046 q 496 999 472 1028 q 549 931 519 969 q 612 849 578 893 q 678 761 646 804 q 740 673 710 718 q 792 593 771 628 q 819 515 817 554 q 811 453 821 476 q 782 399 801 429 q 435 -60 669 225 q 381 -85 411 -89 q 340 -55 350 -81 q 346 3 331 -29 q 497 199 356 19 q 685 450 638 378 q 682 551 717 499 q 510 788 647 604 q 353 1003 374 972 m 119 1003 q 108 1040 108 1021 q 120 1071 108 1058 q 147 1090 132 1083 q 179 1090 161 1096 q 210 1064 197 1083 l 225 1046 q 263 999 239 1028 q 315 931 286 969 q 378 849 344 893 q 444 761 413 804 q 507 673 476 718 q 558 593 538 628 q 585 515 582 553 q 578 453 588 478 q 549 399 568 429 q 201 -60 436 225 q 147 -85 178 -89 q 107 -55 117 -81 q 113 3 97 -29 q 264 199 124 19 q 451 450 404 378 q 449 551 483 499 q 277 788 414 604 q 119 1003 140 972 z "},"「":{"ha":1389,"x_min":719,"x_max":1283,"o":"m 908 819 q 901 17 901 278 q 874 -49 901 -26 q 813 -72 847 -72 q 726 13 736 -72 q 719 976 719 74 q 759 1063 719 1025 q 858 1101 799 1101 q 1014 1101 874 1101 q 1203 1094 1154 1100 q 1263 1061 1242 1090 q 1283 997 1283 1032 q 1251 944 1283 969 q 1165 917 1218 918 q 986 913 1153 917 q 931 887 953 913 q 908 819 908 861 z "},"」":{"ha":1389,"x_min":106,"x_max":669,"o":"m 481 208 q 488 1013 488 753 q 515 1078 488 1056 q 576 1101 542 1101 q 663 1017 653 1101 q 669 51 669 954 q 630 -35 669 3 q 531 -72 590 -72 q 186 -65 450 -97 q 126 -32 147 -61 q 106 31 106 -3 q 138 85 106 60 q 224 111 171 110 q 315 114 251 113 q 403 115 379 115 q 458 142 436 117 q 481 208 481 167 z "},"『":{"ha":1389,"x_min":719,"x_max":1283,"o":"m 1203 1094 q 1263 1061 1242 1090 q 1283 997 1283 1032 q 1251 944 1283 969 q 1165 917 1218 918 q 1104 914 1142 917 q 1035 908 1067 911 q 974 903 1003 906 q 927 903 944 901 q 908 911 910 904 q 901 17 922 57 q 877 -51 901 -28 q 813 -72 853 -74 q 726 13 736 -72 q 719 976 719 74 q 759 1063 719 1025 q 858 1101 799 1101 l 988 1101 q 1203 1094 1140 1101 m 1164 978 q 1222 1000 1207 979 q 1196 1033 1217 1031 q 988 1040 1139 1040 l 910 1040 l 858 1040 q 801 1019 822 1040 q 781 976 781 999 q 786 19 781 74 q 792 -2 788 6 q 801 -10 797 -10 q 813 -11 806 -11 q 840 17 840 -11 q 844 474 840 50 q 847 911 847 897 q 865 953 847 936 q 907 972 882 971 q 1164 978 1071 976 z "},"』":{"ha":1389,"x_min":106,"x_max":669,"o":"m 663 1017 q 669 51 669 956 q 630 -35 669 3 q 531 -72 590 -72 l 401 -72 q 186 -65 249 -72 q 126 -32 147 -61 q 106 31 106 -3 q 138 85 106 60 q 224 111 171 110 q 344 113 257 113 q 481 118 481 115 q 481 147 481 129 q 484 222 482 165 q 488 335 486 279 q 490 468 489 392 q 493 612 492 544 q 495 750 494 679 q 495 873 496 821 q 492 963 494 925 q 488 1013 490 1001 q 515 1078 488 1056 q 576 1101 542 1101 q 663 1017 653 1101 m 531 -11 q 588 9 567 -11 q 608 51 608 29 q 603 1010 608 956 q 597 1031 601 1024 q 588 1040 592 1039 q 576 1040 583 1040 q 549 1013 549 1040 q 545 554 549 978 q 542 118 542 131 q 524 75 542 93 q 482 57 507 57 q 225 50 318 53 q 167 28 181 50 q 193 -4 172 -1 q 401 -11 250 -11 l 479 -11 l 531 -11 z "},"【":{"ha":1389,"x_min":875,"x_max":1274,"o":"m 878 1003 q 906 1093 874 1061 q 983 1125 938 1125 q 1104 1124 1014 1125 q 1211 1124 1194 1124 q 1272 1096 1254 1122 q 1274 1036 1289 1069 q 1241 999 1268 1022 q 1183 944 1214 976 q 1120 864 1151 913 q 1069 729 1089 815 q 1049 532 1049 643 q 1077 333 1054 419 q 1131 198 1100 246 q 1191 118 1161 150 q 1245 64 1221 86 q 1274 25 1269 42 q 1262 -32 1282 -6 q 1196 -61 1242 -58 q 983 -62 1065 -69 q 915 -45 947 -74 q 876 36 882 -17 q 876 522 872 69 q 878 1003 879 975 z "},"】":{"ha":1389,"x_min":104,"x_max":504,"o":"m 501 1003 q 504 517 500 985 q 501 36 508 50 q 466 -46 496 -18 q 396 -62 436 -74 q 183 -61 263 -74 q 117 -32 138 -58 q 106 25 97 -6 q 137 63 110 40 q 197 118 164 86 q 261 198 229 150 q 313 333 293 246 q 331 532 333 419 q 310 729 331 643 q 258 864 289 815 q 196 944 226 913 q 138 999 165 976 q 104 1036 110 1022 q 117 1093 92 1065 q 168 1124 142 1121 q 274 1124 183 1124 q 396 1125 364 1125 q 474 1093 442 1125 q 501 1003 506 1061 z "},"＋":{"ha":1389,"x_min":250,"x_max":1138,"o":"m 1008 628 q 1101 611 1067 628 q 1138 544 1135 594 q 1121 492 1140 513 q 1000 454 1092 460 q 858 453 950 450 q 804 429 822 454 q 786 381 786 404 q 782 168 783 189 q 697 71 776 71 q 630 102 657 71 q 603 181 603 133 l 603 282 q 601 382 601 311 q 585 430 601 406 q 536 453 569 454 q 351 456 388 453 q 250 532 250 460 q 278 600 250 574 q 356 629 307 626 q 497 631 369 631 l 528 631 q 581 653 563 626 q 600 707 600 681 q 601 897 600 883 q 678 1015 610 1007 q 753 992 722 1021 q 786 911 783 963 q 788 696 788 890 q 863 629 788 628 l 919 629 q 978 628 947 629 l 1008 628 z "},"−":{"ha":1389,"x_min":250,"x_max":1138,"o":"m 1008 628 q 1101 611 1067 628 q 1138 544 1135 594 q 1121 492 1140 513 q 1000 454 1092 460 q 772 453 969 453 q 351 456 418 453 q 250 532 250 460 q 278 600 250 574 q 356 629 307 626 q 497 631 369 631 q 713 630 558 631 q 919 629 868 629 q 978 628 947 629 l 1008 628 z "},"±":{"ha":1389,"x_min":250,"x_max":1138,"o":"m 1008 746 q 1101 729 1067 746 q 1138 663 1135 713 q 1121 610 1140 631 q 1000 572 1090 578 q 860 571 950 568 q 801 548 818 571 q 785 500 785 525 q 782 383 785 411 q 697 286 775 286 q 630 317 657 286 q 603 396 603 349 q 601 497 603 444 q 522 571 601 571 q 351 574 385 571 q 250 650 250 578 q 278 718 250 692 q 356 749 307 744 l 386 749 q 451 749 415 749 q 517 749 486 749 q 600 832 600 749 q 601 918 600 907 q 678 1036 610 1028 q 753 1013 722 1042 q 786 932 783 983 q 788 835 788 918 q 808 768 788 786 q 872 747 829 749 l 919 747 q 978 747 947 747 l 1008 746 m 1008 225 q 1101 208 1067 225 q 1138 142 1135 192 q 1121 89 1139 110 q 1000 51 1089 54 q 772 49 969 49 q 351 51 418 49 q 250 128 250 56 q 278 197 250 169 q 356 226 307 224 q 497 228 369 228 q 919 225 708 228 l 1008 225 z "},"×":{"ha":1389,"x_min":329,"x_max":1067,"o":"m 949 417 q 1011 353 981 383 q 1051 306 1038 326 q 1066 257 1065 285 q 1043 203 1067 229 q 994 178 1022 178 q 882 236 949 175 q 757 354 858 256 q 703 377 736 374 q 640 357 671 381 q 485 208 504 226 q 354 199 411 144 q 330 269 326 226 q 365 344 333 311 l 444 424 l 514 493 q 531 518 524 503 q 535 556 538 533 q 513 600 532 579 q 446 671 482 633 q 388 731 410 708 q 361 758 367 753 q 343 883 293 833 q 413 911 374 913 q 488 878 451 910 q 513 851 492 874 q 566 797 535 829 q 617 744 597 764 l 638 724 q 699 702 671 699 q 744 722 728 706 q 893 865 881 856 q 1031 894 976 938 q 1066 826 1065 868 q 1033 746 1067 783 q 879 590 1004 711 q 856 550 860 572 q 859 514 853 528 q 875 489 865 500 q 949 417 904 461 z "},"÷":{"ha":1389,"x_min":250,"x_max":1138,"o":"m 693 764 q 614 801 640 768 q 583 876 588 833 q 621 957 581 917 q 711 988 661 997 q 804 872 804 971 q 772 795 804 829 q 693 764 739 761 m 693 96 q 614 132 640 100 q 583 207 588 164 q 620 289 581 249 q 711 319 660 329 q 804 203 804 301 q 771 127 804 161 q 693 96 738 93 m 1008 628 q 1101 611 1067 628 q 1138 544 1135 594 q 1121 492 1140 513 q 1000 454 1092 460 q 772 453 969 453 q 351 456 418 453 q 250 532 250 460 q 278 600 250 574 q 356 629 307 626 q 497 631 369 631 q 713 630 558 631 q 919 629 868 629 q 978 628 947 629 l 1008 628 z "},"＝":{"ha":1389,"x_min":286,"x_max":1090,"o":"m 421 643 q 331 665 360 647 q 296 719 301 683 q 322 797 290 767 q 404 831 353 828 q 700 830 447 828 q 983 831 953 832 q 1013 819 994 826 q 1038 810 1032 813 q 1056 803 1044 808 q 1071 793 1068 797 q 1078 781 1074 789 q 1085 765 1083 774 q 1086 744 1086 757 q 1057 673 1092 699 q 971 647 1022 647 q 693 638 914 638 q 421 643 472 639 m 953 433 q 1053 415 1018 433 q 1090 347 1088 397 q 1052 278 1093 297 q 940 256 1011 260 q 662 253 876 253 q 393 257 447 254 q 286 333 286 261 q 317 405 286 378 q 399 435 349 432 q 559 436 463 436 q 800 435 656 436 q 953 433 944 433 z "},"≠":{"ha":1389,"x_min":286,"x_max":1090,"o":"m 953 433 q 1053 415 1018 433 q 1090 347 1088 397 q 1052 278 1093 297 q 940 256 1011 260 q 847 255 928 256 q 708 253 765 254 q 603 201 635 251 q 583 169 594 188 q 569 147 572 151 q 433 103 508 57 q 388 210 369 142 q 347 264 406 251 q 286 333 286 276 q 317 405 286 378 q 399 435 349 432 q 419 435 401 435 q 451 436 438 436 q 476 438 464 436 q 495 441 488 439 q 510 449 503 443 q 522 457 518 454 q 532 467 526 460 q 539 476 538 474 q 545 486 540 479 q 550 494 550 493 q 576 542 558 511 q 599 579 594 572 q 608 619 613 594 q 568 642 603 643 q 421 643 461 640 q 331 665 360 647 q 296 719 301 683 q 322 797 290 767 q 404 831 353 828 q 660 833 532 836 q 711 838 688 833 q 748 851 735 843 q 772 869 761 858 q 786 889 782 881 q 794 906 790 897 l 799 915 q 827 957 814 940 q 860 988 840 974 q 901 1001 881 1003 q 950 988 921 999 q 989 943 981 972 q 988 882 999 910 q 993 842 978 857 q 1025 824 1008 828 q 1086 744 1086 806 q 1052 675 1086 703 q 971 647 1018 647 l 935 647 q 843 603 867 647 q 803 533 825 568 q 792 515 800 528 q 782 497 785 503 q 772 472 774 485 q 780 447 769 458 q 819 435 790 435 q 953 433 885 433 z "},"＜":{"ha":1389,"x_min":283,"x_max":1088,"o":"m 969 808 l 960 803 q 608 589 900 769 q 576 531 572 567 q 619 474 581 494 q 1004 269 897 328 q 1058 229 1040 250 q 1079 195 1076 208 q 1082 156 1082 182 l 1082 154 q 1056 98 1082 122 q 1000 74 1029 74 q 850 129 944 74 q 765 176 844 132 q 335 432 365 407 q 287 482 300 458 q 283 543 274 506 q 379 657 293 589 l 385 661 q 825 943 449 713 l 850 958 q 996 1010 935 1010 q 1025 1004 1014 1010 q 1075 965 1057 993 q 1088 911 1093 936 q 1062 872 1083 893 q 1025 842 1040 851 q 969 808 1010 832 z "},"＞":{"ha":1389,"x_min":306,"x_max":1111,"o":"m 424 808 q 368 842 383 832 q 331 872 353 851 q 306 911 310 893 q 319 965 301 936 q 368 1004 336 993 q 399 1010 379 1010 q 543 958 460 1010 l 568 943 q 1008 661 944 713 l 1014 657 q 1111 543 1100 589 q 1106 483 1119 506 q 1060 432 1093 460 q 628 176 1022 401 q 544 129 578 149 q 393 74 449 74 q 338 99 365 74 q 311 154 311 124 l 311 156 q 314 195 311 182 q 335 229 317 208 q 390 269 353 250 q 774 474 551 357 q 817 531 813 494 q 786 589 821 567 q 435 803 446 796 l 424 808 z "},"≦":{"ha":1389,"x_min":210,"x_max":1185,"o":"m 1040 181 q 1181 100 1175 181 q 1160 47 1183 68 q 1032 14 1129 19 q 735 13 999 13 q 657 13 699 13 q 578 15 615 14 q 503 16 540 15 q 437 17 467 17 q 383 19 407 18 q 347 19 360 19 l 333 21 q 221 94 221 24 q 253 160 221 135 q 338 186 285 185 q 481 188 350 188 q 754 183 603 188 q 951 181 910 181 l 968 181 l 1040 181 m 1185 432 q 1179 403 1185 414 q 1178 332 1164 374 q 1181 313 1181 321 q 1160 260 1183 281 q 1032 226 1128 229 q 735 225 999 225 q 657 226 699 225 q 578 226 615 226 q 503 227 540 226 q 437 229 467 228 q 383 231 407 231 q 347 231 360 231 l 333 232 q 221 307 221 236 q 253 371 221 346 q 338 399 285 396 q 481 400 350 400 q 622 398 519 400 q 754 396 724 396 q 872 393 860 393 q 888 399 882 393 q 890 414 893 406 q 874 426 886 422 q 526 539 758 463 q 265 633 294 615 q 210 736 200 676 q 238 790 214 765 q 281 824 263 814 q 332 849 300 833 q 594 935 367 864 q 885 1024 821 1007 q 947 1042 926 1035 q 1125 1072 1079 1079 q 1174 1044 1158 1068 q 1182 974 1193 1017 q 1065 897 1174 929 q 490 725 624 769 q 589 693 508 719 q 722 650 669 667 q 1086 529 1040 549 q 1163 485 1140 507 q 1185 432 1185 464 z "},"≧":{"ha":1389,"x_min":218,"x_max":1192,"o":"m 361 181 l 433 181 l 451 181 q 647 183 492 181 q 921 188 799 188 q 1064 186 1051 188 q 1150 160 1118 185 q 1182 94 1182 135 q 1068 21 1182 24 l 1060 21 q 1038 20 1051 21 q 1003 19 1024 19 q 959 17 983 18 q 908 16 935 17 q 850 15 881 15 q 790 13 819 14 q 728 13 760 13 q 667 13 696 13 q 371 14 403 13 q 242 47 272 19 q 221 100 218 68 q 361 181 226 181 m 218 431 q 240 485 218 463 q 315 529 263 507 q 679 650 361 549 q 767 678 713 661 q 856 706 821 694 q 911 725 890 718 q 336 897 754 778 q 219 974 229 928 q 228 1044 208 1017 q 276 1072 244 1068 q 454 1042 324 1079 q 518 1024 479 1033 q 810 934 582 1006 q 1071 849 1038 863 q 1122 824 1104 833 q 1163 790 1139 814 q 1192 736 1188 765 q 1136 633 1201 676 q 875 539 1107 615 q 528 426 643 463 q 511 406 508 419 q 529 393 514 393 q 647 396 542 393 q 780 398 678 396 q 921 400 882 400 q 988 400 956 400 q 1041 399 1021 400 q 1064 399 1061 399 q 1150 371 1118 396 q 1182 307 1182 346 q 1068 232 1182 236 l 1060 232 q 1038 231 1051 232 q 1003 230 1024 231 q 959 228 983 229 q 908 227 935 228 q 850 226 881 226 q 790 224 819 225 q 728 224 760 224 q 667 224 696 224 q 371 226 435 224 q 242 260 274 229 q 221 313 218 281 q 225 332 221 324 q 224 403 236 378 q 218 431 218 414 z "},"∞":{"ha":1389,"x_min":165,"x_max":1222,"o":"m 750 749 q 896 811 825 810 q 1189 650 1106 814 q 1222 435 1235 553 q 1151 260 1208 317 q 992 180 1088 196 q 832 196 897 164 q 753 244 793 211 q 639 253 692 293 q 500 188 567 201 q 316 211 401 168 q 196 339 231 254 q 166 453 174 392 q 173 583 158 514 q 228 704 188 653 q 355 806 288 781 q 510 819 422 831 q 649 754 581 811 q 750 749 704 708 m 557 418 q 582 479 578 440 q 575 547 586 518 q 558 579 569 564 q 518 608 547 594 q 451 618 489 621 q 373 574 397 614 q 347 496 349 535 q 369 426 346 464 q 433 381 392 388 q 557 418 511 367 m 1021 418 q 1045 479 1040 440 q 1039 547 1050 518 q 1021 579 1032 564 q 981 608 1010 594 q 914 618 951 621 q 835 574 860 614 q 810 496 811 535 q 832 425 810 463 q 896 381 854 388 q 1021 418 974 367 z "},"∴":{"ha":1389,"x_min":200,"x_max":1189,"o":"m 694 758 q 615 794 642 761 q 583 869 589 826 q 621 950 581 910 q 711 982 661 990 q 806 865 806 964 q 772 788 806 822 q 694 758 739 754 m 310 60 q 231 97 257 64 q 200 172 204 129 q 238 253 197 213 q 328 283 278 293 q 421 167 421 267 q 388 91 421 125 q 310 60 354 57 m 1078 60 q 999 97 1025 64 q 968 172 972 129 q 1006 253 965 213 q 1096 283 1046 293 q 1189 167 1189 267 q 1156 91 1189 125 q 1078 60 1122 57 z "},"♂":{"ha":1389,"x_min":228,"x_max":1172,"o":"m 1172 651 q 1165 586 1182 617 q 1113 546 1147 556 q 1047 554 1079 536 q 1007 606 1015 569 l 986 681 q 984 687 985 683 q 978 698 983 690 q 969 709 974 706 q 958 709 965 713 q 946 692 951 706 q 935 674 943 685 q 864 550 889 593 q 876 449 839 510 q 874 100 964 297 q 798 4 850 47 q 679 -61 746 -39 q 404 -37 532 -108 q 379 -22 396 -33 q 256 122 293 36 q 228 291 219 208 q 279 447 238 374 q 421 569 324 528 q 625 604 518 610 q 713 644 688 601 q 729 673 719 656 q 746 702 739 690 q 758 722 753 714 q 785 768 782 764 q 790 792 794 786 q 774 797 785 799 l 763 796 l 701 779 q 636 787 667 769 q 596 839 606 804 q 604 904 586 874 q 657 944 622 935 l 978 1031 q 1042 1023 1011 1040 q 1082 971 1072 1006 l 1172 651 m 714 178 q 735 289 746 224 q 667 399 725 354 q 660 403 665 400 q 653 408 654 407 l 651 408 q 525 414 593 440 q 436 343 464 389 q 415 238 407 299 q 474 136 422 176 q 490 126 479 132 q 619 112 551 94 q 714 178 686 129 z "},"♀":{"ha":1389,"x_min":303,"x_max":1086,"o":"m 958 324 q 1050 307 1017 324 q 1086 240 1083 290 q 1069 188 1088 208 q 949 150 1040 153 q 925 149 942 150 q 882 148 908 149 q 836 147 856 147 q 782 107 781 147 q 782 65 782 81 q 781 35 782 50 q 781 18 781 21 q 764 -74 781 -40 q 697 -111 747 -108 q 644 -94 665 -114 q 607 26 613 -67 q 606 42 607 29 q 605 65 606 54 q 606 93 604 76 q 590 135 607 121 q 557 149 574 149 q 459 149 511 149 q 404 150 407 150 q 303 226 303 154 q 331 295 303 268 q 408 325 360 322 q 434 325 410 325 q 495 326 458 325 q 563 326 532 326 q 583 335 572 326 q 590 358 593 344 q 563 382 586 372 q 350 706 372 457 q 442 940 339 828 q 693 1056 549 1056 q 708 1055 699 1056 q 721 1054 717 1054 q 899 988 825 1046 q 1006 855 974 931 q 1039 694 1039 779 q 978 521 1039 604 q 826 392 918 438 q 804 354 799 378 q 875 324 811 324 l 958 324 m 528 715 q 567 605 528 654 q 678 546 606 556 q 686 545 681 546 q 696 544 692 544 q 808 603 760 544 q 851 708 851 653 q 817 813 851 767 q 717 869 782 860 q 699 871 711 871 q 580 820 632 871 q 528 715 528 769 z "},"°":{"ha":1389,"x_min":113,"x_max":461,"o":"m 272 719 q 113 896 128 731 q 164 1022 107 960 q 300 1071 221 1085 q 421 1006 381 1056 q 461 889 461 956 q 412 767 475 821 q 272 719 349 714 m 338 903 q 326 939 338 922 q 292 958 314 956 q 247 944 267 961 q 226 904 226 926 q 240 859 229 868 q 278 846 250 850 q 321 863 304 843 q 338 903 338 882 z "},"′":{"ha":1389,"x_min":150,"x_max":410,"o":"m 249 1025 q 369 1064 308 1096 q 410 1000 406 1044 q 386 921 414 956 q 232 782 344 867 q 163 784 199 756 q 150 868 128 813 q 249 1025 178 940 z "},"″":{"ha":1389,"x_min":138,"x_max":649,"o":"m 238 1025 q 358 1064 297 1096 q 399 1000 394 1044 q 375 921 403 956 q 221 782 339 874 q 151 784 188 756 q 138 868 115 813 q 238 1025 171 949 m 488 1025 q 608 1064 547 1096 q 649 1000 644 1044 q 625 921 653 956 q 471 782 589 874 q 401 784 438 756 q 388 868 365 813 q 488 1025 421 949 z "},"℃":{"ha":1389,"x_min":121,"x_max":1192,"o":"m 268 754 q 121 917 136 763 q 168 1035 115 976 q 294 1079 221 1093 q 407 1019 369 1065 q 444 910 444 972 q 390 799 444 850 q 268 754 335 749 m 329 924 q 318 957 329 942 q 286 975 307 972 q 244 962 264 978 q 225 925 225 946 q 274 871 233 876 q 313 886 297 868 q 329 924 329 904 m 1083 267 q 1168 224 1135 267 q 1192 124 1207 175 q 1093 29 1176 64 q 903 3 1029 3 q 613 58 713 3 q 548 101 579 76 q 476 172 517 125 q 409 275 436 219 q 368 415 382 331 q 367 594 354 499 q 432 800 382 710 q 550 942 482 890 q 688 1019 618 993 q 821 1049 757 1046 l 838 1049 q 1052 1006 953 1049 q 1186 910 1151 964 q 1183 764 1236 831 q 1113 732 1160 732 q 1025 760 1069 732 q 878 799 963 799 q 800 789 844 799 q 677 708 738 774 q 613 558 617 643 q 713 299 600 390 q 805 256 747 271 q 914 242 863 242 q 931 242 919 242 q 946 243 942 243 q 1008 254 967 246 q 1083 267 1056 267 z "},"￥":{"ha":1389,"x_min":296,"x_max":1139,"o":"m 1139 982 q 1117 890 1147 935 q 1038 796 1096 861 q 983 732 999 751 q 942 683 978 726 q 885 615 907 639 q 869 589 871 600 q 873 574 868 578 q 883 571 878 571 q 944 567 919 571 q 1014 482 1014 556 q 994 422 1014 449 q 935 392 975 394 q 882 390 921 390 l 863 390 q 856 390 860 390 q 849 390 851 390 q 844 390 847 390 q 838 390 840 390 q 833 388 836 389 q 828 385 831 388 q 822 381 825 383 q 816 376 819 379 q 808 369 813 374 q 809 362 808 365 q 813 356 810 358 q 817 353 815 354 q 824 350 819 351 q 830 348 828 349 q 838 347 832 347 q 845 347 843 347 q 853 347 847 347 q 860 347 858 347 q 928 346 911 347 q 991 319 968 343 q 1014 267 1014 296 q 988 207 1014 233 q 919 181 963 181 l 868 181 q 841 178 851 181 q 819 163 831 176 q 810 126 808 150 q 808 86 811 115 q 783 15 804 39 q 707 -12 763 -10 l 701 -12 q 634 14 661 -12 q 604 83 607 40 q 603 103 604 90 q 601 124 603 117 q 542 182 597 179 q 503 183 528 182 q 472 183 478 183 q 415 205 438 183 q 393 258 393 226 q 415 316 393 290 q 475 346 436 342 q 540 347 489 347 q 557 346 544 347 q 606 357 606 343 q 603 365 606 360 q 549 390 603 390 q 543 390 544 390 l 492 390 q 425 416 453 390 q 396 478 397 442 q 425 544 394 511 q 488 576 457 576 q 519 590 506 576 q 517 629 532 604 q 415 749 494 657 q 397 769 413 751 q 372 796 381 788 q 296 894 313 860 q 317 1040 253 976 q 369 1058 335 1058 q 478 1010 439 1058 q 664 804 501 981 q 713 784 681 786 q 761 799 746 782 q 919 979 900 951 q 1043 1056 978 1056 q 1093 1042 1068 1056 q 1139 982 1131 1019 z "},"＄":{"ha":1389,"x_min":356,"x_max":1018,"o":"m 790 624 q 842 525 792 554 q 1018 253 1044 399 q 828 46 989 92 q 793 31 808 40 q 773 17 778 22 q 767 8 768 11 q 690 -35 746 -35 q 657 -28 669 -35 q 632 -10 642 -21 l 622 1 q 605 18 611 13 q 585 32 599 24 q 560 44 572 40 q 407 129 481 69 l 399 135 q 356 218 353 171 q 397 290 356 260 q 453 310 425 310 q 542 278 486 310 q 607 307 603 247 l 607 376 q 557 464 607 435 q 442 546 482 511 q 379 629 401 581 q 363 780 346 700 q 440 913 381 860 q 563 979 499 964 q 587 991 575 982 q 606 1008 599 1000 q 623 1028 614 1017 q 635 1043 632 1040 q 708 1078 665 1078 q 765 1051 739 1078 q 781 1030 768 1049 q 810 997 793 1011 q 851 972 826 982 q 969 897 931 944 q 1008 804 1008 850 q 968 739 1008 758 q 889 735 928 719 q 842 767 867 744 q 822 777 833 774 q 801 774 811 781 q 792 746 792 768 l 792 724 q 791 674 792 707 q 790 624 790 640 m 557 733 q 578 674 549 706 q 597 666 585 664 q 611 686 610 668 q 613 758 613 711 q 606 781 613 772 q 585 781 600 790 q 557 733 565 765 m 824 256 q 831 307 839 285 q 806 332 825 324 q 788 314 788 340 q 786 265 788 293 q 794 240 786 244 q 810 240 801 235 q 824 256 819 246 z "},"￠":{"ha":1389,"x_min":0,"x_max":0,"o":""},"￡":{"ha":1389,"x_min":0,"x_max":0,"o":""},"％":{"ha":1389,"x_min":207,"x_max":1172,"o":"m 1093 982 q 1114 926 1114 956 q 1106 881 1114 897 q 1079 836 1097 864 l 1078 833 q 768 457 1050 793 q 706 381 740 424 q 649 313 671 339 q 617 275 626 286 l 599 251 q 418 42 467 89 q 353 15 392 15 q 282 40 313 15 q 265 100 260 60 q 301 183 269 140 q 494 424 340 238 q 672 644 644 608 q 856 864 710 694 q 924 946 915 935 q 1035 1013 979 1013 q 1093 982 1069 1013 m 611 939 q 652 816 647 888 q 629 683 657 744 q 557 601 608 636 q 439 565 506 565 q 424 567 429 565 q 207 724 243 578 q 219 883 188 800 q 331 1010 251 967 q 424 1033 375 1033 q 533 1005 481 1033 q 611 939 585 976 m 486 772 q 489 816 493 793 q 471 850 485 839 q 438 860 460 860 q 392 847 414 860 q 367 818 369 835 q 382 753 358 782 q 425 733 399 733 q 486 772 475 733 m 1172 308 q 1169 170 1197 243 q 1093 60 1140 97 q 956 14 1039 14 q 865 33 907 14 q 773 122 811 60 q 735 246 735 185 q 779 383 735 326 q 906 463 824 439 q 963 471 935 471 q 1088 426 1031 471 q 1172 308 1144 382 m 997 286 q 988 294 997 286 q 953 303 979 303 q 912 280 926 303 q 897 236 897 257 q 915 199 897 219 q 954 179 932 179 l 958 179 q 1004 203 990 182 q 1017 250 1018 224 q 997 286 1015 269 z "},"＃":{"ha":1389,"x_min":176,"x_max":1189,"o":"m 1085 667 l 1082 667 q 1077 665 1079 665 q 1071 663 1075 664 q 1064 660 1067 661 q 1057 655 1061 658 q 1049 647 1053 651 q 1042 638 1046 643 q 1036 626 1039 633 q 1032 610 1033 618 q 1024 556 1031 604 q 1011 482 1017 507 q 1008 456 1010 467 q 1012 437 1007 444 q 1020 424 1017 429 q 1031 417 1024 419 q 1041 415 1038 415 q 1050 414 1044 414 l 1057 413 q 1135 376 1107 410 q 1163 294 1164 342 q 1126 222 1161 251 q 1025 190 1092 192 q 1002 188 1013 190 q 985 181 992 185 q 972 172 978 178 q 964 160 967 165 q 958 147 961 156 q 953 135 954 139 q 951 124 953 132 l 950 115 q 939 67 944 83 q 900 1 925 18 q 833 -17 875 -17 q 764 13 792 -17 q 740 103 736 43 q 700 192 750 194 q 651 192 683 192 q 601 193 618 193 q 551 172 572 194 q 526 131 529 149 q 517 90 519 96 q 406 -14 485 -14 q 332 24 361 -14 q 311 124 303 61 q 274 203 319 196 q 201 244 225 214 q 176 311 176 274 q 219 388 176 354 q 325 421 261 421 q 367 467 358 421 q 378 534 371 488 q 390 604 386 581 q 388 644 394 628 q 372 666 381 661 q 357 671 363 671 q 224 779 231 681 q 260 865 219 826 q 363 901 301 904 q 419 915 396 900 q 449 942 442 929 q 458 965 456 954 q 502 1053 475 1025 q 582 1076 529 1082 q 646 1038 625 1071 q 667 957 667 1004 q 666 936 668 949 q 679 912 664 924 q 728 899 694 900 q 807 897 794 899 q 838 901 825 896 q 859 915 851 907 q 872 933 867 922 q 880 951 878 943 q 883 969 882 960 l 885 978 q 934 1047 901 1028 q 1003 1058 967 1065 q 1066 1016 1042 1051 q 1083 933 1090 981 q 1121 881 1076 896 q 1175 834 1157 868 q 1189 769 1193 800 q 1158 705 1186 736 q 1085 667 1129 674 m 736 418 q 800 479 788 415 q 807 519 803 493 q 815 565 811 544 q 821 604 818 586 q 815 646 824 626 q 776 665 806 665 q 728 666 760 665 q 682 667 697 667 q 632 647 651 665 q 610 610 613 628 q 588 479 601 568 q 587 455 588 468 q 600 431 586 442 q 639 419 614 419 q 736 418 719 419 z "},"＆":{"ha":1389,"x_min":346,"x_max":1154,"o":"m 1154 143 q 1113 40 1176 85 q 1007 42 1069 10 q 908 38 953 68 q 715 -33 813 -31 l 699 -33 q 490 13 593 -33 q 346 143 388 58 q 353 426 279 285 q 422 515 371 461 q 424 604 461 557 q 385 669 399 642 q 385 910 329 792 q 497 1030 419 983 q 665 1076 574 1076 q 764 1060 718 1076 q 914 940 867 1024 q 957 765 961 857 q 918 647 956 701 q 832 563 881 592 q 809 530 814 553 q 829 475 804 507 q 882 419 847 454 q 939 401 899 406 q 996 401 979 396 q 1014 404 1007 404 l 1017 404 q 1087 376 1056 403 q 1124 314 1118 349 q 1121 267 1128 292 q 1140 169 1107 203 q 1154 143 1149 160 m 597 725 q 649 699 618 700 q 689 708 681 697 q 735 811 747 758 q 705 857 729 839 q 650 875 681 875 q 626 872 633 875 q 579 832 594 864 q 575 771 564 804 q 597 725 586 738 m 644 372 q 640 376 643 374 q 625 384 636 379 q 604 391 614 389 q 581 390 594 393 q 556 376 567 388 q 521 292 518 344 q 562 205 525 239 q 661 164 599 171 q 760 192 711 157 q 776 222 776 204 q 768 253 776 240 l 760 264 l 644 372 z "},"＊":{"ha":1389,"x_min":247,"x_max":1140,"o":"m 1053 411 q 1103 372 1088 386 q 1131 339 1118 358 q 1140 300 1143 319 q 1118 253 1136 281 q 1115 249 1117 251 q 1113 244 1113 246 q 939 250 1058 176 q 839 319 914 267 q 810 325 828 331 q 792 289 792 319 l 790 192 q 788 130 790 150 q 776 89 785 110 q 749 59 768 68 q 696 47 729 50 q 686 46 692 46 q 588 182 597 46 q 586 283 585 221 q 567 319 586 315 q 536 311 547 324 l 458 254 q 390 209 413 221 q 340 201 368 197 q 281 235 311 204 q 274 243 275 240 q 324 400 218 308 q 468 511 343 418 q 469 585 518 549 q 336 678 404 633 q 247 782 257 729 q 249 821 243 806 q 274 858 254 836 q 331 894 299 890 q 386 886 363 897 q 447 851 410 875 q 460 843 456 846 q 519 800 465 839 q 546 787 532 792 q 574 790 560 782 q 588 822 588 797 q 587 869 588 843 q 586 899 586 894 q 621 1029 581 989 q 700 1056 647 1056 q 765 1030 743 1054 q 791 986 788 1006 q 797 917 794 967 q 799 903 799 907 l 799 822 q 849 796 797 758 q 913 846 907 840 q 1040 901 982 907 q 1080 891 1067 900 q 1113 858 1093 882 q 1133 817 1129 838 q 1133 782 1136 796 q 1111 747 1131 768 q 1083 719 1092 726 q 1047 690 1075 713 q 915 590 1007 654 q 893 567 899 579 q 887 549 888 556 q 896 531 886 542 q 907 519 906 519 q 921 508 908 518 l 1053 411 z "},"＠":{"ha":1389,"x_min":190,"x_max":1197,"o":"m 1064 933 q 1197 522 1238 775 q 1131 384 1185 440 q 1000 317 1078 328 q 951 313 975 313 q 838 310 926 313 q 724 307 750 307 q 615 321 661 307 q 506 393 553 339 q 461 524 460 447 q 531 692 463 631 q 688 758 599 754 q 834 724 764 763 q 926 628 904 686 q 944 563 946 586 q 954 534 942 543 q 983 528 967 525 q 1008 543 1000 531 q 1025 588 1019 560 q 1017 669 1031 617 q 958 767 1003 721 q 711 863 863 863 q 631 853 665 863 q 477 772 547 831 q 390 624 407 713 q 401 432 372 524 q 497 290 431 340 q 641 234 549 251 q 799 217 733 217 q 879 231 818 217 q 993 246 961 250 q 1051 206 1032 239 q 1056 124 1074 165 q 872 31 1035 67 q 754 19 817 19 q 436 90 588 19 q 235 292 301 153 q 190 600 168 431 q 285 839 208 732 q 481 1006 363 946 q 704 1050 567 1050 q 908 1019 813 1050 q 1064 933 1003 988 m 776 515 q 778 575 792 546 q 747 606 769 596 q 708 614 726 614 q 656 596 679 614 q 622 546 633 578 q 628 497 614 518 q 690 461 647 465 q 739 472 714 458 q 776 515 764 486 z "},"§":{"ha":1389,"x_min":0,"x_max":0,"o":""},"☆":{"ha":1389,"x_min":119,"x_max":1269,"o":"m 1235 539 l 1058 397 q 1046 382 1053 392 q 1031 345 1039 372 q 1029 293 1022 318 q 1090 96 1085 115 q 1097 29 1097 74 q 1070 -31 1097 -10 q 1001 -53 1043 -53 l 1000 -53 q 944 -35 968 -53 l 767 83 q 759 88 764 85 q 739 97 754 92 q 708 105 724 103 q 669 103 692 107 q 626 85 647 99 q 562 29 600 56 q 499 -8 524 3 l 474 -21 q 402 -47 446 -40 q 332 -35 358 -53 q 296 72 293 -7 q 360 296 297 101 q 368 347 376 322 q 340 392 360 372 l 321 410 l 160 531 q 119 654 96 578 q 157 701 129 682 q 211 719 185 719 q 407 725 315 719 q 485 739 457 719 q 517 781 514 758 l 519 801 l 603 1014 q 639 1061 614 1043 q 694 1079 664 1079 q 717 1071 703 1076 q 735 1063 731 1065 q 749 1056 740 1060 q 763 1049 758 1051 q 772 1040 767 1046 q 780 1028 776 1035 q 786 1014 783 1022 l 868 790 q 872 783 869 788 q 882 769 874 779 q 901 750 890 758 q 928 734 911 742 q 967 725 946 726 q 1057 718 1004 719 q 1144 718 1110 717 l 1178 719 q 1269 654 1250 710 q 1269 590 1279 624 q 1235 539 1260 557 m 882 251 l 839 383 q 861 461 822 432 l 969 547 q 973 551 971 549 q 978 559 975 553 q 983 570 982 565 q 978 578 983 575 q 958 582 972 582 q 903 581 933 579 q 850 583 874 582 l 825 586 q 761 632 778 586 l 715 757 q 701 778 715 757 q 672 760 685 794 q 653 694 667 726 q 631 647 640 663 l 621 631 q 557 586 604 586 l 428 582 q 420 577 424 581 q 413 563 417 574 q 426 542 410 553 q 466 501 442 519 q 508 475 490 482 l 525 467 q 549 389 564 436 q 527 318 543 371 q 504 244 511 265 q 512 227 501 232 q 536 231 522 222 q 576 256 546 235 q 631 294 606 276 l 654 313 q 693 324 672 324 q 732 313 717 324 q 849 235 824 254 q 883 224 876 211 q 882 251 889 236 z "},"★":{"ha":1389,"x_min":119,"x_max":1269,"o":"m 1235 539 l 1058 397 q 1046 382 1053 392 q 1031 345 1039 372 q 1029 293 1022 318 q 1090 96 1085 115 q 1097 29 1097 74 q 1070 -31 1097 -10 q 1001 -53 1043 -53 l 1000 -53 q 944 -35 968 -53 l 767 83 q 759 88 764 85 q 739 97 754 92 q 708 105 724 103 q 669 103 692 107 q 626 85 647 99 q 562 29 600 56 q 499 -8 524 3 l 474 -21 q 402 -47 446 -40 q 332 -35 358 -53 q 296 72 293 -7 q 360 296 297 101 q 368 347 376 322 q 340 392 360 372 l 321 410 l 160 531 q 119 654 96 578 q 157 701 129 682 q 211 719 185 719 q 407 725 315 719 q 485 739 457 719 q 517 781 514 758 l 519 801 l 603 1014 q 639 1061 614 1043 q 694 1079 664 1079 q 750 1061 725 1079 q 786 1014 775 1043 l 868 790 q 872 783 869 788 q 882 769 874 779 q 901 750 890 758 q 928 734 911 742 q 967 725 946 726 q 1057 718 1004 719 q 1144 718 1110 717 l 1178 719 q 1269 654 1250 710 q 1235 539 1293 583 z "},"○":{"ha":1389,"x_min":165,"x_max":1247,"o":"m 661 -60 q 469 -15 554 -53 q 332 74 385 22 q 243 198 279 126 q 190 338 207 269 q 165 485 172 407 q 198 676 157 575 q 315 859 239 776 q 506 992 390 942 q 749 1031 622 1042 q 965 967 868 1021 q 1123 834 1063 914 q 1215 659 1183 754 q 1247 464 1247 564 q 1198 268 1247 367 q 1069 94 1149 169 q 881 -24 990 19 q 661 -60 772 -68 m 1013 486 q 945 690 1013 596 q 750 801 878 783 q 499 720 615 819 q 383 500 383 621 q 460 283 383 376 q 672 172 538 189 q 851 213 769 160 q 972 341 932 265 q 1013 486 1013 417 z "},"●":{"ha":1389,"x_min":165,"x_max":1247,"o":"m 661 -60 q 469 -15 554 -53 q 332 74 385 22 q 243 198 279 126 q 190 338 207 269 q 165 485 172 407 q 198 676 157 575 q 315 859 239 776 q 506 992 390 942 q 749 1031 622 1042 q 965 967 868 1021 q 1123 834 1063 914 q 1215 659 1183 754 q 1247 464 1247 564 q 1198 268 1247 367 q 1069 94 1149 169 q 881 -24 990 19 q 661 -60 772 -68 z "},"◎":{"ha":1389,"x_min":165,"x_max":1247,"o":"m 661 -60 q 469 -15 554 -53 q 332 74 385 22 q 243 198 279 126 q 190 338 207 269 q 165 485 172 407 q 198 676 157 575 q 315 859 239 776 q 506 992 390 942 q 749 1031 622 1042 q 965 967 868 1021 q 1123 834 1063 914 q 1215 659 1183 754 q 1247 464 1247 564 q 1198 268 1247 367 q 1069 94 1149 169 q 881 -24 990 19 q 661 -60 772 -68 m 1013 486 q 945 690 1013 596 q 750 801 878 783 q 499 720 615 819 q 383 500 383 621 q 460 283 383 376 q 672 172 538 189 q 851 213 769 160 q 972 341 932 265 q 1013 486 1013 417 m 703 239 l 686 239 q 529 308 588 246 q 461 478 471 371 q 525 651 453 572 q 725 732 610 743 q 891 649 831 724 q 951 479 951 574 q 876 312 951 385 q 703 239 801 239 m 706 561 q 651 536 676 561 q 632 493 628 511 q 641 447 635 465 q 659 422 647 429 q 678 413 671 415 q 699 410 685 411 q 754 433 728 408 q 781 479 781 457 q 778 495 781 486 q 771 520 776 504 q 750 548 765 536 q 711 561 735 560 l 706 561 z "},"◇":{"ha":1389,"x_min":118,"x_max":1225,"o":"m 169 396 q 119 524 115 463 q 175 640 122 586 q 571 1029 289 761 q 806 1028 683 1138 q 933 897 844 992 q 1114 697 1021 801 q 1225 575 1207 593 q 1189 347 1319 478 q 1074 233 1168 326 q 905 65 981 140 q 803 -39 829 -11 q 697 -85 756 -87 q 583 -33 639 -83 q 374 178 533 11 q 169 396 214 344 m 650 164 q 692 141 676 142 q 726 160 708 140 q 1024 449 915 349 q 1025 524 1061 486 q 882 680 1006 543 q 751 824 758 817 q 699 857 717 858 q 685 850 692 856 q 526 701 668 835 q 363 546 385 568 q 342 503 340 525 q 375 450 344 481 q 447 374 383 442 q 572 242 510 307 q 650 164 635 176 z "},"◆":{"ha":1389,"x_min":118,"x_max":1225,"o":"m 169 396 q 119 524 115 463 q 175 640 122 586 q 571 1029 289 761 q 806 1028 683 1138 q 933 897 844 992 q 1114 697 1021 801 q 1225 575 1207 593 q 1189 347 1319 478 q 1074 233 1168 326 q 905 65 981 140 q 803 -39 829 -11 q 697 -85 756 -87 q 583 -33 639 -83 q 374 178 533 11 q 169 396 214 344 z "},"□":{"ha":1389,"x_min":186,"x_max":1208,"o":"m 189 849 q 249 990 194 942 q 390 1040 304 1038 q 1019 1035 564 1044 q 1208 844 1201 1031 q 1199 128 1214 708 q 985 -26 1194 -26 l 365 -26 q 244 22 290 -28 q 193 154 197 71 q 187 509 189 240 q 189 849 185 778 m 396 251 q 413 198 401 211 q 457 185 425 185 q 704 181 479 185 q 942 178 929 178 q 986 181 968 164 q 1004 239 1004 197 q 1007 493 1004 269 q 1010 732 1010 717 q 1009 768 1010 757 q 1001 793 1008 779 q 976 808 993 807 q 733 813 953 810 q 464 817 513 817 q 410 798 426 817 q 394 729 394 779 q 396 251 394 265 z "},"■":{"ha":1389,"x_min":186,"x_max":1208,"o":"m 189 849 q 249 990 194 942 q 390 1040 304 1038 q 1019 1035 564 1044 q 1208 844 1201 1031 q 1199 128 1214 708 q 985 -26 1194 -26 l 365 -26 q 244 22 290 -28 q 193 154 197 71 q 187 509 189 240 q 189 849 185 778 z "},"△":{"ha":1389,"x_min":83,"x_max":1307,"o":"m 228 -11 q 131 14 169 -11 q 84 88 92 39 q 119 210 76 136 q 201 355 128 224 q 347 614 275 486 q 495 864 419 742 q 599 1013 571 986 q 718 1054 644 1060 q 840 985 792 1049 q 972 767 876 936 q 1167 413 1067 599 q 1282 200 1267 226 q 1306 56 1329 122 q 1201 -11 1283 -11 q 949 -17 1158 -17 q 491 -14 740 -17 q 228 -11 242 -11 m 1056 165 q 1072 235 1115 165 q 917 517 1064 249 q 757 799 769 786 q 682 810 714 839 q 590 667 671 801 q 422 389 508 533 q 331 236 336 244 q 357 168 283 168 q 1056 165 376 165 z "},"▲":{"ha":1389,"x_min":83,"x_max":1307,"o":"m 228 -11 q 131 14 169 -11 q 84 88 92 39 q 119 210 76 136 q 201 355 128 224 q 347 614 275 486 q 495 864 419 742 q 599 1013 571 986 q 718 1054 644 1060 q 840 985 792 1049 q 972 767 876 936 q 1167 413 1067 599 q 1282 200 1267 226 q 1306 56 1329 122 q 1201 -11 1283 -11 l 228 -11 z "},"▽":{"ha":1389,"x_min":103,"x_max":1326,"o":"m 1182 1047 q 1279 1022 1240 1047 q 1326 949 1318 997 q 1290 826 1333 900 q 1208 681 1282 813 q 1063 423 1135 550 q 915 173 990 296 q 811 24 839 50 q 692 -18 765 -24 q 569 51 618 -12 q 439 267 533 100 q 242 625 344 435 q 128 838 140 815 q 103 981 81 914 q 208 1047 126 1047 l 1182 1047 m 354 871 q 338 801 294 871 q 423 648 347 786 q 571 379 499 510 q 653 239 643 249 q 728 226 693 199 q 820 369 739 235 q 988 647 901 503 q 1079 800 1074 792 q 1053 869 1126 869 q 936 863 1043 864 q 710 865 829 863 q 475 869 590 867 q 354 871 360 871 z "},"▼":{"ha":1389,"x_min":103,"x_max":1326,"o":"m 1182 1047 q 1279 1022 1240 1047 q 1326 949 1318 997 q 1290 826 1333 900 q 1208 681 1282 813 q 1063 423 1135 550 q 915 173 990 296 q 811 24 839 50 q 692 -18 765 -24 q 569 51 618 -12 q 439 267 533 100 q 242 625 344 435 q 128 838 140 815 q 103 981 81 914 q 208 1047 126 1047 l 1182 1047 z "},"※":{"ha":1389,"x_min":192,"x_max":1197,"o":"m 385 621 q 416 544 415 590 q 382 464 417 497 q 224 465 306 399 q 192 550 192 492 q 235 638 192 608 q 385 621 315 693 m 625 860 q 597 940 594 883 q 636 1032 600 997 q 786 1015 717 1088 q 817 938 817 985 q 783 858 818 892 q 625 860 707 793 m 628 251 q 715 272 676 279 q 778 235 754 265 q 809 158 808 204 q 775 78 810 111 q 617 79 699 13 q 585 164 585 106 q 628 251 585 222 m 1165 622 q 1197 545 1196 592 q 1163 465 1197 499 q 1004 467 1086 400 q 972 551 972 493 q 1015 639 972 610 q 1165 622 1096 694 m 876 604 q 879 496 825 550 q 1024 346 1013 360 q 1033 214 1090 271 q 963 190 1006 186 q 888 225 921 193 l 814 299 l 747 365 q 699 385 729 382 q 638 367 668 389 q 510 242 538 267 q 383 225 435 174 q 355 294 353 254 q 389 371 357 333 q 406 389 393 375 q 445 429 419 403 q 489 474 471 456 l 513 497 q 533 539 529 513 q 510 600 536 565 q 374 739 382 728 q 343 878 301 822 q 414 914 371 914 q 494 881 457 914 q 649 729 525 856 q 701 711 671 710 q 743 725 731 713 q 793 774 763 743 l 857 838 q 905 878 883 864 q 955 892 926 892 q 1010 869 983 893 q 1035 819 1033 847 q 975 706 1038 776 q 936 667 972 703 q 876 604 900 631 z "},"〒":{"ha":1389,"x_min":210,"x_max":1174,"o":"m 368 776 q 266 801 306 782 q 219 872 226 821 q 243 958 213 922 q 350 1007 281 1003 q 699 1011 407 1011 q 1046 1007 992 1011 q 1169 901 1169 1000 q 1129 817 1169 851 q 1031 782 1089 782 q 987 781 1029 782 q 893 781 944 781 q 444 775 582 775 q 368 776 378 775 m 1010 697 q 1126 676 1083 697 q 1174 592 1169 656 q 1153 526 1176 551 q 999 478 1117 483 q 874 476 940 475 q 815 453 832 476 q 797 404 797 431 q 797 294 797 368 q 796 190 796 221 l 796 106 q 772 12 796 54 q 708 -35 747 -31 l 697 -35 q 623 -8 656 -35 q 589 72 590 18 q 586 403 586 122 q 570 452 586 429 q 515 476 554 475 q 403 479 464 479 q 338 479 343 479 q 210 575 210 486 q 246 662 210 628 q 343 700 282 696 q 492 701 361 701 q 932 699 682 701 q 989 697 967 699 l 1010 697 z "},"→":{"ha":1389,"x_min":172,"x_max":1217,"o":"m 865 218 q 806 209 833 200 q 779 251 779 218 q 779 264 779 254 q 779 285 779 274 q 779 310 779 297 q 719 376 781 376 q 500 376 581 381 q 385 375 446 371 q 304 378 325 379 q 244 377 272 378 q 194 395 215 376 q 172 454 172 414 q 285 539 174 539 q 654 540 608 539 q 713 542 671 542 q 779 600 781 542 l 779 651 q 802 704 779 689 q 869 696 825 719 q 1199 499 1178 522 q 1216 449 1218 479 q 1188 400 1214 419 q 1015 301 1161 381 q 865 218 869 221 z "},"←":{"ha":1389,"x_min":172,"x_max":1217,"o":"m 524 699 q 583 708 556 717 q 610 665 610 699 l 610 607 q 669 540 608 540 q 889 540 808 536 q 1003 542 943 546 q 1085 539 1064 538 q 1185 526 1144 542 q 1217 463 1226 510 q 1104 378 1215 378 q 735 376 781 378 q 676 375 718 375 q 610 317 608 375 l 610 265 q 587 213 610 228 q 519 221 564 197 q 190 418 211 394 q 173 467 171 438 q 201 517 175 497 q 374 616 228 536 q 524 699 519 696 z "},"↑":{"ha":1389,"x_min":449,"x_max":944,"o":"m 935 685 q 944 625 953 653 q 901 597 935 597 l 843 597 q 776 539 776 600 q 776 319 772 400 q 778 205 782 265 q 775 124 774 144 q 774 61 776 86 q 752 14 771 36 q 699 -8 733 -8 q 614 104 614 -7 q 613 474 614 428 q 611 532 611 490 q 608 559 611 546 q 590 585 604 572 q 553 597 576 599 l 501 597 q 449 621 464 597 q 457 689 433 644 q 654 1018 629 994 q 703 1035 674 1038 q 753 1007 733 1033 q 852 835 772 981 q 935 685 932 689 z "},"↓":{"ha":1389,"x_min":444,"x_max":940,"o":"m 454 308 q 445 367 436 340 q 488 394 454 394 l 546 394 q 613 454 613 393 q 613 674 618 613 q 611 788 607 728 q 614 869 615 849 q 613 921 611 892 q 620 976 615 950 q 643 1019 625 1001 q 690 1036 661 1036 q 739 1022 719 1036 q 765 979 758 1007 q 774 934 772 951 q 775 889 775 917 q 776 519 775 567 q 778 461 778 503 q 836 394 778 393 q 858 394 847 394 q 877 394 868 394 q 888 394 886 394 q 940 372 925 394 q 932 304 956 349 q 735 -25 758 -4 q 685 -42 715 -44 q 636 -14 656 -40 q 537 158 617 13 q 454 308 457 304 z "},"〓":{"ha":1389,"x_min":285,"x_max":1093,"o":"m 906 853 q 1081 703 1081 843 q 1024 585 1081 633 q 886 536 968 536 q 856 535 879 536 q 763 533 832 535 q 651 529 651 531 l 582 526 q 525 528 547 526 l 503 528 q 407 543 446 533 q 334 583 368 553 q 293 664 300 614 q 325 783 285 732 q 478 853 379 849 l 493 856 l 599 858 q 640 858 617 858 q 906 853 840 858 m 864 381 q 948 376 913 381 q 1018 356 983 371 q 1072 310 1053 340 q 1093 232 1090 279 q 1064 139 1097 176 q 846 72 1013 81 q 719 68 764 68 q 467 74 592 68 q 324 118 363 78 q 285 208 285 158 q 337 330 285 282 q 475 383 389 378 q 654 386 522 386 l 733 385 q 736 383 717 383 q 794 382 754 382 q 853 381 843 382 q 864 381 863 381 z "},"∈":{"ha":1389,"x_min":218,"x_max":1199,"o":"m 1092 250 q 1169 226 1139 250 q 1199 158 1199 201 q 1167 94 1199 118 q 1081 71 1136 71 q 549 81 644 71 q 446 106 496 85 q 345 169 396 126 q 260 288 294 211 q 218 469 226 365 q 326 772 218 664 q 593 889 435 879 q 1079 900 758 900 q 1167 874 1135 900 q 1199 800 1199 847 l 1199 797 q 1078 711 1197 711 q 1013 714 1068 711 q 596 700 657 724 q 471 633 508 665 q 451 594 451 615 q 489 568 450 574 q 561 568 521 568 q 642 568 601 568 q 692 568 682 568 q 1093 558 860 568 q 1173 533 1151 556 q 1194 482 1194 510 q 1166 413 1194 440 q 1089 383 1138 386 l 1039 383 q 946 382 988 382 q 737 388 910 382 q 497 392 564 394 q 448 364 454 390 q 460 324 442 338 q 604 258 514 269 q 1015 249 700 244 q 1092 250 1050 250 z "},"∋":{"ha":1389,"x_min":192,"x_max":1172,"o":"m 297 261 q 374 260 340 261 q 786 269 690 256 q 929 335 876 281 q 942 360 939 344 q 934 388 946 375 q 892 403 922 401 q 653 399 826 406 q 443 393 481 393 q 353 394 403 393 l 301 394 q 224 425 253 399 q 196 493 196 451 q 297 569 196 565 q 697 579 531 579 q 748 579 707 579 q 829 579 789 579 q 901 579 869 579 q 940 606 940 585 q 919 644 939 628 q 794 711 885 676 q 376 725 721 740 q 313 724 349 724 q 192 808 193 724 l 192 811 q 224 885 192 858 q 311 911 256 911 q 797 900 632 911 q 938 867 872 896 q 1057 789 1004 839 q 1141 660 1110 739 q 1172 481 1172 581 q 1147 304 1179 382 q 1060 184 1115 226 q 949 119 1004 142 q 840 92 893 96 q 310 82 744 82 q 223 106 254 82 q 192 169 192 129 q 221 237 192 213 q 297 261 250 261 z "},"⊆":{"ha":1389,"x_min":213,"x_max":1168,"o":"m 1063 438 q 1140 414 1111 438 q 1168 351 1168 390 q 1137 292 1168 314 q 1053 269 1106 269 q 513 276 589 269 q 441 290 478 279 q 363 326 404 301 q 288 387 321 351 q 234 479 256 422 q 213 604 213 536 q 243 761 213 692 q 324 871 274 831 q 431 933 374 911 q 551 958 489 954 q 1051 967 685 967 q 1137 942 1106 967 q 1168 874 1168 917 l 1168 871 q 1050 790 1165 790 q 999 792 1021 790 l 993 792 q 803 794 915 794 q 558 781 589 794 l 550 778 q 501 758 521 768 q 455 730 482 749 q 413 681 428 711 q 399 611 399 651 q 416 530 399 564 q 463 479 433 496 q 515 455 492 463 q 563 444 539 447 q 931 436 640 436 q 967 437 944 436 q 996 438 989 438 l 1001 438 l 1063 438 m 1040 192 q 1132 175 1099 192 q 1168 108 1165 158 q 1151 56 1171 76 q 1031 18 1124 24 q 735 17 1001 17 q 333 26 567 17 q 232 103 232 31 q 261 171 232 144 q 339 200 290 197 q 481 201 351 201 q 721 197 542 201 q 951 193 900 193 q 1010 192 979 193 l 1040 192 z "},"⊇":{"ha":1389,"x_min":226,"x_max":1183,"o":"m 844 958 q 965 933 907 954 q 1072 871 1022 911 q 1153 761 1122 831 q 1183 604 1183 692 q 1162 479 1183 536 q 1108 387 1140 422 q 1033 326 1075 351 q 955 290 992 301 q 883 276 918 279 q 343 269 807 269 q 259 292 290 269 q 228 351 228 314 q 256 414 228 390 q 333 438 285 438 l 394 438 l 400 438 q 428 437 406 438 q 465 436 450 436 q 833 444 756 436 q 881 455 857 447 q 933 480 904 463 q 979 531 961 497 q 997 611 997 565 q 983 681 997 651 q 941 730 968 711 q 894 758 914 749 q 846 778 875 768 l 838 781 q 593 794 803 794 q 403 792 481 794 l 397 792 q 346 790 375 790 q 228 871 231 790 l 228 874 q 259 942 228 917 q 344 967 290 967 q 844 958 711 967 m 1035 199 q 1126 182 1093 199 q 1163 115 1160 165 q 1146 63 1165 83 q 1025 25 1118 31 q 750 17 850 17 q 328 19 397 17 q 226 96 226 24 q 333 186 226 179 q 475 188 346 188 q 715 194 536 188 q 946 200 894 200 q 1004 200 974 200 l 1035 199 z "},"⊂":{"ha":1389,"x_min":218,"x_max":1199,"o":"m 1199 158 q 1167 94 1199 118 q 1081 71 1136 71 q 549 81 644 71 q 446 106 496 85 q 345 169 396 126 q 260 288 294 211 q 218 469 226 365 q 326 772 218 664 q 593 889 435 879 q 1079 900 758 900 q 1167 874 1135 900 q 1199 800 1199 847 l 1199 797 q 1078 711 1197 711 q 1013 714 1068 711 q 596 700 657 724 q 552 683 567 689 q 506 657 538 676 q 458 616 475 638 q 424 558 440 594 q 403 476 407 521 q 463 320 403 371 q 604 258 524 269 q 1015 249 700 244 q 1092 250 1050 250 q 1169 226 1139 250 q 1199 158 1199 201 z "},"⊃":{"ha":1389,"x_min":190,"x_max":1171,"o":"m 190 158 q 220 226 190 201 q 297 250 250 250 q 372 249 339 250 q 785 258 689 244 q 926 320 865 269 q 986 476 986 371 q 974 554 988 518 q 944 610 960 590 q 895 651 929 631 q 849 677 861 672 q 803 696 838 682 q 793 700 796 699 q 376 714 732 724 q 311 711 321 711 q 190 797 192 711 l 190 800 q 222 874 190 847 q 310 900 254 900 q 796 889 631 900 q 1063 772 954 879 q 1171 469 1171 664 q 1156 319 1176 386 q 1099 210 1135 251 q 1016 139 1064 168 q 925 97 968 110 q 840 81 882 85 q 308 71 744 71 q 222 94 253 71 q 190 158 190 118 z "},"∪":{"ha":1389,"x_min":293,"x_max":1122,"o":"m 1036 976 q 1100 945 1076 976 q 1122 858 1124 914 q 1114 326 1122 428 q 1097 243 1110 286 q 1053 154 1083 200 q 981 73 1024 108 q 872 16 939 38 q 725 -4 806 -6 q 423 104 531 -4 q 304 371 315 213 q 293 857 293 536 q 319 944 293 913 q 393 976 346 976 l 397 976 q 462 945 442 975 q 482 854 482 915 q 481 790 482 818 q 493 374 465 447 q 521 313 508 338 q 561 250 533 289 q 629 193 589 211 q 718 181 669 175 q 874 240 824 181 q 936 381 925 300 q 946 793 950 493 q 944 869 944 828 q 969 947 944 917 q 1036 976 993 976 z "},"∩":{"ha":1389,"x_min":265,"x_max":1096,"o":"m 1008 -4 q 941 25 965 -4 q 917 101 917 54 q 918 178 917 144 q 908 590 922 478 q 847 731 897 671 q 690 790 796 790 q 597 774 638 790 q 531 721 557 757 q 496 666 506 685 q 471 608 486 647 q 467 599 468 601 q 453 181 438 525 q 454 117 454 153 q 369 -4 454 -3 l 365 -4 q 292 28 318 -4 q 265 115 265 60 q 276 601 265 436 q 395 868 288 760 q 697 976 503 976 q 871 943 794 976 q 991 857 947 910 q 1058 750 1035 804 q 1086 644 1082 696 q 1096 114 1096 525 q 1072 27 1096 58 q 1008 -4 1049 -4 z "},"∧":{"ha":1389,"x_min":246,"x_max":1138,"o":"m 946 154 q 735 708 801 544 q 706 735 725 735 q 675 708 686 735 q 594 513 651 653 q 493 266 538 372 q 435 133 449 160 q 380 60 406 79 q 321 42 354 42 l 319 42 q 267 65 288 42 q 246 117 246 88 q 283 208 246 129 q 329 343 321 288 q 472 688 367 440 q 599 963 576 935 q 718 1014 646 1022 q 807 969 767 1008 q 851 897 847 931 q 965 630 871 864 q 1079 333 1060 396 q 1093 294 1083 321 q 1106 256 1103 267 q 1118 219 1110 244 q 1128 185 1126 194 q 1134 153 1129 176 q 1137 124 1139 131 q 1135 97 1135 118 q 1099 48 1128 60 q 1035 43 1069 36 q 946 154 982 53 z "},"∨":{"ha":1389,"x_min":264,"x_max":1157,"o":"m 456 903 q 667 349 600 513 q 697 322 678 322 q 726 347 717 321 q 807 542 749 399 q 909 791 865 686 q 967 922 953 896 q 1022 997 996 978 q 1082 1015 1047 1015 l 1083 1015 q 1135 992 1114 1015 q 1157 940 1157 968 q 1131 840 1157 913 q 1072 713 1104 767 q 926 359 1026 597 q 803 93 825 121 q 683 42 754 33 q 608 74 636 47 q 550 158 581 101 q 437 427 531 193 q 322 724 343 661 q 308 763 318 736 q 294 801 299 790 q 283 838 290 813 q 274 871 275 863 q 267 902 272 879 q 265 931 263 925 q 267 958 267 938 q 303 1008 274 996 q 367 1014 333 1021 q 456 903 419 1006 z "},"￢":{"ha":1389,"x_min":93,"x_max":1215,"o":"m 946 597 l 181 597 q 116 630 139 597 q 93 700 93 663 q 113 761 93 735 q 176 792 133 788 q 428 793 253 794 q 842 788 603 792 q 1093 785 1082 785 q 1178 745 1140 785 q 1215 647 1215 706 q 1208 308 1215 365 q 1175 250 1203 271 q 1114 229 1147 229 q 1060 260 1085 229 q 1035 344 1036 292 q 1032 431 1033 371 q 1031 511 1031 490 q 1006 573 1029 549 q 946 597 983 597 z "},"⇒":{"ha":1389,"x_min":0,"x_max":0,"o":""},"⇔":{"ha":1389,"x_min":0,"x_max":0,"o":""},"∀":{"ha":1389,"x_min":178,"x_max":1217,"o":"m 1156 1026 q 1217 981 1199 1018 q 1217 885 1235 943 q 1056 546 1201 844 q 897 210 911 247 q 878 162 892 197 q 856 108 865 126 q 833 63 847 89 q 805 20 819 36 q 774 -3 790 4 q 668 -10 731 -22 q 583 39 606 1 q 475 265 569 63 q 281 686 381 468 q 178 910 181 904 q 178 978 160 946 q 231 1028 196 1011 q 299 1031 260 1046 q 364 971 339 1017 q 429 836 382 936 q 543 765 469 744 q 683 764 582 765 q 838 763 783 763 q 869 764 854 763 q 895 769 883 765 q 916 777 907 774 q 933 788 925 781 q 945 799 940 796 q 956 811 950 803 q 963 822 961 819 q 968 833 964 825 l 972 843 q 1035 967 1019 942 q 1091 1023 1067 1010 q 1156 1026 1115 1036 m 672 315 q 703 293 688 292 q 725 311 718 294 q 810 499 793 461 q 815 510 811 501 q 821 522 819 518 q 823 532 822 525 q 820 543 824 539 q 808 553 817 547 q 788 565 800 560 q 699 563 772 567 q 611 567 626 558 q 583 507 558 565 q 672 315 649 369 z "},"∃":{"ha":1389,"x_min":322,"x_max":1049,"o":"m 1049 892 q 1047 256 1053 829 q 1046 136 1046 197 q 943 25 1046 26 q 882 24 931 24 q 400 29 489 24 q 342 58 363 31 q 322 121 322 85 q 345 183 322 161 q 410 207 368 206 q 554 208 435 208 l 810 208 l 831 208 q 854 236 853 208 q 856 333 856 240 q 797 413 856 413 q 574 415 717 413 q 431 418 432 418 q 388 438 407 418 q 363 507 360 465 q 387 562 365 538 q 440 588 408 586 q 490 589 447 589 q 623 588 513 589 q 792 586 733 586 q 858 656 858 588 l 858 775 q 819 800 858 800 q 410 803 457 800 q 356 833 375 804 q 338 893 338 861 q 359 951 338 921 q 413 982 381 981 q 944 986 533 986 q 1049 892 1046 986 z "},"∠":{"ha":1389,"x_min":0,"x_max":0,"o":""},"⊥":{"ha":1389,"x_min":0,"x_max":0,"o":""},"͡":{"ha":1389,"x_min":126,"x_max":1297,"o":"m 1119 782 q 1044 835 1090 808 q 902 893 997 863 q 706 928 807 924 q 584 921 643 931 q 474 890 525 911 q 390 851 422 868 q 316 808 357 835 q 267 778 275 782 q 126 768 171 721 q 135 901 72 829 q 199 960 160 929 q 306 1027 239 990 q 474 1087 374 1064 q 688 1108 574 1110 q 892 1085 794 1107 q 1060 1027 990 1063 q 1174 962 1129 992 q 1247 903 1218 932 q 1297 815 1293 857 q 1265 746 1300 772 q 1202 735 1242 725 q 1119 782 1163 744 z "},"∂":{"ha":1389,"x_min":0,"x_max":0,"o":""},"∇":{"ha":1389,"x_min":244,"x_max":1150,"o":"m 1017 1040 q 1090 1033 1063 1040 q 1135 1007 1118 1026 q 1150 950 1153 988 q 1125 854 1147 913 q 944 414 1065 694 q 757 24 824 133 q 705 -19 738 -8 q 639 -14 672 -31 q 585 44 606 3 q 417 450 528 164 q 261 864 306 736 q 245 995 228 950 q 342 1040 263 1040 l 1017 1040 m 908 782 q 917 810 915 799 q 919 830 918 822 q 912 843 919 838 q 901 850 904 849 q 882 856 897 851 q 860 864 867 861 l 501 864 q 458 844 465 864 q 465 786 451 824 q 553 559 486 728 q 646 336 619 390 q 684 306 660 308 q 722 328 708 304 q 908 782 757 383 z "},"≡":{"ha":1389,"x_min":207,"x_max":1167,"o":"m 1026 250 q 1058 249 1046 250 q 1093 244 1071 249 q 1128 232 1115 240 q 1153 207 1142 224 q 1167 167 1165 190 q 1146 111 1168 133 q 1018 76 1115 82 q 721 75 985 75 q 643 76 685 75 q 564 77 601 76 q 490 78 526 78 q 423 80 453 79 q 369 81 393 81 q 333 83 346 82 l 319 83 q 207 161 207 88 q 239 228 207 201 q 324 257 271 254 l 467 257 q 740 253 589 257 q 938 250 896 250 l 954 250 l 1026 250 m 1026 572 q 1058 572 1046 572 q 1093 567 1071 571 q 1128 554 1115 563 q 1153 529 1142 546 q 1167 489 1165 513 q 1146 435 1169 456 q 1018 400 1113 403 q 721 399 985 399 q 643 399 685 399 q 564 401 601 400 q 490 402 526 401 q 423 403 453 403 q 369 405 393 404 q 333 406 346 406 l 319 407 q 207 483 207 410 q 239 550 207 524 q 324 579 271 576 q 467 581 336 581 q 608 578 506 581 q 740 576 710 576 q 938 574 896 574 l 954 572 l 1026 572 m 1026 896 q 1058 895 1046 896 q 1093 890 1071 894 q 1128 878 1115 886 q 1153 853 1142 869 q 1167 813 1165 836 q 1146 758 1169 779 q 1018 722 1115 728 q 721 721 985 721 q 643 722 685 721 q 564 723 601 722 q 490 724 526 724 q 423 726 453 725 q 369 727 393 726 q 333 728 346 728 l 319 729 q 207 807 207 733 q 239 874 207 847 q 324 903 271 900 q 347 903 326 903 q 401 903 368 903 q 467 904 433 904 q 608 902 506 904 q 740 900 710 900 q 938 896 857 896 l 954 896 l 1026 896 z "},"≒":{"ha":1389,"x_min":250,"x_max":1138,"o":"m 432 829 q 353 866 379 833 q 322 942 326 899 q 358 1022 318 982 q 450 1053 399 1063 q 543 936 543 1036 q 510 860 543 894 q 432 829 476 826 m 954 -40 q 875 -3 901 -36 q 844 72 849 29 q 882 153 842 113 q 972 183 922 193 q 1065 67 1065 165 q 1032 -9 1065 25 q 954 -40 999 -43 m 1008 739 q 1101 722 1067 739 q 1138 656 1135 706 q 1121 603 1140 624 q 1000 565 1092 571 q 772 564 969 564 q 351 567 418 564 q 250 643 250 571 q 278 711 250 685 q 356 740 307 738 q 497 742 369 742 q 713 741 558 742 q 919 740 868 740 q 978 739 947 740 l 1008 739 m 1008 447 q 1101 431 1067 447 q 1138 364 1135 414 q 1121 311 1140 332 q 1000 274 1090 279 q 772 272 969 272 q 351 275 418 272 q 250 351 250 279 q 278 419 250 393 q 356 450 307 446 l 497 450 q 919 449 814 450 q 978 447 947 449 l 1008 447 z "},"≪":{"ha":1389,"x_min":144,"x_max":1183,"o":"m 863 990 q 328 588 472 707 q 275 535 281 549 q 281 503 268 518 q 597 256 325 454 q 885 33 869 57 q 878 -43 914 -14 q 796 -35 842 -72 q 654 71 778 -21 q 396 265 531 163 q 199 424 261 368 q 153 483 168 451 q 144 551 138 514 q 189 618 151 588 q 333 733 249 668 q 495 857 417 799 q 642 966 574 915 q 756 1049 711 1017 q 801 1082 800 1081 q 864 1094 832 1107 q 897 1052 896 1082 q 863 990 899 1022 m 1149 990 q 615 588 758 707 q 561 533 567 549 q 567 503 554 518 q 883 256 611 454 q 1171 33 1156 57 q 1164 -43 1200 -14 q 1082 -35 1128 -72 q 940 71 1064 -21 q 682 265 817 163 q 485 424 547 368 q 439 483 454 451 q 431 551 424 514 q 475 618 438 588 q 619 733 535 668 q 781 857 703 799 q 928 966 860 915 q 1042 1049 997 1017 q 1088 1082 1086 1081 q 1150 1094 1118 1107 q 1183 1052 1182 1082 q 1149 990 1185 1022 z "},"≫":{"ha":1389,"x_min":207,"x_max":1249,"o":"m 529 990 q 495 1052 492 1018 q 528 1094 499 1086 q 590 1082 558 1103 q 1204 618 988 799 q 1248 551 1240 588 q 1240 483 1256 514 q 1194 424 1225 451 q 997 265 1132 368 q 739 71 863 163 q 597 -35 615 -21 q 515 -43 551 -72 q 508 33 479 -14 q 794 256 522 58 q 1111 503 1067 454 q 1117 512 1115 507 q 1119 522 1119 517 q 1119 531 1119 526 q 1114 540 1118 535 q 1107 549 1110 546 q 1098 558 1104 553 q 1088 567 1092 564 q 1076 578 1083 571 q 1064 588 1068 585 q 529 990 914 713 m 243 990 q 208 1052 204 1018 q 242 1094 211 1086 q 304 1082 272 1103 q 350 1049 306 1081 q 463 966 394 1017 q 610 857 532 915 q 774 733 689 799 q 918 618 858 668 q 962 551 954 588 q 954 483 969 514 q 908 424 939 451 q 711 265 846 368 q 453 71 576 163 q 311 -35 329 -21 q 229 -43 265 -72 q 222 33 193 -14 q 508 256 236 58 q 825 503 781 454 q 831 512 829 507 q 833 522 833 517 q 833 531 833 526 q 828 540 832 535 q 821 549 824 546 q 812 558 818 553 q 801 567 806 564 q 790 578 797 571 q 778 588 782 585 q 243 990 628 713 z "},"√":{"ha":1389,"x_min":0,"x_max":0,"o":""},"∽":{"ha":1389,"x_min":0,"x_max":0,"o":""},"∝":{"ha":1389,"x_min":0,"x_max":0,"o":""},"∵":{"ha":1389,"x_min":200,"x_max":1189,"o":"m 694 285 q 774 249 747 281 q 806 174 800 217 q 768 92 808 132 q 678 61 728 51 q 609 103 635 69 q 583 178 583 136 q 616 254 583 221 q 694 285 649 288 m 1079 983 q 1158 947 1131 979 q 1189 871 1185 914 q 1151 790 1192 831 q 1061 758 1111 750 q 968 875 968 776 q 1001 952 968 918 q 1079 983 1033 986 m 311 983 q 390 947 364 979 q 421 871 417 914 q 384 790 424 831 q 293 758 344 750 q 200 875 200 776 q 233 952 200 918 q 311 983 265 986 z "},"∫":{"ha":1389,"x_min":0,"x_max":0,"o":""},"∬":{"ha":1389,"x_min":0,"x_max":0,"o":""},"Å":{"ha":1389,"x_min":0,"x_max":0,"o":""},"‰":{"ha":1389,"x_min":0,"x_max":0,"o":""},"♯":{"ha":1389,"x_min":179,"x_max":1188,"o":"m 1019 533 q 1072 457 1008 464 l 1075 457 q 1134 421 1111 449 q 1160 356 1157 393 q 1133 277 1164 311 q 1036 235 1103 243 q 1012 228 1026 233 q 980 208 997 224 q 960 169 963 192 q 939 67 954 111 q 900 1 925 18 q 833 -17 875 -17 q 765 13 792 -17 q 742 103 738 43 q 746 142 742 114 q 738 179 749 160 q 700 196 728 199 q 639 188 678 193 q 586 182 600 183 q 543 160 558 179 q 525 122 528 140 q 522 110 524 117 q 519 98 519 103 q 517 90 518 93 q 406 -14 485 -14 q 335 23 363 -14 q 311 124 308 60 q 269 160 313 151 q 206 193 229 168 q 179 251 182 218 q 212 332 174 294 q 314 378 250 369 q 327 384 319 379 q 346 406 335 389 q 364 450 357 424 q 375 510 368 471 q 383 561 382 550 q 372 613 390 597 q 335 631 353 629 q 228 721 244 638 q 254 810 218 767 q 350 858 290 853 q 450 926 435 867 q 467 990 458 967 q 489 1038 475 1014 q 526 1071 503 1061 q 582 1076 550 1081 q 649 1032 629 1071 q 665 940 669 993 q 665 925 665 935 q 675 906 664 915 q 708 900 686 897 q 774 908 729 903 q 843 915 819 913 q 882 968 872 918 q 931 1044 896 1022 q 1003 1058 965 1065 q 1057 1031 1033 1051 q 1082 979 1081 1010 q 1089 949 1083 961 q 1100 933 1094 938 q 1115 925 1106 929 q 1126 921 1125 921 q 1171 879 1154 906 q 1188 828 1188 853 q 1158 754 1188 790 q 1076 710 1128 718 q 1039 653 1047 704 q 1019 533 1033 614 m 585 465 q 592 429 582 446 q 632 415 601 413 q 667 419 644 417 q 709 423 690 421 q 744 428 728 425 q 761 432 754 429 q 774 438 768 435 q 783 445 779 440 q 790 453 788 450 q 795 462 793 456 q 798 470 797 468 q 800 478 799 472 l 801 485 q 813 554 806 508 q 824 622 821 600 q 817 659 826 642 q 785 675 808 676 q 678 663 776 675 q 635 640 658 660 q 606 588 613 621 q 585 465 603 578 z "},"♭":{"ha":1389,"x_min":403,"x_max":1053,"o":"m 404 892 q 442 983 401 951 q 533 1011 483 1015 q 602 967 576 1006 q 628 885 628 929 q 631 725 628 833 q 650 681 631 697 q 701 665 669 665 q 975 561 890 665 q 1052 331 1057 457 q 967 115 1047 204 q 625 -17 843 -22 q 489 -3 517 -12 q 411 125 419 22 q 403 527 403 165 q 404 892 404 889 m 611 238 q 666 189 613 196 q 764 208 719 182 q 834 288 813 233 q 833 389 856 343 q 802 429 819 414 q 762 450 785 444 q 724 457 739 456 q 682 458 708 458 q 624 440 642 458 q 607 383 607 422 q 611 238 607 290 z "},"♪":{"ha":1389,"x_min":292,"x_max":1128,"o":"m 971 794 q 1092 642 1054 731 q 1127 485 1129 553 q 1104 369 1125 418 q 1065 330 1090 336 q 1018 344 1039 324 q 1001 399 1006 357 q 983 497 997 442 q 933 590 969 551 q 846 671 888 640 q 819 676 835 683 q 804 635 803 668 q 806 585 804 597 q 799 213 811 244 q 719 44 792 124 q 575 -49 664 -17 q 417 -61 486 -82 q 314 19 353 -43 q 292 154 275 82 q 494 358 321 288 q 603 378 544 381 q 626 378 618 378 q 645 394 633 379 q 657 439 657 410 l 657 722 q 660 929 660 924 q 726 1047 650 1047 q 796 1007 767 1046 q 800 985 811 986 q 860 901 807 964 q 971 794 913 839 z "},"†":{"ha":1389,"x_min":381,"x_max":1013,"o":"m 883 890 q 947 884 924 889 q 990 860 969 879 q 1013 807 1011 842 q 996 754 1015 775 q 875 717 967 722 q 844 711 860 715 q 810 688 829 707 q 790 636 790 668 q 785 79 790 135 q 700 -19 779 -19 q 633 12 660 -19 q 606 90 606 43 l 606 192 q 603 638 601 471 q 581 695 604 675 q 539 715 557 715 q 506 716 524 715 q 483 717 489 717 q 418 733 443 718 q 387 762 393 747 q 381 793 381 776 q 410 862 381 835 q 488 892 439 889 q 495 892 489 892 q 509 893 501 893 q 528 893 517 893 q 566 899 550 892 q 589 917 582 906 q 601 941 596 928 q 604 965 606 954 q 604 979 603 975 l 604 982 q 681 1099 613 1090 q 756 1075 725 1104 q 789 996 786 1046 l 789 976 q 789 966 789 975 q 790 951 789 957 q 794 936 792 946 q 803 919 796 926 q 819 906 810 913 q 846 895 829 899 q 883 890 863 892 z "},"‡":{"ha":1389,"x_min":382,"x_max":1013,"o":"m 883 375 q 1013 290 1008 375 q 996 239 1014 260 q 875 200 965 206 l 846 200 q 788 143 785 200 q 785 79 788 93 q 700 -19 779 -19 q 633 12 660 -19 q 606 90 606 43 l 606 136 q 587 184 604 169 q 553 200 569 199 q 511 201 532 200 q 483 201 490 201 q 382 278 382 206 q 410 347 382 319 q 488 376 439 374 l 547 376 q 590 398 576 376 q 604 442 604 419 q 603 654 604 619 q 581 700 601 685 q 544 715 561 715 q 508 716 526 715 q 483 717 490 717 q 382 793 382 721 q 410 862 382 835 q 488 892 439 889 q 499 892 489 892 q 518 893 508 893 q 544 893 528 893 q 572 895 560 892 q 590 906 583 899 q 600 922 596 914 q 605 941 604 931 q 606 959 606 951 q 606 975 606 967 l 604 982 q 681 1099 615 1090 q 756 1075 725 1104 q 789 996 786 1046 q 790 968 789 981 l 789 958 q 790 944 789 949 q 792 931 790 940 q 801 917 794 922 q 818 905 808 911 q 844 895 828 899 q 883 890 861 892 q 947 884 924 889 q 990 860 969 879 q 1013 807 1011 842 q 996 754 1014 775 q 875 717 964 719 q 810 697 829 715 q 790 657 790 678 q 789 439 790 511 q 853 375 788 375 l 883 375 z "},"¶":{"ha":1389,"x_min":0,"x_max":0,"o":""},"⃝":{"ha":1389,"x_min":165,"x_max":1247,"o":"m 661 -60 q 469 -15 554 -53 q 332 74 385 22 q 243 198 279 126 q 190 338 207 269 q 165 485 172 407 q 198 676 157 575 q 315 859 239 776 q 506 992 390 942 q 749 1031 622 1042 q 965 967 868 1021 q 1123 834 1063 914 q 1215 659 1183 754 q 1247 464 1247 564 q 1198 268 1247 367 q 1069 94 1149 169 q 881 -24 990 19 q 661 -60 772 -68 m 1013 486 q 945 690 1013 596 q 750 801 878 783 q 499 720 615 819 q 383 500 383 621 q 460 283 383 376 q 672 172 538 189 q 851 213 769 160 q 972 341 932 265 q 1013 486 1013 417 z "},"０":{"ha":1389,"x_min":239,"x_max":1146,"o":"m 707 1056 q 967 968 851 1054 q 1131 746 1082 882 q 1145 381 1188 593 q 986 68 1103 168 q 720 -29 878 -25 q 431 69 563 -33 q 262 322 308 172 q 239 642 215 472 q 398 935 264 811 q 707 1056 532 1058 m 547 278 q 695 219 614 224 q 843 265 776 214 q 927 419 908 318 q 929 614 946 519 q 853 758 913 697 q 725 824 793 818 q 592 793 664 829 q 489 682 519 757 q 453 539 458 608 q 464 419 449 469 q 501 333 479 368 q 547 278 522 299 z "},"１":{"ha":1389,"x_min":396,"x_max":844,"o":"m 513 733 q 396 806 417 736 q 396 879 379 838 q 476 965 413 921 q 569 1026 539 1007 q 649 1058 599 1044 q 744 1063 700 1072 q 813 1015 789 1053 q 840 943 836 978 q 844 854 844 908 q 839 452 844 772 q 829 89 833 132 q 787 14 826 43 q 710 -12 747 -15 q 639 17 674 -10 q 599 94 604 44 q 603 678 594 138 q 587 731 604 714 q 547 740 569 747 q 513 733 524 733 z "},"２":{"ha":1389,"x_min":332,"x_max":1083,"o":"m 535 774 q 476 725 514 739 q 394 726 438 711 q 333 792 347 743 q 353 907 318 840 q 514 1038 399 989 q 764 1053 629 1086 q 971 900 900 1018 q 1025 665 1042 782 q 974 485 1011 554 q 865 336 938 415 q 783 256 815 283 q 770 225 763 236 q 810 213 778 214 q 969 210 913 210 q 1053 178 1022 210 q 1083 101 1083 147 q 1054 23 1089 49 q 946 -3 1019 -3 l 458 -3 q 388 24 431 -7 q 343 96 344 54 q 369 175 342 139 q 488 294 397 211 q 536 340 497 303 q 592 392 575 376 q 642 441 608 407 q 695 497 676 475 q 737 547 714 518 q 773 601 760 576 q 793 649 786 626 q 793 760 813 714 q 721 825 774 806 q 599 829 647 851 q 535 774 556 810 z "},"３":{"ha":1389,"x_min":344,"x_max":1008,"o":"m 921 586 q 929 483 883 542 q 1008 290 1007 385 q 944 91 1010 178 q 769 -12 878 4 q 696 -18 719 -18 q 407 94 519 -18 q 344 201 356 146 q 357 285 333 256 q 440 331 385 325 q 532 300 494 336 q 665 217 608 224 l 686 217 q 751 231 722 217 q 785 275 781 246 q 764 355 792 319 q 706 404 736 390 l 685 414 q 636 436 653 428 q 600 462 619 444 q 572 500 581 479 q 576 576 557 539 q 633 633 596 613 q 751 717 738 689 q 732 826 785 782 q 675 844 711 844 q 576 824 618 844 q 426 833 489 779 q 397 906 394 860 q 457 1006 400 963 q 557 1048 493 1032 q 683 1064 621 1064 q 885 1008 803 1064 q 994 731 1017 921 q 921 586 986 667 z "},"４":{"ha":1389,"x_min":246,"x_max":1117,"o":"m 678 1001 q 815 1049 729 1060 q 890 1016 854 1044 q 926 942 926 988 q 924 773 925 896 q 924 600 924 650 q 1007 486 924 486 q 1036 483 1019 486 q 1091 450 1065 482 q 1117 379 1117 418 q 1091 298 1117 333 q 1018 263 1065 263 l 986 263 q 936 242 954 263 q 917 189 918 221 q 914 71 917 124 q 883 8 913 33 q 818 -18 853 -18 q 746 5 782 -18 q 706 65 710 28 q 701 188 699 110 q 687 241 701 219 q 647 264 672 263 q 393 267 499 264 q 256 350 299 271 q 247 430 238 385 q 286 515 256 475 q 487 767 331 572 q 678 1001 643 963 m 582 500 l 664 500 q 691 511 682 500 q 700 533 700 522 l 701 543 l 704 654 q 700 663 703 658 q 689 674 697 667 q 669 668 681 682 q 638 617 663 649 q 590 564 613 585 l 568 542 q 567 526 569 535 q 562 512 564 517 q 564 503 560 507 q 582 500 568 500 z "},"５":{"ha":1389,"x_min":371,"x_max":1026,"o":"m 471 1029 q 864 1035 713 1035 q 956 1003 919 1035 q 992 917 993 972 q 956 835 990 867 q 858 804 921 804 q 672 803 701 804 q 617 782 636 800 q 597 747 599 764 l 597 731 l 597 694 q 599 683 597 690 q 616 665 601 676 q 656 651 631 653 q 906 594 832 647 q 1026 233 1071 476 q 910 48 1004 122 q 682 -22 817 -26 q 379 115 450 -15 q 371 202 357 161 q 419 261 385 243 q 585 225 483 296 q 701 198 631 192 q 803 246 772 204 q 822 349 838 292 q 750 436 807 407 q 549 443 679 471 q 438 458 485 431 q 390 535 390 485 l 390 944 q 414 1006 392 982 q 471 1029 436 1029 z "},"６":{"ha":1389,"x_min":336,"x_max":1017,"o":"m 825 611 q 992 471 932 583 q 1017 213 1053 358 q 899 48 990 106 q 704 -10 807 -10 q 581 14 640 -10 q 382 205 442 69 q 336 568 322 340 q 437 886 350 768 q 639 1036 524 1004 q 724 1047 681 1047 q 926 976 842 1047 q 964 909 961 947 q 947 849 967 871 q 871 810 926 810 q 817 819 844 810 q 735 832 778 832 q 626 793 658 832 q 560 653 574 728 q 569 619 556 633 q 618 614 583 604 q 711 626 674 626 q 825 611 761 626 m 807 253 q 820 271 807 253 q 832 328 833 289 q 803 399 831 367 q 736 442 776 431 q 706 446 722 446 q 635 428 669 446 q 589 376 600 410 q 593 261 563 306 q 703 206 633 206 q 738 210 719 206 q 807 253 781 217 z "},"７":{"ha":1389,"x_min":317,"x_max":1085,"o":"m 522 756 q 540 802 522 785 q 575 822 557 819 l 592 825 l 775 822 q 782 821 778 822 q 798 814 786 819 q 815 801 810 808 q 826 779 821 793 q 821 749 831 765 q 683 392 765 610 q 592 138 600 174 q 599 52 579 89 q 661 6 619 15 q 733 8 708 -6 q 792 65 758 21 q 943 448 815 96 q 1085 861 1071 800 q 1063 978 1101 933 q 967 1026 1024 1024 q 482 1039 933 1028 q 361 998 403 1040 q 317 892 319 956 q 319 649 311 711 q 351 595 322 615 q 415 575 379 575 q 483 594 451 575 q 518 642 515 613 q 522 756 525 689 z "},"８":{"ha":1389,"x_min":344,"x_max":1025,"o":"m 440 600 q 385 753 385 674 q 528 1029 381 950 q 726 1061 603 1074 q 918 979 849 1049 q 982 871 963 935 q 1000 758 1001 807 q 988 674 999 710 q 932 586 975 632 q 936 519 906 557 q 1025 347 1008 433 q 1001 149 1046 240 q 864 19 956 57 q 740 -12 806 -4 q 600 -6 675 -21 q 469 53 525 10 q 360 190 388 117 q 344 357 333 263 q 438 531 356 449 q 440 600 469 563 m 778 724 q 802 770 797 740 q 797 825 807 800 q 783 850 793 838 q 747 874 772 863 q 686 885 721 886 q 613 851 636 882 q 589 790 590 821 q 606 735 586 765 q 664 697 625 704 q 778 724 733 683 m 776 408 q 712 435 753 431 q 639 428 671 440 q 583 385 608 417 q 563 294 557 353 q 592 226 565 253 q 644 191 618 199 q 693 182 669 183 q 769 205 728 181 q 818 275 811 229 q 776 408 833 357 z "},"９":{"ha":1389,"x_min":322,"x_max":999,"o":"m 856 1011 q 999 700 989 915 q 944 464 1001 603 q 931 425 939 450 q 849 225 911 371 q 767 47 786 79 q 679 -15 731 -15 q 640 -8 664 -15 q 586 39 603 3 q 581 138 560 90 q 660 315 615 228 q 660 363 675 344 q 625 383 646 381 q 463 432 517 392 q 358 562 394 483 q 322 729 321 640 q 372 901 325 819 q 489 1018 418 983 q 681 1057 574 1057 q 856 1011 789 1057 m 746 625 q 780 676 765 636 q 786 757 794 717 q 736 832 776 807 q 657 857 696 857 l 651 857 q 578 826 614 856 q 535 753 542 796 q 547 668 526 710 q 607 610 568 626 q 651 601 625 601 q 746 625 711 601 z "},"Ａ":{"ha":1389,"x_min":188,"x_max":1224,"o":"m 1217 136 q 1223 54 1236 92 q 1172 0 1210 17 q 1087 -3 1140 -19 q 1004 67 1033 14 q 975 131 997 79 q 936 218 953 183 q 899 266 921 250 q 861 282 876 282 l 846 282 l 585 282 q 578 283 582 282 q 561 281 574 283 q 537 272 549 278 q 510 251 525 267 q 482 214 494 236 q 449 150 468 189 q 415 83 429 111 q 396 49 400 56 q 333 -15 361 -1 q 258 -19 306 -29 q 188 34 208 -8 q 189 143 167 76 q 344 474 207 192 q 497 794 482 757 q 513 833 501 804 q 529 877 524 863 q 546 918 535 892 q 566 959 557 944 q 587 992 575 974 q 611 1021 599 1010 q 638 1038 624 1032 q 758 1047 686 1060 q 856 990 829 1035 q 1043 553 876 956 q 1217 136 1210 150 m 744 686 q 729 708 738 701 q 712 708 721 714 q 696 685 703 701 q 642 563 668 626 q 638 523 632 535 q 657 510 644 511 l 669 508 l 768 510 q 779 512 774 510 q 796 525 785 514 q 796 561 807 536 q 769 627 788 583 q 744 686 750 671 z "},"Ｂ":{"ha":1389,"x_min":353,"x_max":1088,"o":"m 1006 518 q 1088 264 1101 375 q 840 -3 1057 18 q 658 -11 747 -11 q 525 -7 625 -11 q 478 -6 506 -6 q 400 26 436 -6 q 358 106 364 57 q 353 879 350 161 l 353 918 q 389 1011 353 975 q 486 1051 425 1047 q 643 1056 549 1056 q 849 1046 775 1056 q 983 976 925 1036 q 1056 846 1042 915 q 1001 550 1086 690 q 996 542 999 547 l 993 536 q 1006 518 994 535 m 835 796 q 690 832 810 832 q 669 831 682 832 q 651 831 656 831 l 640 831 q 585 800 588 831 q 583 735 583 785 q 582 669 583 685 q 593 629 581 647 q 621 615 606 617 l 628 615 q 703 611 678 611 q 821 636 789 611 q 856 708 850 660 q 835 796 863 756 m 582 263 q 593 224 579 239 q 621 210 604 210 l 625 210 q 710 206 675 206 q 838 229 807 206 q 874 297 868 253 q 853 381 881 340 q 696 415 828 415 l 653 415 l 640 415 q 585 383 586 415 q 583 324 583 369 q 582 263 583 278 z "},"Ｃ":{"ha":1389,"x_min":257,"x_max":1082,"o":"m 972 258 q 1057 217 1028 258 q 1082 117 1094 167 q 983 22 1065 57 q 792 -6 919 -6 q 501 51 600 -6 q 438 94 468 69 q 366 165 407 118 q 299 268 325 213 q 258 408 272 324 q 257 588 244 492 q 304 758 268 681 q 388 886 340 836 q 493 972 435 936 q 606 1023 551 1007 q 710 1040 660 1039 q 718 1041 713 1040 q 726 1042 724 1042 q 942 999 842 1042 q 1075 903 1042 956 q 1074 756 1128 824 q 1001 724 1046 724 q 914 753 960 724 q 767 790 856 790 q 689 782 728 790 q 567 701 626 767 q 501 551 507 636 q 603 292 492 383 q 694 249 636 264 q 804 235 751 235 q 835 236 825 235 q 897 247 863 240 q 972 258 950 258 z "},"Ｄ":{"ha":1389,"x_min":290,"x_max":1154,"o":"m 1051 875 q 1136 681 1111 797 q 1153 452 1161 565 q 1114 244 1146 339 q 960 59 1071 121 q 728 -6 849 -3 l 713 -6 q 517 -8 568 -8 q 415 -6 457 -8 q 290 149 286 8 l 290 404 q 293 883 290 851 q 358 999 299 958 q 494 1039 418 1039 l 500 1039 l 550 1039 q 621 1040 571 1040 q 1051 875 928 1040 m 942 489 q 871 711 944 636 q 635 789 796 789 l 613 789 l 599 789 l 590 789 l 579 789 q 533 776 547 789 q 519 733 519 764 l 519 663 l 519 293 q 586 239 522 239 q 596 238 589 239 q 608 238 603 238 q 671 235 639 235 q 942 489 933 235 z "},"Ｅ":{"ha":1389,"x_min":328,"x_max":1063,"o":"m 953 225 q 1019 188 996 224 q 1043 113 1043 151 q 1016 40 1043 76 q 950 1 989 3 q 457 -6 822 -6 q 328 114 333 -6 q 331 735 324 213 q 332 883 332 807 q 460 1024 332 1019 l 536 1024 q 964 1018 856 1024 q 1037 982 1011 1017 q 1063 903 1063 947 q 1033 826 1063 854 q 951 794 1004 797 q 772 793 921 793 l 625 793 l 600 793 q 571 758 575 793 q 568 672 571 757 q 583 640 568 656 q 635 624 597 624 q 750 622 685 624 q 866 619 815 621 q 926 618 917 618 q 981 594 957 618 q 1011 507 1014 557 q 981 440 1008 471 q 915 407 954 408 q 853 406 906 406 q 744 406 824 406 q 626 407 665 407 q 567 346 567 407 q 565 260 565 301 q 615 228 565 228 q 953 225 894 228 z "},"Ｆ":{"ha":1389,"x_min":331,"x_max":1064,"o":"m 574 739 l 572 736 q 572 731 572 733 q 572 723 572 728 q 574 715 572 718 q 579 706 576 711 q 588 698 582 701 q 603 691 594 694 q 624 686 611 688 q 651 685 636 685 q 769 685 699 685 q 877 685 840 685 q 942 685 914 685 q 1000 660 975 685 q 1032 572 1035 624 q 1003 501 1031 533 q 935 465 975 468 q 647 461 919 465 q 578 383 578 461 q 578 296 578 354 q 581 213 579 238 q 581 153 581 182 q 581 108 581 125 l 582 90 q 547 15 582 46 q 471 -19 513 -17 l 463 -19 q 440 -18 451 -19 q 409 -9 428 -17 q 376 10 390 -1 q 350 46 361 22 q 338 101 339 69 q 331 874 331 249 q 460 1015 331 1014 q 963 1011 592 1019 q 1038 977 1013 1010 q 1064 900 1064 944 q 1034 819 1064 849 q 951 789 1004 790 q 772 788 921 788 l 622 788 q 608 784 617 786 q 587 769 600 782 q 574 739 574 757 z "},"Ｇ":{"ha":1389,"x_min":225,"x_max":1161,"o":"m 1050 563 q 1126 522 1093 558 q 1161 435 1160 486 q 1160 411 1161 426 q 1151 353 1160 396 q 1130 271 1143 310 q 1086 184 1117 232 q 1015 103 1056 136 q 703 3 894 3 q 603 8 649 3 q 416 83 501 19 q 285 221 331 146 q 225 365 239 296 q 382 907 157 722 q 721 1028 528 1028 q 871 1013 785 1028 q 1017 944 958 996 q 1085 846 1075 892 q 1068 754 1096 788 q 986 713 1035 713 q 908 744 954 713 q 883 760 892 756 q 832 783 857 775 q 742 794 792 794 q 686 790 717 794 q 599 761 656 786 q 507 692 543 736 q 449 565 464 640 q 453 414 433 490 q 528 290 472 338 q 719 225 606 225 q 824 239 774 225 q 917 308 881 256 q 917 347 929 324 q 872 367 904 369 l 804 367 q 715 391 754 367 q 675 457 676 415 q 701 528 674 500 q 804 564 735 564 l 847 565 q 906 566 867 565 q 963 567 944 567 q 1050 563 1022 567 z "},"Ｈ":{"ha":1389,"x_min":249,"x_max":1139,"o":"m 249 875 q 249 890 249 881 q 253 922 249 899 q 267 962 257 944 q 299 994 276 979 q 351 1008 321 1008 q 454 963 425 1008 q 483 856 483 918 l 483 685 q 502 631 482 650 q 542 608 522 611 l 563 607 l 836 606 q 853 606 843 606 q 881 626 864 607 q 900 681 899 644 q 901 847 901 739 q 939 979 903 944 q 1038 1008 975 1014 q 1106 967 1088 1003 q 1129 868 1125 932 q 1139 119 1139 715 q 1104 19 1139 51 q 1013 -6 1069 -12 q 942 26 961 -1 q 910 117 924 53 q 903 326 903 146 q 886 372 903 354 q 853 392 869 389 l 836 396 l 558 400 q 551 399 556 400 q 536 394 547 399 q 516 382 525 389 q 501 360 507 375 q 494 326 494 346 q 492 122 494 146 q 367 -7 482 -7 q 284 35 314 -7 q 257 138 254 76 q 253 516 258 185 q 249 875 249 847 z "},"Ｉ":{"ha":1389,"x_min":581,"x_max":829,"o":"m 825 504 q 829 143 831 172 q 802 43 826 76 q 714 6 778 10 q 707 4 711 4 q 622 49 650 4 q 590 158 593 94 q 581 536 586 268 q 582 899 576 804 q 624 980 588 950 q 706 1010 661 1010 q 789 972 754 1010 q 821 885 822 936 q 825 504 819 844 z "},"Ｊ":{"ha":1389,"x_min":318,"x_max":1013,"o":"m 899 1019 q 1013 874 1013 1017 q 1006 594 1013 806 q 993 311 999 383 q 924 117 988 193 q 747 13 860 40 q 643 0 697 0 q 485 29 558 0 q 368 111 413 58 q 318 332 260 235 q 403 374 342 374 q 493 329 461 374 l 501 318 q 535 276 522 290 q 574 250 547 263 q 635 238 600 238 l 643 238 q 742 279 707 239 q 781 393 778 319 q 783 647 783 465 q 782 876 783 828 q 818 990 779 950 q 894 1019 847 1019 l 899 1019 z "},"Ｋ":{"ha":1389,"x_min":281,"x_max":1121,"o":"m 1082 204 q 1120 131 1111 174 q 1113 58 1129 88 q 1007 4 1083 4 q 939 22 969 4 q 688 217 874 58 q 585 297 644 253 q 547 308 560 317 q 529 285 533 299 q 525 256 525 272 l 525 133 q 499 33 522 65 q 413 -4 476 0 q 407 -5 410 -4 q 403 -6 404 -6 q 319 39 347 -6 q 288 146 290 83 q 281 542 283 219 q 283 936 278 864 q 325 1017 289 988 q 406 1047 361 1046 q 488 1011 454 1047 q 521 925 522 974 q 521 761 518 893 q 526 736 521 747 q 544 721 532 725 q 579 733 557 717 q 735 854 700 826 q 769 882 761 875 l 783 893 q 867 960 842 940 q 929 999 893 981 q 990 1018 965 1018 q 1065 985 1032 1017 q 1097 914 1097 953 q 992 761 1100 844 q 775 567 925 711 q 748 522 750 543 q 754 490 746 501 q 782 463 763 479 q 1082 204 1044 243 z "},"Ｌ":{"ha":1389,"x_min":288,"x_max":1111,"o":"m 981 265 q 1075 228 1042 265 q 1111 140 1108 192 q 1079 56 1114 92 q 979 13 1043 15 q 479 10 826 10 q 402 24 442 10 q 328 79 363 38 q 292 185 293 121 q 288 569 289 283 q 289 910 288 856 q 325 1015 292 976 q 415 1053 358 1053 q 510 1014 474 1053 q 546 911 549 975 q 550 433 546 910 l 550 421 q 550 371 550 396 q 551 330 550 346 q 551 311 551 314 q 590 267 551 267 l 725 267 q 873 266 779 267 q 981 265 967 265 z "},"Ｍ":{"ha":1389,"x_min":228,"x_max":1197,"o":"m 1194 690 q 1197 111 1201 174 q 1166 38 1194 67 q 1094 7 1138 10 q 1014 33 1050 4 q 976 111 978 61 q 963 489 967 388 q 963 497 963 492 q 962 516 963 503 q 958 538 961 529 q 951 552 956 546 q 936 551 946 558 q 914 525 926 544 q 813 383 831 401 q 718 339 771 339 q 615 390 664 339 q 504 522 564 449 q 485 541 494 535 q 467 538 475 547 q 460 496 460 528 q 460 346 461 413 q 459 201 460 279 q 458 118 458 124 q 424 38 456 71 q 344 3 392 4 l 342 3 q 338 1 339 1 q 306 6 321 1 q 274 21 292 10 q 244 56 257 32 q 228 114 232 79 q 229 733 221 176 l 229 739 q 230 816 229 775 q 231 860 231 857 q 321 1019 231 989 q 353 1024 338 1024 q 424 997 390 1024 q 503 918 457 971 q 672 682 535 881 q 715 659 694 656 q 750 685 736 663 q 963 999 922 965 q 1065 1036 1008 1036 q 1135 1013 1104 1036 q 1183 944 1172 982 q 1193 844 1193 907 q 1194 791 1193 843 q 1194 694 1194 739 l 1194 690 z "},"Ｎ":{"ha":1389,"x_min":242,"x_max":1167,"o":"m 1057 1040 q 1133 1007 1099 1039 q 1167 929 1167 975 q 1158 117 1167 244 q 1119 43 1156 76 q 1031 10 1082 10 q 960 28 994 10 q 529 542 889 65 q 494 558 513 564 q 475 525 475 553 q 476 117 478 176 q 441 46 475 74 q 364 15 407 18 q 289 43 322 13 q 250 132 256 74 q 243 522 246 188 q 242 904 240 856 q 274 991 244 957 q 356 1032 304 1025 q 365 1033 358 1032 q 375 1033 371 1033 q 525 960 457 1033 q 892 464 585 893 q 924 447 907 443 q 942 476 942 451 l 942 925 q 976 1008 942 976 q 1054 1040 1011 1040 l 1057 1040 z "},"Ｏ":{"ha":1389,"x_min":214,"x_max":1188,"o":"m 1188 660 q 1174 317 1236 492 q 981 71 1113 143 q 714 8 864 8 q 401 97 519 8 q 238 333 296 178 q 214 657 179 489 q 374 915 244 801 q 675 1031 503 1028 l 686 1031 q 1001 927 861 1031 q 1188 660 1140 824 m 946 410 q 888 706 1000 588 q 701 778 819 778 q 533 722 597 778 q 460 439 417 625 q 544 314 476 365 q 700 258 613 263 q 851 297 778 256 q 946 410 925 338 z "},"Ｐ":{"ha":1389,"x_min":319,"x_max":1133,"o":"m 882 1036 q 1063 940 989 1031 q 1133 728 1136 850 q 1067 512 1131 607 q 890 407 1003 417 q 681 399 799 399 q 661 399 674 399 q 643 400 649 400 q 584 372 603 396 q 565 317 565 349 q 561 85 565 131 q 519 7 556 36 q 442 -22 483 -22 q 365 4 400 -22 q 322 78 329 31 q 319 813 315 119 l 319 910 q 351 1004 319 969 q 439 1046 382 1039 q 524 1049 472 1049 q 882 1036 665 1049 m 572 647 q 579 628 574 632 q 603 625 585 625 l 624 624 l 697 624 q 819 626 769 624 q 906 736 900 632 q 891 798 908 771 q 842 828 874 825 q 604 835 756 835 q 575 796 575 835 q 574 754 575 772 q 572 647 571 674 z "},"Ｑ":{"ha":1389,"x_min":218,"x_max":1192,"o":"m 1140 278 q 1131 257 1135 267 q 1128 240 1128 247 q 1128 226 1128 232 q 1131 215 1128 221 q 1135 207 1133 210 q 1140 201 1136 204 q 1143 196 1143 197 q 1158 178 1150 189 q 1143 64 1196 125 q 1081 40 1122 40 q 1004 68 1040 39 q 943 71 982 90 q 650 25 806 11 q 401 110 494 39 q 241 341 299 188 q 218 660 183 494 q 374 912 249 801 q 669 1025 500 1022 q 986 925 846 1028 q 1172 663 1126 822 q 1192 466 1200 569 q 1140 278 1183 363 m 694 254 q 736 261 711 251 q 758 329 772 275 q 775 414 749 372 q 826 447 792 439 q 897 438 861 456 q 936 432 918 426 q 961 457 954 438 q 962 583 981 506 q 889 718 943 660 q 706 792 821 789 q 521 735 592 796 q 444 442 401 635 q 532 312 461 365 q 694 254 603 258 z "},"Ｒ":{"ha":1389,"x_min":293,"x_max":1114,"o":"m 988 456 q 959 419 965 438 q 956 392 953 400 q 965 369 958 383 q 1065 151 1054 186 q 1061 65 1081 103 q 1006 8 1042 26 q 929 5 976 -10 q 861 67 882 19 q 740 332 826 149 l 736 344 q 728 359 731 356 q 719 372 726 363 q 703 385 711 382 q 683 392 696 389 q 653 393 669 394 l 579 393 q 537 373 553 393 q 522 321 521 353 q 519 90 522 113 q 482 19 514 46 q 410 -8 450 -8 q 338 17 369 -8 q 299 85 306 42 q 294 231 296 106 q 294 492 293 357 q 296 763 294 626 q 297 913 297 900 q 407 1039 297 1026 q 856 1029 500 1049 q 1039 935 961 1024 q 1114 728 1117 846 q 1078 576 1111 651 q 988 456 1044 501 m 532 633 q 538 610 532 618 q 551 601 544 603 q 574 600 558 600 q 792 603 751 600 q 868 637 839 606 q 901 722 897 668 q 878 797 904 760 q 815 838 853 835 q 574 844 750 844 q 535 797 535 844 q 533 751 535 790 q 531 685 532 713 q 532 633 531 657 z "},"Ｓ":{"ha":1389,"x_min":343,"x_max":1036,"o":"m 1036 881 q 1026 808 1047 842 q 974 768 1007 776 q 932 763 943 763 q 846 792 894 763 q 711 828 789 828 q 688 825 701 828 q 635 791 656 818 q 619 731 615 764 q 754 600 626 667 q 881 510 818 567 q 972 394 943 453 q 990 207 1015 306 q 885 51 965 108 q 643 -10 796 -10 q 571 -7 621 -10 q 464 22 526 -3 q 382 68 401 46 q 343 146 349 104 q 361 221 338 188 q 458 274 401 274 q 524 258 493 274 q 667 229 594 229 q 721 239 701 229 q 757 293 753 257 q 736 356 763 326 q 635 425 717 376 q 454 558 503 504 q 397 666 414 606 q 385 779 381 726 q 407 882 389 832 q 526 1023 442 978 q 704 1068 610 1068 q 799 1057 751 1068 q 963 979 903 1029 q 1036 881 1024 929 z "},"Ｔ":{"ha":1389,"x_min":225,"x_max":1147,"o":"m 1051 1061 q 1122 1024 1097 1057 q 1147 956 1147 992 q 1118 888 1147 919 q 1042 858 1089 857 q 1013 858 1035 858 q 965 858 992 858 q 903 858 939 858 q 829 833 850 860 q 808 769 808 806 q 808 532 808 694 q 807 252 807 369 q 806 113 807 135 q 782 19 803 50 q 701 -14 761 -11 q 619 24 647 -18 q 589 128 592 67 q 586 398 586 179 q 588 765 586 617 q 584 806 588 790 q 563 837 581 821 q 510 853 544 853 q 408 853 463 853 l 353 851 q 264 874 294 854 q 225 949 233 893 q 260 1033 218 1003 q 358 1067 301 1064 q 709 1068 411 1069 q 1051 1061 1007 1067 z "},"Ｕ":{"ha":1389,"x_min":260,"x_max":1126,"o":"m 1017 1029 q 1097 990 1068 1029 q 1126 881 1126 950 q 1115 335 1126 472 q 997 108 1104 207 q 719 7 889 8 l 714 7 q 401 108 517 7 q 274 390 285 208 q 260 879 260 585 q 293 989 260 949 q 385 1029 326 1029 l 390 1029 q 506 876 506 1025 q 503 796 506 865 q 519 394 492 467 q 585 286 546 324 q 704 249 624 249 l 710 249 q 838 287 794 250 q 892 404 881 324 q 894 800 901 475 q 893 894 893 842 q 928 992 893 954 q 1017 1029 963 1029 z "},"Ｖ":{"ha":1389,"x_min":211,"x_max":1189,"o":"m 1133 1000 q 1188 923 1178 972 q 1181 839 1199 874 q 1001 473 1169 806 q 800 88 833 140 q 676 21 758 21 q 546 94 593 21 q 365 472 488 189 q 211 840 243 754 q 260 1010 168 958 q 306 1022 281 1022 q 433 926 379 1022 q 533 706 449 900 q 651 439 617 511 q 688 414 664 415 q 726 440 711 413 q 965 938 899 803 q 1014 992 982 968 q 1081 1015 1046 1015 q 1133 1000 1107 1015 z "},"Ｗ":{"ha":1389,"x_min":138,"x_max":1251,"o":"m 138 867 q 213 1013 122 982 q 307 994 267 1031 q 365 904 347 958 q 479 521 375 875 q 503 492 488 492 q 525 521 518 492 q 597 740 583 717 q 694 800 629 799 q 796 735 760 801 q 876 500 829 669 q 891 477 881 483 q 912 477 901 471 q 926 500 922 483 q 1050 924 1014 817 q 1115 997 1068 981 q 1203 992 1163 1014 q 1249 938 1235 978 q 1251 861 1264 897 q 1196 666 1251 860 q 1083 289 1140 472 q 1004 67 1026 106 q 894 10 963 6 q 800 60 826 14 q 722 263 771 111 q 706 293 715 285 q 689 293 697 301 q 674 263 681 285 q 594 56 619 85 q 494 17 554 8 q 401 88 433 25 q 256 485 368 151 q 138 867 144 819 z "},"Ｘ":{"ha":1389,"x_min":254,"x_max":1156,"o":"m 910 589 q 896 465 853 521 q 1096 211 1075 239 q 1131 150 1121 175 q 1134 95 1142 125 q 1093 36 1126 65 q 1028 10 1064 7 q 962 31 992 13 q 904 79 932 49 q 753 267 900 83 q 642 275 696 336 q 467 74 481 88 q 413 28 436 42 q 358 16 389 14 q 292 46 326 18 q 254 108 260 71 q 263 178 249 144 q 303 243 276 211 q 493 469 426 393 q 496 590 543 526 q 303 843 329 801 q 287 937 276 896 q 329 1003 297 978 q 406 1026 354 1029 q 492 979 458 1022 q 651 774 500 967 q 694 751 667 754 q 754 776 722 747 q 954 1001 918 968 q 1045 1033 1001 1036 q 1119 1003 1089 1031 q 1156 928 1151 975 q 1122 835 1160 882 q 910 589 1101 814 z "},"Ｙ":{"ha":1389,"x_min":233,"x_max":1151,"o":"m 233 856 q 247 1014 174 961 q 338 1033 290 1043 q 422 982 386 1024 q 519 874 438 965 q 639 742 601 783 q 697 716 664 714 q 756 750 729 718 q 978 1007 947 985 q 1050 1035 1011 1033 q 1124 1007 1089 1038 q 1151 923 1154 971 q 1121 835 1147 875 q 868 507 1071 757 q 808 361 808 436 q 807 108 808 151 q 772 28 806 61 q 692 -6 738 -6 q 605 33 638 -4 q 569 129 572 69 q 568 369 565 204 q 513 517 568 450 q 233 856 250 826 z "},"Ｚ":{"ha":1389,"x_min":311,"x_max":1108,"o":"m 456 788 q 355 816 397 788 q 311 893 313 844 q 346 982 308 947 q 456 1018 383 1017 q 893 1017 608 1022 q 1029 926 1000 1013 q 1034 894 1035 911 q 1031 863 1033 876 q 1019 825 1029 849 q 1004 790 1010 801 q 983 747 999 778 q 681 307 974 726 q 660 265 663 283 q 669 235 657 246 q 704 224 681 224 q 997 221 907 221 q 1076 193 1047 222 q 1108 119 1106 164 q 1086 45 1111 75 q 1006 10 1061 15 q 721 6 953 6 q 449 7 489 6 q 353 44 392 10 q 315 138 315 79 q 335 213 315 174 q 394 303 356 251 q 442 369 432 354 q 686 715 479 432 q 706 771 711 750 q 668 790 701 792 q 456 788 515 788 z "},"ａ":{"ha":1389,"x_min":336,"x_max":1056,"o":"m 797 38 q 615 6 715 -3 q 422 85 503 15 q 336 279 342 156 q 535 638 325 536 q 796 653 663 692 q 986 525 929 615 q 1038 397 1022 469 q 1055 278 1054 325 q 1050 166 1056 232 q 1044 96 1044 100 q 1012 15 1043 43 q 931 -12 981 -12 q 869 18 897 -12 q 797 38 838 54 m 817 286 q 829 352 829 318 q 801 419 829 386 q 722 467 774 453 q 604 449 647 486 q 546 349 561 413 q 570 246 533 293 q 675 199 607 199 q 759 223 721 199 q 817 286 797 247 z "},"ｂ":{"ha":1389,"x_min":368,"x_max":1069,"o":"m 369 907 q 408 1000 368 968 q 499 1026 449 1032 q 575 982 543 1021 q 607 900 607 943 q 610 743 607 846 q 628 701 610 717 q 678 685 647 686 q 982 571 893 678 q 1069 344 1064 471 q 1008 131 1075 218 q 837 23 951 50 q 604 0 722 -4 q 460 14 492 3 q 376 140 385 39 q 369 543 368 182 q 369 907 369 904 m 590 254 q 659 205 592 213 q 771 225 726 197 q 831 302 817 250 q 819 399 844 354 q 788 439 807 424 q 744 460 769 454 q 703 467 719 465 q 661 468 688 468 q 604 451 622 468 q 586 393 586 433 q 590 254 586 307 z "},"ｃ":{"ha":1389,"x_min":343,"x_max":986,"o":"m 865 10 q 593 17 751 -24 q 422 128 492 40 q 343 336 351 215 q 403 570 336 467 q 600 708 469 674 q 735 725 669 729 q 844 707 800 721 q 918 674 888 693 q 971 531 1001 619 q 919 465 956 483 q 839 463 883 447 q 742 483 789 481 q 653 463 696 486 q 600 385 611 439 q 621 289 589 328 q 735 240 653 250 q 827 244 765 238 q 910 244 889 250 q 962 213 938 239 q 986 133 986 186 q 865 10 986 44 z "},"ｄ":{"ha":1389,"x_min":311,"x_max":1011,"o":"m 1007 144 q 968 48 1001 81 q 906 10 935 15 q 804 3 876 4 q 781 1 789 1 q 548 22 664 -4 q 375 128 432 49 q 311 341 307 215 q 397 568 315 467 q 704 685 486 678 q 749 703 732 686 q 767 749 767 721 l 767 901 q 799 983 767 943 q 875 1029 831 1024 q 966 1003 925 1035 q 1006 911 1007 971 q 1010 547 1006 893 q 1007 144 1015 200 m 794 394 q 776 451 794 433 q 719 468 758 468 q 676 467 693 468 q 635 459 660 465 q 592 438 611 453 q 560 397 574 422 q 551 301 536 353 q 611 224 565 249 q 723 206 656 197 q 792 256 790 214 q 794 394 794 308 z "},"ｅ":{"ha":1389,"x_min":396,"x_max":986,"o":"m 396 385 q 422 523 396 454 q 507 644 449 592 q 642 706 565 697 q 961 563 869 731 q 985 413 1003 485 q 901 299 968 342 q 694 264 846 264 q 668 254 675 264 q 674 233 661 244 q 846 215 728 189 q 938 180 899 228 q 947 78 978 132 q 853 10 924 35 q 664 7 782 -14 q 396 385 396 54 m 794 479 q 749 528 785 514 q 672 528 713 543 q 627 480 635 513 q 642 432 619 447 q 702 419 665 419 q 770 437 739 419 q 794 479 801 454 z "},"ｆ":{"ha":1389,"x_min":325,"x_max":1051,"o":"m 986 982 q 1051 808 1099 906 q 994 754 1032 769 q 931 753 956 739 q 874 767 910 768 q 821 740 839 767 q 813 708 808 729 q 846 685 817 686 q 873 684 854 685 q 897 682 892 683 q 972 635 944 678 q 1003 546 1000 593 q 968 465 1006 497 q 874 432 931 433 q 849 431 865 431 q 802 417 819 431 q 781 389 785 403 q 776 360 776 375 q 771 108 771 146 q 739 34 771 67 q 669 -1 707 1 q 598 24 631 -4 q 560 99 565 51 q 557 347 554 144 q 543 401 557 376 q 490 428 529 426 q 325 517 342 428 q 342 631 311 583 q 447 685 374 679 q 499 688 485 689 q 544 710 526 686 q 567 757 563 733 q 681 951 583 869 q 828 1009 735 997 q 986 982 922 1021 z "},"ｇ":{"ha":1389,"x_min":375,"x_max":1033,"o":"m 760 150 q 464 214 553 136 q 376 385 397 271 q 390 576 354 500 q 546 735 439 686 q 774 751 653 783 q 1024 417 983 697 q 1033 239 1033 329 q 1009 56 1033 149 q 940 -96 985 -37 q 813 -193 890 -160 q 642 -221 736 -226 q 492 -177 554 -215 q 417 -87 431 -139 q 435 1 406 -43 q 514 39 464 44 q 591 22 538 36 q 675 14 644 8 q 806 93 786 33 q 797 138 814 122 q 760 150 779 153 m 799 410 q 763 532 821 468 q 683 560 738 560 q 596 521 628 561 q 590 426 568 478 q 654 367 611 374 q 799 410 775 349 z "},"ｈ":{"ha":1389,"x_min":356,"x_max":1029,"o":"m 357 893 q 382 1004 364 979 q 457 1036 404 1036 q 551 992 521 1036 q 581 893 581 949 q 588 708 583 794 q 657 650 590 646 q 865 613 757 661 q 1029 324 1011 546 q 1028 86 1042 164 q 999 26 1022 53 q 928 0 975 0 q 849 29 876 0 q 817 96 821 58 q 815 204 815 117 q 811 313 814 292 q 773 394 808 365 q 697 423 738 424 q 622 392 656 422 q 585 308 588 361 q 584 251 583 282 q 584 181 585 219 q 581 126 583 143 q 545 32 571 60 q 469 0 519 4 q 393 25 417 -4 q 364 121 369 54 q 356 517 358 171 q 357 893 354 864 z "},"ｉ":{"ha":1389,"x_min":565,"x_max":832,"o":"m 707 663 q 600 703 642 658 q 565 811 558 749 q 641 915 575 886 q 750 921 707 944 q 832 786 832 879 q 800 703 832 739 q 707 663 768 668 m 572 143 q 571 463 558 293 q 703 611 581 611 q 788 567 756 611 q 819 438 819 524 q 820 346 819 407 q 821 249 821 285 q 819 170 821 213 q 813 101 818 128 q 685 -12 788 -21 q 628 3 650 -10 q 594 42 606 17 q 579 88 583 68 q 572 143 575 107 z "},"ｊ":{"ha":1389,"x_min":236,"x_max":871,"o":"m 717 658 q 632 701 669 663 q 594 783 594 739 q 633 885 594 836 q 736 929 672 935 q 838 877 801 924 q 871 785 874 831 q 823 696 867 739 q 717 658 779 653 m 608 439 q 641 558 606 511 q 739 604 676 604 q 818 564 797 604 q 843 443 839 524 q 828 67 849 319 q 744 -106 819 -37 q 579 -190 668 -175 q 406 -184 488 -206 q 272 -111 324 -162 q 237 -27 242 -81 q 265 69 232 26 q 335 101 292 100 q 414 79 379 103 q 490 55 447 58 q 558 64 533 51 q 597 101 583 75 q 615 173 611 128 q 617 253 618 218 q 613 350 617 288 q 608 439 610 413 z "},"ｋ":{"ha":1389,"x_min":429,"x_max":1017,"o":"m 850 428 q 827 384 829 410 q 843 340 825 358 q 990 185 964 215 q 1012 106 1014 153 q 990 38 1010 60 q 952 12 978 22 q 888 4 926 1 q 819 35 850 7 q 693 158 794 57 q 666 167 682 172 q 650 135 650 163 q 649 116 650 126 q 649 104 649 106 q 617 29 646 61 q 536 -8 588 -3 q 459 22 485 -12 q 436 111 433 57 q 435 323 438 142 q 431 691 433 504 q 429 894 429 878 q 521 1022 429 1022 q 613 986 578 1022 q 649 900 649 950 q 649 853 649 893 q 650 752 650 814 q 650 632 650 690 q 661 602 650 611 q 701 611 672 593 q 843 718 811 697 q 934 738 883 746 q 1004 692 985 729 q 1016 609 1025 656 q 971 533 1007 563 q 850 428 931 503 z "},"ｌ":{"ha":1389,"x_min":576,"x_max":814,"o":"m 807 147 q 804 98 806 113 q 797 60 803 83 q 781 28 792 38 q 751 10 771 19 q 703 0 732 1 q 611 44 640 -4 q 579 164 582 92 q 577 532 575 233 q 586 888 579 831 q 629 975 593 944 q 710 1006 665 1006 q 783 970 751 1006 q 814 875 815 935 q 810 508 813 832 q 807 147 808 183 z "},"ｍ":{"ha":1389,"x_min":243,"x_max":1167,"o":"m 243 582 q 271 674 243 639 q 343 710 299 710 q 421 692 394 710 q 514 671 475 653 q 617 694 563 696 q 722 660 675 690 q 828 653 774 628 q 963 682 903 688 q 1096 617 1038 675 q 1167 463 1154 558 q 1163 69 1185 331 q 1133 11 1160 33 q 1067 -11 1107 -11 q 976 76 990 -11 q 974 231 971 104 q 972 382 976 357 q 896 444 960 444 q 853 431 868 444 q 828 382 838 418 q 819 221 821 353 q 815 79 817 89 q 783 19 813 42 q 713 -3 754 -3 q 624 74 644 -3 q 613 234 615 100 q 608 381 610 368 q 546 461 601 456 q 465 394 481 467 q 459 224 461 374 q 451 53 457 74 q 419 3 446 22 q 358 -15 392 -15 q 285 8 319 -15 q 249 79 251 32 q 243 582 243 188 z "},"ｎ":{"ha":1389,"x_min":336,"x_max":1026,"o":"m 339 593 q 372 678 344 649 q 442 711 400 708 q 522 681 485 714 q 607 664 565 647 q 653 670 621 664 q 708 677 686 676 q 775 671 729 678 q 941 579 882 649 q 1018 392 1000 510 q 1026 79 1040 242 q 1001 15 1024 42 q 940 -14 978 -11 q 833 79 843 -19 q 829 221 831 122 q 824 358 828 319 q 787 443 818 419 q 697 467 756 467 q 593 435 632 467 q 556 328 554 404 q 554 78 557 207 q 456 -14 550 -10 q 349 86 367 -21 q 337 335 340 142 q 339 593 333 528 z "},"ｏ":{"ha":1389,"x_min":347,"x_max":1044,"o":"m 693 -7 q 483 62 579 -7 q 356 264 386 131 q 348 351 344 304 q 361 447 351 399 q 399 539 371 494 q 464 617 426 583 q 559 671 501 651 q 688 690 617 690 q 836 663 771 689 q 941 598 901 638 q 1006 506 981 558 q 1039 406 1031 454 q 1044 308 1047 357 q 943 85 1036 176 q 693 -7 850 -7 m 832 307 q 838 358 836 331 q 819 419 839 386 q 758 472 799 453 q 631 470 690 506 q 560 386 572 435 q 573 282 547 333 q 665 218 599 231 q 776 233 731 204 q 832 307 821 261 z "},"ｐ":{"ha":1389,"x_min":385,"x_max":1043,"o":"m 385 576 q 391 616 386 599 q 400 647 396 633 q 415 672 404 661 q 431 689 426 682 q 453 701 436 696 q 475 708 469 706 q 503 713 481 711 q 531 716 525 715 q 564 717 536 717 q 597 718 592 718 q 983 586 885 725 q 1043 369 1049 499 q 956 139 1038 239 q 665 25 867 32 q 621 6 638 25 q 606 -42 604 -12 l 606 -107 q 578 -188 606 -150 q 507 -232 550 -226 q 425 -206 458 -237 q 393 -114 392 -175 q 386 205 394 -83 q 385 576 378 493 m 579 325 q 597 268 579 286 q 653 250 614 250 q 712 252 690 250 q 765 271 733 254 q 813 319 796 288 q 824 416 838 364 q 764 493 810 468 q 652 512 719 519 q 582 463 585 504 q 579 325 579 411 z "},"ｑ":{"ha":1389,"x_min":326,"x_max":983,"o":"m 975 -114 q 944 -206 978 -175 q 863 -232 911 -237 q 791 -188 819 -226 q 763 -107 763 -150 q 763 -76 763 -97 q 764 -44 764 -56 q 748 5 765 -15 q 701 25 731 25 q 414 139 501 32 q 326 369 332 239 q 386 586 321 499 q 772 718 485 725 q 904 706 878 714 q 983 576 974 681 q 983 199 992 490 q 975 -114 975 -93 m 788 463 q 717 512 785 504 q 606 493 650 519 q 546 416 560 468 q 557 319 532 364 q 588 279 569 294 q 632 258 607 264 q 673 251 657 253 q 715 250 689 250 q 773 268 756 250 q 790 325 790 286 q 788 463 790 411 z "},"ｒ":{"ha":1389,"x_min":422,"x_max":1024,"o":"m 422 579 q 518 735 414 735 q 602 704 572 735 q 632 622 632 674 q 647 583 632 590 q 685 594 661 576 q 811 663 750 643 q 948 672 885 688 q 1024 599 1011 656 q 1007 508 1038 540 q 892 453 976 476 q 667 242 713 403 q 653 153 660 217 q 631 55 646 90 q 579 10 615 19 q 531 1 551 3 q 496 5 510 -1 q 473 17 482 11 q 458 38 464 22 q 450 61 453 53 q 444 91 447 69 q 440 119 442 113 q 429 352 433 158 q 422 579 425 546 z "},"ｓ":{"ha":1389,"x_min":417,"x_max":956,"o":"m 475 604 q 535 709 494 671 q 617 759 576 747 q 715 774 658 771 q 871 750 806 776 q 956 679 936 724 q 951 588 975 635 q 869 540 928 542 q 805 551 844 540 q 739 563 765 563 q 693 540 713 563 q 683 513 683 524 q 696 490 682 503 q 724 470 710 478 q 758 451 738 463 q 789 429 778 439 q 820 402 807 414 q 852 371 833 390 q 883 333 871 351 q 908 290 896 315 q 925 242 919 265 q 931 188 931 218 q 922 128 931 158 q 836 -5 896 35 q 667 -42 776 -44 q 428 49 494 -40 q 417 93 414 64 q 430 151 419 122 q 471 196 440 179 q 542 204 501 213 q 587 194 553 201 q 635 183 621 186 q 672 178 650 181 q 706 182 694 176 q 721 199 717 188 q 708 247 732 225 q 635 296 683 269 q 568 340 588 322 q 475 604 433 463 z "},"ｔ":{"ha":1389,"x_min":369,"x_max":1010,"o":"m 897 707 q 983 659 956 700 q 1010 576 1011 618 q 969 502 1008 531 q 867 474 931 474 q 843 470 857 474 q 812 452 829 467 q 794 414 794 438 l 794 132 q 696 -4 794 -4 q 619 29 642 -4 q 589 136 597 63 q 585 411 582 206 q 535 474 585 472 q 369 572 369 479 q 415 661 369 628 q 532 707 461 694 q 576 728 554 711 q 601 778 597 746 q 631 860 607 835 q 707 886 654 886 q 797 767 789 886 q 818 725 799 740 q 860 708 838 710 q 883 708 869 708 q 897 707 896 707 z "},"ｕ":{"ha":1389,"x_min":346,"x_max":1026,"o":"m 349 550 q 369 672 343 635 q 454 711 394 708 q 538 673 508 715 q 571 575 567 631 q 572 519 571 564 q 574 433 572 474 q 578 347 575 393 q 590 271 581 301 q 611 233 599 240 q 670 216 635 219 q 741 226 706 213 q 790 269 776 239 q 809 374 804 299 q 812 512 814 450 q 813 615 810 574 q 931 704 819 713 q 1002 660 982 701 q 1026 519 1022 618 q 1011 238 1033 335 q 806 10 965 42 q 507 29 618 -29 q 367 235 396 88 q 347 384 350 322 q 347 489 343 446 q 349 550 350 532 z "},"ｖ":{"ha":1389,"x_min":251,"x_max":1125,"o":"m 268 526 q 252 628 243 586 q 308 699 261 671 q 404 701 361 725 q 481 617 447 678 q 640 333 506 568 q 681 301 658 303 q 722 329 703 300 q 919 629 856 535 q 1085 688 997 743 q 1125 525 1168 635 q 1060 415 1118 506 q 931 219 1001 325 q 844 86 861 114 q 685 -3 789 -1 q 517 93 582 -6 q 268 526 293 454 z "},"ｗ":{"ha":1389,"x_min":242,"x_max":1154,"o":"m 1151 650 q 1154 571 1169 608 q 1150 560 1153 568 q 1142 537 1147 553 q 1133 508 1138 521 q 958 49 996 103 q 921 7 939 19 q 869 -6 903 -6 q 822 6 838 -6 q 789 43 806 17 q 733 164 772 71 q 714 192 725 183 q 691 194 703 200 q 671 168 679 188 q 608 36 622 50 q 594 21 603 31 q 581 8 585 11 q 567 2 576 6 q 546 -1 558 -1 q 492 14 513 -1 q 451 64 472 29 q 335 328 424 111 q 242 582 247 544 q 303 718 222 694 q 339 724 328 724 q 419 694 385 724 q 468 624 453 664 q 522 469 488 574 q 547 449 529 450 q 571 465 565 449 q 606 549 596 533 q 700 606 642 606 q 794 544 758 606 q 836 450 813 515 q 862 433 843 431 q 888 457 881 436 q 951 638 935 596 q 1064 713 981 713 q 1103 703 1078 713 q 1151 650 1129 693 z "},"ｘ":{"ha":1389,"x_min":350,"x_max":1057,"o":"m 1010 208 q 1024 189 1011 207 q 1040 164 1036 171 q 1051 138 1044 157 q 1056 105 1058 118 q 1044 73 1054 92 q 1015 36 1035 54 q 943 7 983 7 q 822 75 879 7 q 699 210 775 131 q 553 57 578 82 q 457 6 501 6 q 390 28 421 6 q 350 97 357 56 q 394 215 344 158 q 492 322 419 246 q 511 362 508 340 q 508 397 514 383 q 493 419 501 411 q 389 538 400 517 q 365 628 361 586 q 404 697 369 671 q 478 721 435 721 q 576 669 540 721 q 590 654 579 665 q 617 625 600 643 q 650 589 635 607 q 744 586 699 535 l 835 676 q 917 706 871 707 q 996 676 964 706 q 1025 601 1025 649 q 993 517 1028 553 q 907 426 972 494 q 891 402 897 417 q 888 365 885 388 q 907 325 890 343 q 1010 208 992 235 z "},"ｙ":{"ha":1389,"x_min":322,"x_max":1103,"o":"m 351 506 q 323 615 319 569 q 372 690 326 660 q 471 701 421 721 q 561 621 521 681 q 664 465 572 604 q 707 439 682 439 q 754 465 732 439 q 901 647 867 611 q 945 681 921 668 q 1004 692 969 694 q 1068 657 1039 689 q 1102 590 1099 625 q 1091 524 1106 554 q 1043 449 1076 493 q 615 -104 676 -53 q 561 -147 578 -135 q 510 -158 544 -158 q 438 -128 475 -158 q 468 81 365 -72 q 519 147 492 117 q 526 238 557 192 q 351 506 375 454 z "},"ｚ":{"ha":1389,"x_min":372,"x_max":1036,"o":"m 488 497 q 372 581 376 504 q 403 664 369 628 q 500 701 438 700 q 885 704 596 704 q 971 648 935 704 q 969 539 1007 592 q 739 260 947 503 q 722 221 718 236 q 750 206 725 206 q 950 197 947 197 q 1011 165 983 194 q 1036 92 1039 136 q 999 17 1032 44 q 915 -10 967 -10 q 789 -14 858 -14 q 610 -11 719 -14 q 492 -8 501 -8 q 426 20 457 -8 q 385 78 394 49 q 394 151 375 114 q 454 235 413 188 q 656 460 464 246 q 666 489 672 478 q 635 500 660 500 q 488 497 508 496 z "},"ぁ":{"ha":1389,"x_min":379,"x_max":1035,"o":"m 960 374 q 1021 265 1003 328 q 1035 152 1039 201 q 1015 72 1031 103 q 919 -8 976 -8 q 892 -3 904 -8 q 861 28 867 8 q 876 103 850 60 q 885 233 915 172 q 875 242 881 242 q 863 232 869 242 q 851 213 860 226 q 836 192 842 200 q 812 155 829 182 q 788 117 794 128 q 779 78 776 94 q 751 -3 786 18 q 721 -10 735 -10 q 660 14 686 -10 q 646 17 654 19 q 483 13 557 -12 q 396 102 428 31 q 379 250 364 174 q 432 354 389 300 q 536 438 475 408 q 556 475 556 447 q 533 501 554 501 q 521 503 529 503 q 515 501 519 501 q 424 568 432 501 q 440 624 419 599 q 522 654 472 658 q 544 653 536 654 q 565 660 554 653 q 578 686 575 668 q 647 756 592 756 q 671 751 658 756 q 703 732 692 744 q 715 709 714 719 q 717 679 717 699 q 724 658 717 664 q 749 650 731 650 l 772 650 q 826 626 806 650 q 844 578 847 604 q 774 503 838 510 q 754 502 769 503 q 728 501 739 501 l 725 501 q 701 482 701 501 q 707 472 701 476 q 718 467 713 468 l 724 467 q 853 446 799 465 q 960 374 908 426 m 756 294 q 756 313 758 304 q 751 315 754 315 q 742 317 749 317 q 731 318 735 318 l 719 318 q 708 314 713 318 q 706 299 703 308 q 711 260 708 285 q 715 242 713 254 q 717 225 717 231 l 718 226 q 756 294 740 260 m 597 143 q 599 157 601 149 q 575 269 576 263 q 567 276 575 276 q 560 272 564 276 q 531 183 518 235 q 588 139 539 139 l 589 139 q 597 143 593 139 z "},"あ":{"ha":1389,"x_min":211,"x_max":1199,"o":"m 1085 539 q 1176 379 1149 472 q 1199 211 1204 286 q 1169 85 1193 136 q 1088 -15 1136 15 q 992 -25 1040 -44 q 972 124 908 11 q 988 333 1033 232 q 963 351 978 351 q 936 332 947 350 q 883 253 931 324 q 821 154 836 182 q 806 89 801 122 q 767 -25 817 4 q 701 -32 738 -40 q 639 0 664 -24 q 607 6 628 11 q 365 -1 476 -37 q 235 133 281 28 q 211 351 189 239 q 293 512 228 431 q 447 635 358 593 q 482 700 483 653 q 440 750 479 746 q 411 751 429 751 q 318 772 350 751 q 279 843 286 792 q 316 933 272 896 q 421 965 360 969 q 454 964 442 965 q 490 977 471 964 q 517 1022 510 990 q 563 1105 526 1079 q 646 1115 599 1131 q 691 1090 676 1107 q 708 1058 706 1072 q 710 1014 710 1043 q 769 960 710 960 l 806 960 q 878 928 847 960 q 906 858 908 897 q 807 753 897 760 q 738 751 774 750 q 712 750 721 751 q 695 739 703 749 q 688 711 688 729 q 731 679 686 679 q 926 647 843 676 q 1085 539 1010 617 m 424 250 q 459 192 432 211 q 524 175 486 174 q 543 185 535 175 q 547 214 551 196 q 511 386 518 340 q 499 401 510 396 q 472 396 489 407 q 424 250 407 336 m 788 419 q 790 446 793 429 q 775 465 788 463 q 752 467 768 467 q 728 468 736 468 q 699 458 708 469 q 693 428 690 447 q 703 367 697 406 q 710 315 708 328 q 719 309 711 310 q 731 314 726 308 q 788 419 765 367 z "},"ぃ":{"ha":1389,"x_min":335,"x_max":1051,"o":"m 640 256 q 690 229 678 247 q 706 167 710 204 q 674 107 701 129 q 610 85 646 85 q 533 100 579 85 q 405 194 467 119 q 335 386 343 269 q 342 481 329 447 q 399 529 356 514 q 419 532 413 532 q 474 506 450 532 q 506 436 499 479 q 594 269 526 310 q 640 256 610 261 m 996 511 q 1044 424 1026 471 q 1051 343 1063 378 q 1000 296 1039 308 q 974 290 988 290 q 938 303 954 290 q 913 328 921 315 q 886 371 904 342 q 836 449 853 428 q 803 535 797 496 q 831 578 807 561 q 874 592 851 592 q 996 511 932 592 z "},"い":{"ha":1389,"x_min":185,"x_max":1232,"o":"m 185 557 q 195 692 178 646 q 274 758 213 739 q 366 738 324 775 q 421 629 408 701 q 557 376 451 438 q 631 352 581 363 q 697 318 681 342 q 717 235 722 288 q 672 150 711 182 q 585 119 635 119 q 474 140 536 119 q 391 183 435 153 q 302 261 347 213 q 224 388 257 310 q 185 557 192 465 m 926 656 q 918 833 835 775 q 998 849 954 861 q 1079 808 1042 838 q 1149 738 1117 779 q 1217 622 1192 681 q 1231 506 1242 563 q 1160 431 1221 450 q 1088 434 1119 418 q 1040 478 1057 450 q 990 561 1022 506 q 926 656 957 617 z "},"ぅ":{"ha":1389,"x_min":418,"x_max":925,"o":"m 596 582 q 524 679 506 613 q 551 717 529 703 q 604 732 574 732 q 628 729 614 732 q 790 674 731 710 q 831 599 840 642 q 804 560 824 575 q 758 544 785 544 q 736 547 753 544 q 596 582 633 569 m 911 394 q 924 253 938 326 q 861 114 911 181 q 676 -8 788 18 q 657 -10 669 -10 q 592 24 614 -10 q 583 93 571 56 q 661 165 594 121 q 743 232 717 200 q 754 322 778 272 q 654 365 729 376 q 585 343 639 363 q 483 318 507 314 q 421 357 438 326 q 418 418 406 381 q 496 490 433 458 q 635 525 558 521 l 665 525 q 911 394 861 525 z "},"う":{"ha":1389,"x_min":281,"x_max":1043,"o":"m 549 872 q 454 931 476 897 q 443 1010 432 964 q 497 1072 454 1051 q 594 1082 540 1093 q 729 1043 651 1069 q 839 997 807 1017 q 897 893 911 950 q 850 831 886 851 q 764 819 814 810 q 549 872 607 853 m 1021 574 q 1042 364 1061 475 q 944 151 1024 253 q 817 34 892 82 q 667 -32 743 -14 q 558 0 603 -47 q 536 110 513 47 q 592 176 550 144 q 690 244 635 207 q 779 319 746 281 q 809 395 806 353 q 796 474 813 438 q 735 531 779 510 q 633 542 692 551 q 509 501 610 538 q 375 469 408 464 q 288 517 315 479 q 281 608 261 554 q 397 715 304 669 q 606 767 489 761 q 728 763 671 769 q 846 738 786 757 q 951 676 906 718 q 1021 574 997 635 z "},"ぇ":{"ha":1389,"x_min":397,"x_max":1013,"o":"m 639 601 q 597 642 608 614 q 596 700 585 671 q 667 746 615 746 q 694 742 681 746 q 828 674 751 726 q 856 633 850 658 q 854 588 863 607 q 785 547 836 547 q 777 548 782 547 q 769 549 772 549 q 657 592 740 553 q 648 597 654 593 q 639 601 642 600 m 943 149 q 1003 122 990 142 q 1013 64 1015 101 q 985 15 1011 33 q 918 -6 960 -3 l 910 -6 q 812 12 865 -6 q 733 51 758 29 q 671 122 697 83 q 658 129 665 129 q 644 124 653 129 q 556 36 596 72 q 476 -3 517 -3 q 436 10 456 -3 q 400 58 404 29 q 428 135 394 90 q 607 319 454 169 l 656 368 q 660 376 663 374 q 649 381 658 381 q 488 379 524 378 q 397 446 411 383 q 411 507 390 482 q 494 540 436 539 l 547 540 q 817 535 736 540 q 878 503 854 533 q 897 442 901 472 q 864 378 894 419 q 815 322 833 338 q 797 286 804 311 q 803 226 790 261 q 943 149 842 163 z "},"え":{"ha":1389,"x_min":256,"x_max":1181,"o":"m 621 901 q 561 962 578 921 q 561 1042 544 1003 q 619 1100 579 1086 q 700 1101 660 1114 q 801 1057 735 1092 q 903 997 867 1022 q 942 939 933 976 q 939 878 951 901 q 818 822 910 811 q 748 842 789 826 q 667 878 707 858 q 621 901 626 899 m 1083 189 q 1167 151 1150 178 q 1181 71 1185 125 q 1142 1 1178 28 q 1044 -28 1106 -25 l 1033 -28 q 886 -2 965 -28 q 768 58 807 24 q 674 164 717 104 q 647 178 664 178 q 619 167 631 179 q 483 33 525 72 q 367 -24 424 -24 q 311 -7 339 -24 q 261 61 267 22 q 300 171 253 111 q 365 243 318 193 q 456 336 413 293 q 565 444 499 379 q 650 529 631 510 q 658 555 664 544 q 632 565 651 565 q 385 563 467 560 q 299 590 333 564 q 256 658 265 615 q 275 743 246 708 q 397 792 311 789 l 476 792 q 889 782 782 792 q 976 738 942 779 q 1004 650 1011 694 q 956 560 1000 619 q 882 474 913 501 q 862 440 872 464 q 847 381 851 417 q 863 313 842 344 q 1083 189 919 214 z "},"ぉ":{"ha":1389,"x_min":356,"x_max":1050,"o":"m 725 433 q 919 342 864 422 q 966 226 956 288 q 967 125 976 165 q 942 56 958 85 q 858 -6 908 -6 q 826 -1 843 -6 q 799 22 806 6 q 807 119 782 56 q 815 192 822 150 q 772 261 808 235 q 729 276 750 276 q 707 268 714 276 q 701 251 701 263 q 700 228 701 235 l 700 221 q 645 58 694 114 q 511 6 596 1 q 385 69 429 10 q 356 236 333 135 q 388 319 367 283 q 440 373 410 354 q 485 398 469 392 q 522 411 500 404 q 549 450 549 417 l 549 457 l 549 469 q 541 486 549 479 q 524 494 533 493 q 500 494 510 496 l 493 494 q 394 565 404 494 q 410 619 390 596 q 500 650 442 654 l 514 650 q 546 681 543 650 q 608 751 551 751 q 693 669 681 751 q 717 646 697 649 l 760 646 l 771 646 q 832 621 808 646 q 847 576 849 601 q 772 496 840 503 q 749 495 767 496 q 718 494 731 494 q 704 489 710 494 q 699 475 699 485 l 699 468 l 699 453 q 725 433 700 435 m 542 183 q 547 256 558 204 q 529 267 544 267 q 500 251 513 267 q 486 197 479 228 q 500 179 489 185 q 542 183 529 169 m 996 610 q 1029 567 1015 589 q 1050 516 1043 544 q 1039 471 1057 488 q 993 449 1018 449 q 938 476 963 449 q 901 522 924 494 l 889 539 q 869 604 863 571 q 896 643 876 632 q 928 653 915 653 q 996 610 956 653 z "},"お":{"ha":1389,"x_min":207,"x_max":1228,"o":"m 703 661 q 753 624 707 626 q 1035 490 954 610 q 1103 326 1088 413 q 1108 178 1119 239 q 1069 72 1096 118 q 1001 -3 1039 18 q 907 -8 964 -25 q 863 59 864 4 q 883 160 861 114 q 900 231 897 194 q 886 311 903 268 q 829 383 869 354 q 758 408 793 408 q 721 397 736 408 q 707 361 706 385 q 706 338 707 353 q 706 317 706 324 q 625 78 697 160 q 432 3 553 -4 q 243 103 308 8 q 207 336 178 197 q 450 590 251 538 q 497 660 497 603 l 497 689 q 483 720 497 706 q 450 736 469 735 q 433 736 442 736 q 415 736 424 736 q 404 736 407 736 q 306 758 340 736 q 265 833 272 779 q 303 921 258 888 q 415 950 349 954 q 436 949 428 950 q 458 952 447 949 q 480 968 468 956 q 493 1003 492 981 q 517 1076 497 1049 q 578 1101 536 1103 q 694 988 678 1101 q 738 944 700 947 q 771 943 754 943 q 802 944 788 943 q 821 944 817 944 q 898 917 867 944 q 926 849 929 889 q 897 772 922 803 q 822 738 871 742 q 742 736 806 736 q 712 722 721 735 q 704 696 703 710 q 703 682 704 694 q 703 661 701 669 m 411 244 q 491 263 474 221 q 494 368 508 304 q 461 393 490 392 q 408 368 432 394 q 383 297 383 339 q 411 244 383 256 m 1151 892 q 1196 834 1176 865 q 1228 761 1215 803 q 1215 696 1240 719 q 1141 666 1176 660 q 1079 706 1106 672 q 1004 799 1054 733 q 977 881 974 840 q 1013 940 981 922 q 1053 953 1033 953 q 1090 944 1072 954 q 1121 923 1108 935 q 1151 892 1133 911 z "},"か":{"ha":1389,"x_min":154,"x_max":1306,"o":"m 792 817 q 943 431 961 714 q 890 208 936 313 q 799 46 843 103 q 724 -1 771 10 q 651 4 678 -11 q 598 76 611 24 q 603 165 585 129 q 654 264 617 199 q 708 376 692 329 q 719 474 725 424 q 667 583 713 551 q 624 590 649 597 q 589 558 599 583 q 421 183 446 214 q 333 122 382 133 q 249 138 285 111 q 200 206 211 163 q 213 304 189 249 q 333 571 278 435 q 300 607 344 607 q 271 606 288 606 q 188 631 218 606 q 154 696 158 657 q 174 793 149 746 q 256 856 199 840 q 379 869 289 865 q 443 885 417 871 q 486 938 469 899 q 490 946 488 942 q 494 955 492 950 q 497 964 496 960 q 565 1052 518 1022 q 665 1065 611 1082 q 722 1013 704 1053 q 729 919 739 974 q 726 910 729 918 q 722 894 724 901 q 720 866 714 879 q 733 848 726 853 q 757 833 739 843 q 774 826 763 831 q 792 817 786 821 m 1306 582 q 1290 512 1314 546 q 1235 467 1267 478 q 1166 473 1197 453 q 1093 544 1135 493 q 1028 637 1071 572 q 967 724 985 701 q 968 882 892 813 q 1125 865 1043 953 q 1232 726 1172 815 q 1306 582 1292 636 z "},"が":{"ha":1389,"x_min":154,"x_max":1336,"o":"m 792 817 q 943 431 961 714 q 890 208 936 313 q 799 46 843 103 q 724 -1 771 10 q 651 4 678 -11 q 598 76 611 24 q 603 165 585 129 q 654 264 617 199 q 708 376 692 329 q 719 474 725 424 q 667 583 713 551 q 624 590 649 597 q 589 558 599 583 q 421 183 446 214 q 333 122 382 133 q 249 138 285 111 q 200 206 211 163 q 213 304 189 249 q 333 571 278 435 q 300 607 344 607 q 271 606 288 606 q 188 631 218 606 q 154 696 158 657 q 174 793 149 746 q 256 856 199 840 q 379 869 289 865 q 443 885 417 871 q 486 938 469 899 q 490 946 488 942 q 494 955 492 950 q 497 964 496 960 q 565 1052 518 1022 q 665 1065 611 1082 q 722 1013 704 1053 q 729 919 739 974 q 726 910 729 918 q 722 894 724 901 q 720 866 714 879 q 733 848 726 853 q 757 833 739 843 q 774 826 763 831 q 792 817 786 821 m 1167 831 q 1171 810 1160 825 q 1306 582 1285 663 q 1290 512 1314 546 q 1235 467 1267 478 q 1166 473 1197 453 q 1093 544 1135 493 q 1028 637 1071 572 q 967 724 985 701 q 968 882 892 813 q 1006 906 989 900 q 1025 924 1025 914 q 1021 936 1025 929 q 1006 1000 1004 965 q 1036 1049 1008 1035 q 1088 1047 1064 1063 q 1149 982 1113 1031 q 1199 883 1196 919 q 1167 831 1203 847 m 1303 1042 q 1336 956 1335 988 q 1303 906 1338 925 q 1235 914 1265 888 q 1169 1003 1206 940 q 1154 1066 1151 1031 q 1185 1117 1157 1101 q 1303 1042 1240 1143 z "},"き":{"ha":1389,"x_min":304,"x_max":1118,"o":"m 1118 613 q 1089 544 1121 571 q 993 507 1057 518 q 968 468 951 500 q 992 412 986 433 q 991 365 999 390 q 951 322 983 339 q 892 306 921 307 q 838 320 864 306 q 794 351 813 335 q 751 393 775 367 q 717 438 728 419 q 628 478 683 483 q 544 472 592 474 q 488 468 496 469 q 363 476 408 463 q 304 542 317 489 q 331 642 290 599 q 449 690 372 685 q 547 697 536 696 q 572 733 583 703 q 529 765 564 767 q 493 763 499 763 q 383 769 424 757 q 331 828 342 781 q 354 915 318 878 q 458 958 390 951 q 474 960 467 958 q 487 964 481 961 q 497 968 493 967 q 503 974 500 969 q 509 981 507 979 q 514 990 511 983 q 517 997 517 996 q 519 1006 517 999 q 522 1015 522 1014 q 613 1096 540 1082 q 718 1039 693 1110 q 749 994 731 1006 q 799 981 767 982 q 871 983 831 981 q 915 986 911 986 q 979 956 953 986 q 1008 886 1006 925 q 983 826 1011 850 q 900 793 956 801 q 839 786 897 793 q 815 774 826 785 q 807 749 803 763 q 865 719 818 718 q 955 724 906 721 q 1011 726 1004 726 q 1084 691 1054 725 q 1118 613 1114 657 m 800 136 q 844 73 840 115 q 813 -4 847 31 q 724 -39 779 -39 q 367 133 475 -36 q 324 272 318 210 q 388 354 331 333 q 428 362 407 365 q 460 355 449 358 q 488 335 472 351 q 515 308 504 319 q 543 274 525 296 q 575 239 561 253 q 699 173 611 203 q 800 136 786 143 z "},"ぎ":{"ha":1389,"x_min":304,"x_max":1244,"o":"m 800 136 q 844 73 840 115 q 813 -4 847 31 q 724 -39 779 -39 q 367 133 475 -36 q 324 272 318 210 q 388 354 331 333 q 428 362 407 365 q 460 355 449 358 q 488 335 472 351 q 515 308 504 319 q 543 274 525 296 q 575 239 561 253 q 699 173 611 203 q 800 136 786 143 m 976 1049 q 1028 1047 1004 1063 q 1089 982 1053 1031 q 1107 831 1178 864 q 1029 850 1072 813 q 1000 844 1013 864 q 900 793 976 804 q 839 786 897 793 q 815 774 826 785 q 807 749 803 763 q 865 719 818 718 q 955 724 906 721 q 1011 726 1004 726 q 1084 691 1054 725 q 1118 613 1114 657 q 1089 544 1121 571 q 993 507 1057 518 q 968 468 951 500 q 992 412 986 433 q 991 365 999 390 q 951 322 983 339 q 892 306 921 307 q 838 320 864 306 q 794 351 813 335 q 751 393 775 367 q 717 438 728 419 q 628 478 683 483 q 544 472 592 474 q 488 468 496 469 q 363 476 408 463 q 304 542 317 489 q 331 642 290 599 q 449 690 372 685 q 547 697 536 696 q 572 733 583 703 q 529 765 564 767 q 493 763 499 763 q 383 769 424 757 q 331 828 342 781 q 354 915 318 878 q 458 958 390 951 q 474 960 467 958 q 487 964 481 961 q 497 968 493 967 q 503 974 500 969 q 509 981 507 979 q 514 990 511 983 q 517 997 517 996 q 519 1006 517 999 q 522 1015 522 1014 q 613 1096 540 1082 q 718 1039 693 1110 q 799 981 739 981 q 871 983 831 981 q 915 986 911 986 q 947 1004 947 986 q 976 1049 947 1033 m 1244 1042 q 1243 906 1306 936 q 1176 914 1206 888 q 1111 1003 1146 940 q 1094 1066 1092 1031 q 1125 1117 1096 1101 q 1244 1042 1182 1144 z "},"く":{"ha":1389,"x_min":293,"x_max":964,"o":"m 363 371 q 306 446 325 404 q 293 539 286 488 q 342 635 300 590 q 538 829 401 697 q 724 1006 674 961 q 828 1053 769 1046 q 929 1018 888 1060 q 928 842 1010 924 q 628 576 906 819 q 629 483 576 532 q 926 214 892 253 q 964 124 960 176 q 938 38 968 71 q 853 -11 894 -6 q 749 19 813 -17 q 633 113 713 42 q 467 269 554 185 q 363 371 381 354 z "},"ぐ":{"ha":1389,"x_min":293,"x_max":1306,"o":"m 363 371 q 306 446 325 404 q 293 539 286 488 q 342 635 300 590 q 538 829 401 697 q 724 1006 674 961 q 828 1053 769 1046 q 929 1018 888 1060 q 928 842 1010 924 q 628 576 906 819 q 629 483 576 532 q 926 214 892 253 q 964 124 960 176 q 938 38 968 71 q 853 -11 894 -6 q 749 19 813 -17 q 633 113 713 42 q 467 269 554 185 q 363 371 381 354 m 1024 885 q 1008 948 1006 913 q 1038 997 1010 983 q 1090 995 1065 1011 q 1150 931 1114 979 q 1168 779 1239 813 q 1095 794 1136 763 q 1024 885 1054 825 m 1171 951 q 1156 1015 1153 979 q 1186 1065 1158 1050 q 1306 990 1244 1093 q 1304 854 1367 885 q 1237 863 1267 836 q 1171 951 1207 889 z "},"け":{"ha":1389,"x_min":181,"x_max":1233,"o":"m 442 825 q 447 576 436 763 q 471 332 458 390 q 460 224 482 272 q 382 167 438 175 q 291 190 325 158 q 233 293 257 222 q 201 442 217 343 q 181 662 186 542 q 199 872 176 782 q 263 978 218 949 q 353 996 308 1008 q 420 936 393 983 q 442 825 447 889 m 1164 818 q 1233 683 1247 768 q 1181 616 1228 646 q 1082 581 1133 586 q 1033 531 1036 574 q 967 213 1017 340 q 864 31 925 99 q 742 -10 803 -37 q 682 163 633 39 q 716 228 686 172 q 768 354 746 285 q 801 522 790 424 q 791 565 804 549 q 747 581 778 582 q 726 579 736 579 q 706 580 715 579 q 693 581 696 581 q 579 613 628 581 q 531 699 531 646 q 683 843 531 821 q 754 849 735 847 q 772 851 763 849 q 788 865 781 854 q 793 890 794 875 q 822 1002 788 957 q 911 1047 856 1047 q 995 1003 964 1047 q 1035 892 1026 958 q 1051 853 1038 865 q 1097 836 1064 842 q 1164 818 1150 826 z "},"げ":{"ha":1389,"x_min":181,"x_max":1317,"o":"m 442 825 q 447 576 436 763 q 471 332 458 390 q 460 224 482 272 q 382 167 438 175 q 291 190 325 158 q 233 293 257 222 q 201 442 217 343 q 181 662 186 542 q 199 872 176 782 q 263 978 218 949 q 353 996 308 1008 q 420 936 393 983 q 442 825 447 889 m 1188 825 q 1186 803 1169 815 q 1233 683 1244 754 q 1181 616 1228 646 q 1082 581 1133 586 q 1033 531 1036 574 q 967 213 1017 340 q 864 31 925 99 q 742 -10 803 -37 q 682 163 633 39 q 716 228 686 172 q 768 354 746 285 q 801 522 790 424 q 791 565 804 549 q 747 581 778 582 q 726 579 736 579 q 706 580 715 579 q 693 581 696 581 q 579 613 628 581 q 531 699 531 644 q 683 843 531 821 q 754 849 735 847 q 772 851 763 849 q 788 865 781 854 q 793 890 794 875 q 823 997 788 954 q 911 1047 858 1040 q 994 1002 963 1047 q 1035 892 1026 957 q 1082 839 1039 850 q 1093 840 1089 838 q 1090 850 1097 842 q 1035 928 1056 885 q 1019 991 1017 956 q 1049 1040 1021 1026 q 1101 1038 1076 1054 q 1163 974 1125 1022 q 1188 825 1246 863 m 1317 1033 q 1315 897 1379 929 q 1249 906 1279 879 q 1183 993 1218 932 q 1167 1058 1165 1022 q 1197 1108 1169 1093 q 1317 1033 1254 1136 z "},"こ":{"ha":1389,"x_min":324,"x_max":1026,"o":"m 565 778 q 450 824 489 790 q 421 911 411 857 q 603 1018 439 1018 q 836 943 710 1018 q 1007 797 963 868 q 1026 708 1033 750 q 983 643 1019 667 q 906 621 951 618 q 824 658 860 624 q 709 730 788 693 q 565 778 631 767 m 324 264 q 360 483 236 422 q 456 490 415 507 q 543 413 497 472 q 874 272 644 282 q 952 218 925 271 q 968 114 979 165 q 888 40 956 64 q 704 31 819 17 q 481 108 588 46 q 324 264 375 171 z "},"ご":{"ha":1389,"x_min":324,"x_max":1244,"o":"m 565 778 q 450 824 489 790 q 421 911 411 857 q 603 1018 439 1018 q 836 943 710 1018 q 1007 797 963 868 q 1026 708 1033 750 q 983 643 1019 667 q 906 621 951 618 q 824 658 860 624 q 709 730 788 693 q 565 778 631 767 m 324 264 q 360 483 236 422 q 456 490 415 507 q 543 413 497 472 q 874 272 644 282 q 952 218 925 271 q 968 114 979 165 q 888 40 956 64 q 704 31 819 17 q 481 108 588 46 q 324 264 375 171 m 963 915 q 947 978 944 943 q 976 1028 949 1014 q 1028 1026 1004 1042 q 1089 961 1053 1010 q 1107 808 1178 843 q 1034 824 1075 792 q 963 915 993 856 m 1111 981 q 1094 1044 1092 1008 q 1125 1096 1096 1081 q 1187 1089 1160 1107 q 1244 1021 1214 1071 q 1243 885 1306 915 q 1176 893 1206 867 q 1111 981 1146 919 z "},"さ":{"ha":1389,"x_min":290,"x_max":1083,"o":"m 999 708 q 960 639 929 678 q 1021 557 1000 588 q 1057 494 1042 526 q 1068 442 1072 463 q 1042 407 1064 421 q 943 372 1003 363 q 824 447 883 382 q 724 572 772 506 q 617 613 682 628 q 494 597 586 606 q 374 609 418 592 q 318 683 329 626 q 344 790 306 744 q 453 846 382 835 q 526 858 485 850 q 561 880 546 861 q 568 935 576 899 q 573 1045 551 1001 q 644 1104 594 1089 q 731 1100 696 1119 q 789 1018 765 1081 q 801 985 794 1003 q 893 933 825 918 q 947 944 926 939 q 1035 933 996 956 q 1083 864 1074 910 q 1076 768 1097 804 q 999 708 1056 732 m 792 171 q 861 108 838 151 q 865 26 885 65 q 797 -40 839 -26 q 675 -43 754 -53 q 472 47 568 -28 q 319 235 375 122 q 291 396 275 319 q 375 483 307 472 q 455 463 422 490 q 522 379 488 436 q 579 299 557 322 q 651 242 610 268 q 716 204 692 215 q 792 171 740 193 z "},"ざ":{"ha":1389,"x_min":290,"x_max":1251,"o":"m 792 171 q 861 108 838 151 q 865 26 885 65 q 797 -40 839 -26 q 675 -43 754 -53 q 472 47 568 -28 q 319 235 375 122 q 291 396 275 319 q 375 483 307 472 q 455 463 422 490 q 522 379 488 436 q 579 299 557 322 q 651 242 610 268 q 716 204 692 215 q 792 171 740 193 m 983 1054 q 1035 1052 1011 1068 q 1096 988 1060 1036 q 1114 835 1185 869 q 1088 801 1092 821 q 999 708 1074 740 q 960 639 929 678 q 1021 557 1000 588 q 1057 494 1042 526 q 1068 442 1072 463 q 1042 407 1064 421 q 943 372 1003 363 q 824 447 883 382 q 724 572 772 506 q 617 613 682 628 q 494 597 586 606 q 374 609 418 592 q 318 683 329 626 q 344 790 306 744 q 453 846 382 835 q 526 858 485 850 q 561 880 546 861 q 568 935 576 899 q 573 1045 551 1001 q 644 1104 594 1089 q 731 1100 696 1119 q 789 1018 765 1081 q 801 985 794 1003 q 893 933 825 918 q 932 942 919 939 q 954 986 963 950 q 983 1054 942 1032 m 1251 1046 q 1250 911 1314 943 q 1183 919 1213 893 q 1118 1007 1153 946 q 1101 1071 1099 1035 q 1132 1121 1103 1107 q 1251 1046 1189 1150 z "},"し":{"ha":1389,"x_min":353,"x_max":1051,"o":"m 367 879 q 416 984 374 942 q 513 1017 458 1026 q 621 856 621 996 q 612 710 621 844 q 608 474 603 576 q 639 333 613 372 q 713 278 667 293 q 802 269 760 263 q 885 293 844 275 q 993 286 940 318 q 1051 193 1046 254 q 885 24 1060 82 q 736 -2 811 0 q 585 25 661 -4 q 454 115 508 54 q 376 312 401 175 q 353 594 350 449 q 367 879 356 739 z "},"じ":{"ha":1389,"x_min":353,"x_max":1164,"o":"m 367 879 q 416 984 374 942 q 513 1017 458 1026 q 621 856 621 996 q 612 710 621 844 q 608 474 603 576 q 639 333 613 372 q 713 278 667 293 q 802 269 760 263 q 885 293 844 275 q 993 286 940 318 q 1051 193 1046 254 q 885 24 1060 82 q 736 -2 811 0 q 585 25 661 -4 q 454 115 508 54 q 376 312 401 175 q 353 594 350 449 q 367 879 356 739 m 882 904 q 866 967 864 932 q 896 1017 868 1003 q 948 1015 924 1031 q 1008 950 972 999 q 1028 797 1097 833 q 954 813 996 781 q 882 904 913 844 m 1031 969 q 1015 1033 1013 997 q 1044 1085 1017 1069 q 1164 1010 1101 1113 q 1163 874 1226 906 q 1095 882 1125 856 q 1031 969 1065 908 z "}}}
